Vaigai-Bold.ufo
<glyph name="exclam" format="2">
  <advance width="289"/>
  <unicode hex="0021"/>
  <outline>
    <contour>
      <point x="173" y="184" type="curve"/>
      <point x="212" y="635" type="line"/>
      <point x="188" y="650" type="line"/>
      <point x="164" y="642"/>
      <point x="98" y="611"/>
      <point x="72" y="596" type="curve"/>
      <point x="110" y="176" type="line"/>
      <point x="123" y="166" type="line"/>
      <point x="137" y="171"/>
      <point x="162" y="176"/>
    </contour>
    <contour>
      <point x="221" y="58" type="curve" smooth="yes"/>
      <point x="221" y="103"/>
      <point x="185" y="121"/>
      <point x="151" y="121" type="curve" smooth="yes"/>
      <point x="105" y="121"/>
      <point x="64" y="93"/>
      <point x="64" y="44" type="curve" smooth="yes"/>
      <point x="64" y="0"/>
      <point x="98" y="-17"/>
      <point x="134" y="-17" type="curve" smooth="yes"/>
      <point x="181" y="-17"/>
      <point x="221" y="9"/>
    </contour>
  </outline>
</glyph>
<glyph name="quotedbl" format="2">
  <advance width="313"/>
  <unicode hex="0022"/>
  <outline>
    <contour>
      <point x="281" y="520" type="line"/>
      <point x="281" y="550"/>
      <point x="267" y="571"/>
      <point x="234" y="571" type="curve" smooth="yes"/>
      <point x="202" y="571"/>
      <point x="188" y="550"/>
      <point x="188" y="520" type="curve"/>
      <point x="219" y="333" type="line"/>
      <point x="249" y="333" type="line"/>
    </contour>
    <contour>
      <point x="123" y="520" type="line"/>
      <point x="123" y="550"/>
      <point x="109" y="571"/>
      <point x="77" y="571" type="curve" smooth="yes"/>
      <point x="45" y="571"/>
      <point x="32" y="550"/>
      <point x="32" y="520" type="curve"/>
      <point x="63" y="333" type="line"/>
      <point x="92" y="333" type="line"/>
    </contour>
  </outline>
</glyph>
<glyph name="numbersign" format="2">
  <advance width="592"/>
  <unicode hex="0023"/>
  <outline>
    <contour>
      <point x="543" y="331" type="line"/>
      <point x="543" y="383" type="line"/>
      <point x="438" y="383" type="line"/>
      <point x="498" y="552" type="line"/>
      <point x="443" y="567" type="line"/>
      <point x="383" y="383" type="line"/>
      <point x="280" y="383" type="line"/>
      <point x="339" y="553" type="line"/>
      <point x="285" y="567" type="line"/>
      <point x="223" y="383" type="line"/>
      <point x="88" y="383" type="line"/>
      <point x="88" y="331" type="line"/>
      <point x="207" y="331" type="line"/>
      <point x="172" y="225" type="line"/>
      <point x="49" y="225" type="line"/>
      <point x="49" y="175" type="line"/>
      <point x="156" y="175" type="line"/>
      <point x="96" y="-4" type="line"/>
      <point x="150" y="-19" type="line"/>
      <point x="212" y="175" type="line"/>
      <point x="312" y="175" type="line"/>
      <point x="253" y="-5" type="line"/>
      <point x="308" y="-19" type="line"/>
      <point x="369" y="175" type="line"/>
      <point x="511" y="175" type="line"/>
      <point x="511" y="225" type="line"/>
      <point x="387" y="225" type="line"/>
      <point x="421" y="331" type="line"/>
    </contour>
    <contour>
      <point x="365" y="331" type="line"/>
      <point x="328" y="225" type="line"/>
      <point x="229" y="225" type="line"/>
      <point x="264" y="331" type="line"/>
    </contour>
  </outline>
</glyph>
<glyph name="dollar" format="2">
  <advance width="466"/>
  <unicode hex="0024"/>
  <outline>
    <contour>
      <point x="260" y="-54" type="curve"/>
      <point x="260" y="594" type="line"/>
      <point x="244" y="608" type="line"/>
      <point x="227" y="603"/>
      <point x="219" y="596"/>
      <point x="203" y="587" type="curve"/>
      <point x="203" y="-62" type="line"/>
      <point x="219" y="-76" type="line"/>
      <point x="233" y="-72"/>
      <point x="249" y="-63"/>
    </contour>
    <contour>
      <point x="211" y="-4" type="curve" smooth="yes"/>
      <point x="373" y="-4"/>
      <point x="431" y="83"/>
      <point x="431" y="161" type="curve" smooth="yes"/>
      <point x="431" y="345"/>
      <point x="134" y="307"/>
      <point x="134" y="416" type="curve" smooth="yes"/>
      <point x="134" y="450"/>
      <point x="169" y="477"/>
      <point x="220" y="477" type="curve" smooth="yes"/>
      <point x="282" y="477"/>
      <point x="318" y="442"/>
      <point x="341" y="382" type="curve"/>
      <point x="376" y="379" type="line"/>
      <point x="391" y="392"/>
      <point x="420" y="477"/>
      <point x="413" y="485" type="curve" smooth="yes"/>
      <point x="390" y="509"/>
      <point x="308" y="533"/>
      <point x="238" y="533" type="curve" smooth="yes"/>
      <point x="80" y="533"/>
      <point x="34" y="450"/>
      <point x="34" y="395" type="curve" smooth="yes"/>
      <point x="34" y="224"/>
      <point x="328" y="275"/>
      <point x="328" y="137" type="curve" smooth="yes"/>
      <point x="328" y="82"/>
      <point x="281" y="61"/>
      <point x="236" y="61" type="curve" smooth="yes"/>
      <point x="155" y="61"/>
      <point x="109" y="117"/>
      <point x="76" y="187" type="curve"/>
      <point x="40" y="188" type="line"/>
      <point x="31" y="156"/>
      <point x="28" y="56"/>
      <point x="36" y="50" type="curve"/>
      <point x="89" y="17"/>
      <point x="164" y="-4"/>
    </contour>
  </outline>
</glyph>
<glyph name="percent" format="2">
  <advance width="593"/>
  <unicode hex="0025"/>
  <outline>
    <contour>
      <point x="419" y="292" type="curve" smooth="yes"/>
      <point x="382" y="292"/>
      <point x="311" y="262"/>
      <point x="311" y="139" type="curve" smooth="yes"/>
      <point x="311" y="35"/>
      <point x="359" y="11"/>
      <point x="403" y="11" type="curve" smooth="yes"/>
      <point x="454" y="11"/>
      <point x="515" y="52"/>
      <point x="515" y="159" type="curve" smooth="yes"/>
      <point x="515" y="257"/>
      <point x="470" y="292"/>
    </contour>
    <contour>
      <point x="449" y="506" type="line"/>
      <point x="385" y="505" type="line"/>
      <point x="85" y="8" type="line"/>
      <point x="149" y="9" type="line"/>
    </contour>
    <contour>
      <point x="136" y="505" type="curve" smooth="yes"/>
      <point x="107" y="505"/>
      <point x="83" y="494"/>
      <point x="63" y="473" type="curve" smooth="yes"/>
      <point x="38" y="447"/>
      <point x="26" y="408"/>
      <point x="26" y="357" type="curve" smooth="yes"/>
      <point x="26" y="225"/>
      <point x="107" y="224"/>
      <point x="120" y="224" type="curve" smooth="yes"/>
      <point x="161" y="224"/>
      <point x="229" y="259"/>
      <point x="229" y="378" type="curve" smooth="yes"/>
      <point x="229" y="505"/>
      <point x="156" y="505"/>
    </contour>
    <contour>
      <point x="395" y="222" type="curve" smooth="yes"/>
      <point x="441" y="222"/>
      <point x="454" y="175"/>
      <point x="454" y="124" type="curve" smooth="yes"/>
      <point x="454" y="95"/>
      <point x="447" y="80"/>
      <point x="432" y="80" type="curve" smooth="yes"/>
      <point x="393" y="80"/>
      <point x="373" y="115"/>
      <point x="373" y="185" type="curve" smooth="yes"/>
      <point x="373" y="214"/>
      <point x="378" y="222"/>
    </contour>
    <contour>
      <point x="144" y="293" type="curve" smooth="yes"/>
      <point x="93" y="293"/>
      <point x="87" y="362"/>
      <point x="87" y="393" type="curve" smooth="yes"/>
      <point x="87" y="422"/>
      <point x="94" y="436"/>
      <point x="108" y="436" type="curve" smooth="yes"/>
      <point x="160" y="436"/>
      <point x="168" y="372"/>
      <point x="168" y="332" type="curve" smooth="yes"/>
      <point x="168" y="301"/>
      <point x="160" y="293"/>
    </contour>
  </outline>
</glyph>
<glyph name="ampersand" format="2">
  <advance width="631"/>
  <unicode hex="0026"/>
  <outline>
    <contour>
      <point x="631" y="328" type="curve"/>
      <point x="616" y="348" type="line"/>
      <point x="399" y="348" type="line"/>
      <point x="387" y="344"/>
      <point x="364" y="320"/>
      <point x="358" y="313" type="curve"/>
      <point x="372" y="296" type="line"/>
      <point x="406" y="296"/>
      <point x="438" y="269"/>
      <point x="438" y="220" type="curve" smooth="yes"/>
      <point x="438" y="146"/>
      <point x="349" y="54"/>
      <point x="258" y="54" type="curve" smooth="yes"/>
      <point x="210" y="54"/>
      <point x="154" y="81"/>
      <point x="154" y="163" type="curve" smooth="yes"/>
      <point x="154" y="232"/>
      <point x="178" y="285"/>
      <point x="284" y="352" type="curve" smooth="yes"/>
      <point x="353" y="395"/>
      <point x="429" y="468"/>
      <point x="429" y="529" type="curve" smooth="yes"/>
      <point x="429" y="585"/>
      <point x="388" y="637"/>
      <point x="294" y="637" type="curve" smooth="yes"/>
      <point x="194" y="637"/>
      <point x="112" y="566"/>
      <point x="112" y="471" type="curve" smooth="yes"/>
      <point x="112" y="260"/>
      <point x="411" y="-13"/>
      <point x="470" y="-13" type="curve" smooth="yes"/>
      <point x="483" y="-13"/>
      <point x="559" y="6"/>
      <point x="610" y="28" type="curve"/>
      <point x="602" y="65" type="line"/>
      <point x="573" y="58"/>
      <point x="537" y="63"/>
      <point x="504" y="90" type="curve" smooth="yes"/>
      <point x="397" y="180"/>
      <point x="225" y="365"/>
      <point x="225" y="496" type="curve" smooth="yes"/>
      <point x="225" y="542"/>
      <point x="238" y="577"/>
      <point x="267" y="577" type="curve" smooth="yes"/>
      <point x="289" y="577"/>
      <point x="311" y="555"/>
      <point x="311" y="514" type="curve" smooth="yes"/>
      <point x="311" y="475"/>
      <point x="293" y="427"/>
      <point x="239" y="397" type="curve" smooth="yes"/>
      <point x="88" y="313"/>
      <point x="26" y="233"/>
      <point x="26" y="154" type="curve" smooth="yes"/>
      <point x="26" y="44"/>
      <point x="99" y="-13"/>
      <point x="227" y="-13" type="curve" smooth="yes"/>
      <point x="394" y="-13"/>
      <point x="526" y="136"/>
      <point x="526" y="238" type="curve" smooth="yes"/>
      <point x="526" y="256"/>
      <point x="524" y="274"/>
      <point x="511" y="290" type="curve"/>
      <point x="531" y="289"/>
      <point x="557" y="277"/>
      <point x="578" y="267" type="curve"/>
      <point x="593" y="277"/>
      <point x="616" y="310"/>
    </contour>
  </outline>
</glyph>
<glyph name="quotesingle" format="2">
  <advance width="140"/>
  <unicode hex="0027"/>
  <outline>
    <contour>
      <point x="116" y="520" type="line"/>
      <point x="116" y="550"/>
      <point x="102" y="571"/>
      <point x="70" y="571" type="curve" smooth="yes"/>
      <point x="37" y="571"/>
      <point x="24" y="550"/>
      <point x="24" y="520" type="curve"/>
      <point x="55" y="333" type="line"/>
      <point x="84" y="333" type="line"/>
    </contour>
  </outline>
</glyph>
<glyph name="parenleft" format="2">
  <advance width="293"/>
  <unicode hex="0028"/>
  <outline>
    <contour>
      <point x="260" y="-138" type="curve"/>
      <point x="281" y="-109" type="line"/>
      <point x="195" y="-31"/>
      <point x="149" y="115"/>
      <point x="149" y="286" type="curve" smooth="yes"/>
      <point x="149" y="474"/>
      <point x="209" y="606"/>
      <point x="281" y="674" type="curve"/>
      <point x="260" y="703" type="line"/>
      <point x="130" y="629"/>
      <point x="48" y="466"/>
      <point x="48" y="273" type="curve" smooth="yes"/>
      <point x="48" y="87"/>
      <point x="119" y="-66"/>
    </contour>
  </outline>
</glyph>
<glyph name="asterisk" format="2">
  <advance width="399"/>
  <unicode hex="002A"/>
  <outline>
    <contour>
      <point x="218" y="531" type="line"/>
      <point x="240" y="672" type="line"/>
      <point x="222" y="685" type="line"/>
      <point x="209" y="682"/>
      <point x="172" y="667"/>
      <point x="159" y="660" type="curve"/>
      <point x="180" y="530" type="line"/>
      <point x="68" y="620" type="line"/>
      <point x="48" y="610" type="line"/>
      <point x="44" y="598"/>
      <point x="40" y="558"/>
      <point x="39" y="544" type="curve"/>
      <point x="162" y="497" type="line"/>
      <point x="29" y="446" type="line"/>
      <point x="26" y="423" type="line"/>
      <point x="35" y="414"/>
      <point x="67" y="390"/>
      <point x="79" y="382" type="curve"/>
      <point x="181" y="464" type="line"/>
      <point x="159" y="324" type="line"/>
      <point x="178" y="311" type="line"/>
      <point x="190" y="313"/>
      <point x="227" y="329"/>
      <point x="239" y="336" type="curve"/>
      <point x="219" y="465" type="line"/>
      <point x="330" y="376" type="line"/>
      <point x="351" y="385" type="line"/>
      <point x="355" y="398"/>
      <point x="359" y="437"/>
      <point x="360" y="451" type="curve"/>
      <point x="237" y="498" type="line"/>
      <point x="370" y="550" type="line"/>
      <point x="373" y="573" type="line"/>
      <point x="364" y="582"/>
      <point x="332" y="606"/>
      <point x="320" y="613" type="curve"/>
    </contour>
  </outline>
</glyph>
<glyph name="plus" format="2">
  <advance width="375"/>
  <unicode hex="002B"/>
  <outline>
    <contour>
      <point x="351" y="263" type="curve"/>
      <point x="338" y="276" type="line"/>
      <point x="42" y="276" type="line"/>
      <point x="37" y="264"/>
      <point x="27" y="243"/>
      <point x="24" y="230" type="curve"/>
      <point x="37" y="217" type="line"/>
      <point x="333" y="217" type="line"/>
      <point x="337" y="227"/>
      <point x="348" y="251"/>
    </contour>
    <contour>
      <point x="217" y="100" type="curve"/>
      <point x="217" y="397" type="line"/>
      <point x="205" y="409" type="line"/>
      <point x="192" y="406"/>
      <point x="169" y="398"/>
      <point x="158" y="394" type="curve"/>
      <point x="158" y="96" type="line"/>
      <point x="171" y="84" type="line"/>
      <point x="184" y="87"/>
      <point x="206" y="94"/>
    </contour>
  </outline>
</glyph>
<glyph name="comma" format="2">
  <advance width="254"/>
  <unicode hex="002C"/>
  <outline>
    <contour>
      <point x="224" y="30" type="curve" smooth="yes"/>
      <point x="224" y="81"/>
      <point x="207" y="105"/>
      <point x="179" y="118" type="curve"/>
      <point x="145" y="119"/>
      <point x="48" y="83"/>
      <point x="38" y="69" type="curve"/>
      <point x="45" y="31" type="line"/>
      <point x="83" y="34"/>
      <point x="108" y="3"/>
      <point x="108" y="-21" type="curve" smooth="yes"/>
      <point x="108" y="-72"/>
      <point x="85" y="-116"/>
      <point x="53" y="-153" type="curve"/>
      <point x="86" y="-177" type="line"/>
      <point x="160" y="-132"/>
      <point x="224" y="-37"/>
    </contour>
  </outline>
</glyph>
<glyph name="hyphen" format="2">
  <advance width="433"/>
  <unicode hex="002D"/>
  <outline>
    <contour>
      <point x="318" y="181" type="line"/>
      <point x="318" y="269" type="line"/>
      <point x="21" y="269" type="line"/>
      <point x="21" y="181" type="line"/>
    </contour>
  </outline>
</glyph>
<glyph name="period" format="2">
  <advance width="230"/>
  <unicode hex="002E"/>
  <outline>
    <contour>
      <point x="188" y="56" type="curve"/>
      <point x="188" y="94"/>
      <point x="163" y="112"/>
      <point x="131" y="112" type="curve" smooth="yes"/>
      <point x="92" y="112"/>
      <point x="57" y="82"/>
      <point x="57" y="38" type="curve" smooth="yes"/>
      <point x="57" y="0"/>
      <point x="81" y="-17"/>
      <point x="114" y="-17" type="curve" smooth="yes"/>
      <point x="155" y="-17"/>
      <point x="188" y="11"/>
    </contour>
  </outline>
</glyph>
<glyph name="slash" format="2">
  <advance width="430"/>
  <unicode hex="002F"/>
  <outline>
    <contour>
      <point x="110" y="-120" type="curve"/>
      <point x="417" y="689" type="line"/>
      <point x="396" y="703" type="line"/>
      <point x="380" y="698"/>
      <point x="337" y="687"/>
      <point x="321" y="677" type="curve"/>
      <point x="13" y="-131" type="line"/>
      <point x="33" y="-147" type="line"/>
      <point x="48" y="-142"/>
      <point x="98" y="-128"/>
    </contour>
  </outline>
</glyph>
<glyph name="zero" format="2">
  <advance width="466"/>
  <unicode hex="0030"/>
  <outline>
    <contour>
      <point x="441" y="264" type="curve" smooth="yes"/>
      <point x="441" y="417"/>
      <point x="366" y="542"/>
      <point x="237" y="542" type="curve" smooth="yes"/>
      <point x="104" y="542"/>
      <point x="24" y="415"/>
      <point x="24" y="264" type="curve" smooth="yes"/>
      <point x="24" y="113"/>
      <point x="104" y="-13"/>
      <point x="228" y="-13" type="curve" smooth="yes"/>
      <point x="353" y="-13"/>
      <point x="441" y="113"/>
    </contour>
    <contour>
      <point x="312" y="248" type="curve" smooth="yes"/>
      <point x="312" y="99"/>
      <point x="289" y="46"/>
      <point x="237" y="46" type="curve" smooth="yes"/>
      <point x="181" y="46"/>
      <point x="153" y="122"/>
      <point x="153" y="283" type="curve" smooth="yes"/>
      <point x="153" y="430"/>
      <point x="177" y="483"/>
      <point x="228" y="483" type="curve" smooth="yes"/>
      <point x="279" y="483"/>
      <point x="312" y="408"/>
    </contour>
  </outline>
</glyph>
<glyph name="one" format="2">
  <advance width="466"/>
  <unicode hex="0031"/>
  <outline>
    <contour>
      <point x="65" y="0" type="line"/>
      <point x="413" y="0" type="line"/>
      <point x="413" y="40" type="line"/>
      <point x="324" y="51"/>
      <point x="303" y="68"/>
      <point x="303" y="80" type="curve" smooth="yes"/>
      <point x="303" y="527" type="line"/>
      <point x="282" y="547" type="line"/>
      <point x="239" y="529"/>
      <point x="102" y="482"/>
      <point x="52" y="472" type="curve"/>
      <point x="65" y="432" type="line"/>
      <point x="143" y="448"/>
      <point x="169" y="446"/>
      <point x="176" y="438" type="curve" smooth="yes"/>
      <point x="183" y="430"/>
      <point x="184" y="418"/>
      <point x="184" y="395" type="curve" smooth="yes"/>
      <point x="184" y="80" type="line" smooth="yes"/>
      <point x="184" y="68"/>
      <point x="157" y="51"/>
      <point x="65" y="40" type="curve"/>
    </contour>
  </outline>
</glyph>
<glyph name="two" format="2">
  <advance width="466"/>
  <unicode hex="0032"/>
  <outline>
    <contour>
      <point x="413" y="0" type="line"/>
      <point x="420" y="165" type="line"/>
      <point x="380" y="175" type="line"/>
      <point x="380" y="175"/>
      <point x="375" y="83"/>
      <point x="335" y="83" type="curve" smooth="yes"/>
      <point x="163" y="83" type="line"/>
      <point x="353" y="290"/>
      <point x="414" y="356"/>
      <point x="414" y="435" type="curve" smooth="yes"/>
      <point x="414" y="504"/>
      <point x="354" y="542"/>
      <point x="257" y="542" type="curve" smooth="yes"/>
      <point x="141" y="542"/>
      <point x="46" y="467"/>
      <point x="46" y="406" type="curve"/>
      <point x="62" y="371" type="line"/>
      <point x="89" y="373"/>
      <point x="151" y="390"/>
      <point x="171" y="401" type="curve"/>
      <point x="161" y="446"/>
      <point x="179" y="489"/>
      <point x="227" y="489" type="curve" smooth="yes"/>
      <point x="271" y="489"/>
      <point x="289" y="454"/>
      <point x="289" y="406" type="curve" smooth="yes"/>
      <point x="289" y="344"/>
      <point x="239" y="273"/>
      <point x="34" y="32" type="curve"/>
      <point x="47" y="0" type="line"/>
    </contour>
  </outline>
</glyph>
<glyph name="three" format="2">
  <advance width="466"/>
  <unicode hex="0033"/>
  <outline>
    <contour>
      <point x="415" y="167" type="curve" smooth="yes"/>
      <point x="415" y="238"/>
      <point x="370" y="299"/>
      <point x="296" y="306" type="curve"/>
      <point x="351" y="323"/>
      <point x="390" y="377"/>
      <point x="390" y="420" type="curve" smooth="yes"/>
      <point x="390" y="480"/>
      <point x="348" y="542"/>
      <point x="234" y="542" type="curve" smooth="yes"/>
      <point x="120" y="542"/>
      <point x="46" y="464"/>
      <point x="46" y="415" type="curve"/>
      <point x="61" y="384" type="line"/>
      <point x="97" y="387"/>
      <point x="145" y="403"/>
      <point x="171" y="418" type="curve"/>
      <point x="159" y="459"/>
      <point x="183" y="489"/>
      <point x="209" y="489" type="curve" smooth="yes"/>
      <point x="250" y="489"/>
      <point x="262" y="453"/>
      <point x="262" y="413" type="curve" smooth="yes"/>
      <point x="262" y="377"/>
      <point x="248" y="327"/>
      <point x="150" y="301" type="curve"/>
      <point x="159" y="257" type="line"/>
      <point x="177" y="260"/>
      <point x="181" y="260"/>
      <point x="197" y="260" type="curve" smooth="yes"/>
      <point x="232" y="260"/>
      <point x="287" y="236"/>
      <point x="287" y="157" type="curve" smooth="yes"/>
      <point x="287" y="82"/>
      <point x="244" y="52"/>
      <point x="194" y="52" type="curve" smooth="yes"/>
      <point x="150" y="52"/>
      <point x="106" y="68"/>
      <point x="53" y="108" type="curve"/>
      <point x="34" y="61" type="line"/>
      <point x="87" y="10"/>
      <point x="163" y="-13"/>
      <point x="209" y="-13" type="curve" smooth="yes"/>
      <point x="329" y="-13"/>
      <point x="415" y="68"/>
    </contour>
  </outline>
</glyph>
<glyph name="four" format="2">
  <advance width="466"/>
  <unicode hex="0034"/>
  <outline>
    <contour>
      <point x="432" y="197" type="curve"/>
      <point x="420" y="210" type="line"/>
      <point x="362" y="210" type="line"/>
      <point x="362" y="527" type="line"/>
      <point x="341" y="547" type="line"/>
      <point x="313" y="537"/>
      <point x="262" y="521"/>
      <point x="233" y="511" type="curve"/>
      <point x="24" y="163" type="line"/>
      <point x="43" y="145" type="line"/>
      <point x="248" y="145" type="line"/>
      <point x="248" y="68" type="line" smooth="yes"/>
      <point x="248" y="58"/>
      <point x="232" y="49"/>
      <point x="156" y="36" type="curve"/>
      <point x="156" y="0" type="line"/>
      <point x="423" y="0" type="line"/>
      <point x="423" y="36" type="line"/>
      <point x="375" y="47"/>
      <point x="362" y="54"/>
      <point x="362" y="63" type="curve" smooth="yes"/>
      <point x="362" y="145" type="line"/>
      <point x="384" y="145" type="line"/>
      <point x="397" y="155"/>
      <point x="420" y="178"/>
    </contour>
    <contour>
      <point x="248" y="421" type="line"/>
      <point x="248" y="210" type="line"/>
      <point x="115" y="210" type="line"/>
    </contour>
  </outline>
</glyph>
<glyph name="five" format="2">
  <advance width="345"/>
  <unicode hex="0035"/>
  <outline>
    <contour>
      <point x="261" y="438" type="curve" smooth="yes"/>
      <point x="115" y="438" type="line"/>
      <point x="40" y="282" type="line"/>
      <point x="35" y="267"/>
      <point x="39" y="260"/>
      <point x="54" y="260" type="curve" smooth="yes"/>
      <point x="125" y="260"/>
      <point x="232" y="228"/>
      <point x="232" y="135" type="curve" smooth="yes"/>
      <point x="232" y="51"/>
      <point x="178" y="32"/>
      <point x="150" y="32" type="curve" smooth="yes"/>
      <point x="128" y="32"/>
      <point x="92" y="72"/>
      <point x="55" y="72" type="curve" smooth="yes"/>
      <point x="27" y="72"/>
      <point x="17" y="60"/>
      <point x="17" y="37" type="curve" smooth="yes"/>
      <point x="17" y="-11"/>
      <point x="102" y="-12"/>
      <point x="111" y="-12" type="curve" smooth="yes"/>
      <point x="230" y="-12"/>
      <point x="300" y="62"/>
      <point x="300" y="150" type="curve" smooth="yes"/>
      <point x="300" y="207"/>
      <point x="293" y="229"/>
      <point x="262" y="264" type="curve" smooth="yes"/>
      <point x="233" y="298"/>
      <point x="197" y="319"/>
      <point x="115" y="331" type="curve"/>
      <point x="134" y="367" type="line"/>
      <point x="257" y="367" type="line" smooth="yes"/>
      <point x="270" y="367"/>
      <point x="279" y="372"/>
      <point x="282" y="382" type="curve"/>
      <point x="312" y="445" type="line"/>
      <point x="290" y="461" type="line"/>
      <point x="272" y="440"/>
      <point x="270" y="438"/>
    </contour>
  </outline>
</glyph>
<glyph name="six" format="2">
  <advance width="444"/>
  <unicode hex="0036"/>
  <outline>
    <contour>
      <point x="413" y="181" type="curve"/>
      <point x="413" y="277"/>
      <point x="355" y="342"/>
      <point x="257" y="342" type="curve" smooth="yes"/>
      <point x="217" y="342"/>
      <point x="156" y="315"/>
      <point x="109" y="254" type="curve"/>
      <point x="117" y="203" type="line"/>
      <point x="152" y="256"/>
      <point x="198" y="285"/>
      <point x="232" y="285" type="curve" smooth="yes"/>
      <point x="272" y="285"/>
      <point x="319" y="262"/>
      <point x="319" y="152" type="curve" smooth="yes"/>
      <point x="319" y="98"/>
      <point x="303" y="39"/>
      <point x="248" y="39" type="curve" smooth="yes"/>
      <point x="186" y="39"/>
      <point x="142" y="97"/>
      <point x="142" y="235" type="curve" smooth="yes"/>
      <point x="142" y="356"/>
      <point x="206" y="477"/>
      <point x="374" y="514" type="curve"/>
      <point x="363" y="548" type="line"/>
      <point x="150" y="518"/>
      <point x="43" y="373"/>
      <point x="43" y="207" type="curve" smooth="yes"/>
      <point x="43" y="75"/>
      <point x="129" y="-13"/>
      <point x="235" y="-13" type="curve" smooth="yes"/>
      <point x="352" y="-13"/>
      <point x="413" y="98"/>
    </contour>
  </outline>
</glyph>
<glyph name="seven" format="2">
  <advance width="444"/>
  <unicode hex="0037"/>
  <outline>
    <contour>
      <point x="410" y="512" type="curve"/>
      <point x="396" y="529" type="line"/>
      <point x="64" y="529" type="line"/>
      <point x="57" y="503"/>
      <point x="47" y="426"/>
      <point x="43" y="399" type="curve"/>
      <point x="70" y="388" type="line"/>
      <point x="94" y="454"/>
      <point x="112" y="457"/>
      <point x="131" y="457" type="curve" smooth="yes"/>
      <point x="328" y="457" type="line"/>
      <point x="249" y="270"/>
      <point x="201" y="166"/>
      <point x="109" y="3" type="curve"/>
      <point x="129" y="-13" type="line"/>
      <point x="158" y="-5"/>
      <point x="197" y="7"/>
      <point x="218" y="21" type="curve"/>
      <point x="249" y="115"/>
      <point x="329" y="323"/>
    </contour>
  </outline>
</glyph>
<glyph name="eight" format="2">
  <advance width="345"/>
  <unicode hex="0038"/>
  <outline>
    <contour>
      <point x="220" y="244" type="curve"/>
      <point x="282" y="278"/>
      <point x="299" y="314"/>
      <point x="299" y="349" type="curve" smooth="yes"/>
      <point x="299" y="409"/>
      <point x="251" y="452"/>
      <point x="173" y="452" type="curve" smooth="yes"/>
      <point x="114" y="452"/>
      <point x="37" y="416"/>
      <point x="37" y="342" type="curve" smooth="yes"/>
      <point x="37" y="292"/>
      <point x="60" y="266"/>
      <point x="114" y="220" type="curve"/>
      <point x="55" y="178"/>
      <point x="33" y="157"/>
      <point x="33" y="100" type="curve" smooth="yes"/>
      <point x="33" y="53"/>
      <point x="70" y="-12"/>
      <point x="170" y="-12" type="curve" smooth="yes"/>
      <point x="289" y="-12"/>
      <point x="313" y="63"/>
      <point x="313" y="104" type="curve" smooth="yes"/>
      <point x="313" y="148"/>
      <point x="300" y="185"/>
    </contour>
    <contour>
      <point x="180" y="269" type="curve"/>
      <point x="142" y="293"/>
      <point x="108" y="320"/>
      <point x="108" y="359" type="curve" smooth="yes"/>
      <point x="108" y="408"/>
      <point x="153" y="412"/>
      <point x="168" y="412" type="curve" smooth="yes"/>
      <point x="228" y="412"/>
      <point x="232" y="365"/>
      <point x="232" y="353" type="curve" smooth="yes"/>
      <point x="232" y="319"/>
      <point x="216" y="292"/>
    </contour>
    <contour>
      <point x="178" y="27" type="curve" smooth="yes"/>
      <point x="121" y="27"/>
      <point x="106" y="74"/>
      <point x="106" y="108" type="curve" smooth="yes"/>
      <point x="106" y="149"/>
      <point x="124" y="175"/>
      <point x="149" y="194" type="curve"/>
      <point x="210" y="151"/>
      <point x="241" y="116"/>
      <point x="241" y="89" type="curve" smooth="yes"/>
      <point x="241" y="30"/>
      <point x="187" y="27"/>
    </contour>
  </outline>
</glyph>
<glyph name="nine" format="2">
  <advance width="444"/>
  <unicode hex="0039"/>
  <outline>
    <contour>
      <point x="408" y="321" type="curve"/>
      <point x="408" y="476"/>
      <point x="330" y="542"/>
      <point x="231" y="542" type="curve" smooth="yes"/>
      <point x="118" y="542"/>
      <point x="39" y="438"/>
      <point x="39" y="349" type="curve" smooth="yes"/>
      <point x="39" y="261"/>
      <point x="94" y="188"/>
      <point x="194" y="188" type="curve" smooth="yes"/>
      <point x="254" y="188"/>
      <point x="313" y="231"/>
      <point x="343" y="289" type="curve"/>
      <point x="337" y="344" type="line"/>
      <point x="315" y="294"/>
      <point x="272" y="248"/>
      <point x="220" y="248" type="curve" smooth="yes"/>
      <point x="186" y="248"/>
      <point x="134" y="274"/>
      <point x="134" y="376" type="curve" smooth="yes"/>
      <point x="134" y="445"/>
      <point x="164" y="489"/>
      <point x="217" y="489" type="curve" smooth="yes"/>
      <point x="261" y="489"/>
      <point x="309" y="452"/>
      <point x="309" y="285" type="curve" smooth="yes"/>
      <point x="309" y="157"/>
      <point x="261" y="61"/>
      <point x="77" y="15" type="curve"/>
      <point x="87" y="-18" type="line"/>
      <point x="303" y="8"/>
      <point x="408" y="143"/>
    </contour>
  </outline>
</glyph>
<glyph name="colon" format="2">
  <advance width="246"/>
  <unicode hex="003A"/>
  <outline>
    <contour>
      <point x="90" y="396" type="curve" smooth="yes"/>
      <point x="52" y="396"/>
      <point x="17" y="365"/>
      <point x="17" y="325" type="curve" smooth="yes"/>
      <point x="17" y="284"/>
      <point x="53" y="256"/>
      <point x="90" y="256" type="curve" smooth="yes"/>
      <point x="129" y="256"/>
      <point x="164" y="285"/>
      <point x="164" y="325" type="curve" smooth="yes"/>
      <point x="164" y="364"/>
      <point x="130" y="396"/>
    </contour>
    <contour>
      <point x="90" y="127" type="curve" smooth="yes"/>
      <point x="52" y="127"/>
      <point x="17" y="96"/>
      <point x="17" y="56" type="curve" smooth="yes"/>
      <point x="17" y="15"/>
      <point x="53" y="-13"/>
      <point x="90" y="-13" type="curve" smooth="yes"/>
      <point x="129" y="-13"/>
      <point x="164" y="16"/>
      <point x="164" y="56" type="curve" smooth="yes"/>
      <point x="164" y="95"/>
      <point x="130" y="127"/>
    </contour>
  </outline>
</glyph>
<glyph name="less" format="2">
  <advance width="413"/>
  <unicode hex="003C"/>
  <outline>
    <contour>
      <point x="391" y="391" type="curve"/>
      <point x="375" y="407" type="line"/>
      <point x="39" y="287" type="line"/>
      <point x="34" y="275"/>
      <point x="25" y="242"/>
      <point x="21" y="230" type="curve"/>
      <point x="37" y="210" type="line"/>
      <point x="373" y="331" type="line"/>
      <point x="377" y="342"/>
      <point x="388" y="379"/>
    </contour>
    <contour>
      <point x="391" y="147" type="curve"/>
      <point x="379" y="167" type="line"/>
      <point x="39" y="287" type="line"/>
      <point x="34" y="275"/>
      <point x="25" y="242"/>
      <point x="21" y="230" type="curve"/>
      <point x="37" y="210" type="line"/>
      <point x="341" y="103" type="line"/>
      <point x="359" y="114"/>
      <point x="378" y="135"/>
    </contour>
  </outline>
</glyph>
<glyph name="greater" format="2">
  <advance width="540"/>
  <unicode hex="003E"/>
  <outline>
    <contour>
      <point x="443" y="172" type="line"/>
      <point x="443" y="232" type="line"/>
      <point x="20" y="414" type="line"/>
      <point x="20" y="339" type="line"/>
      <point x="339" y="201" type="line"/>
      <point x="20" y="63" type="line"/>
      <point x="20" y="-12" type="line"/>
    </contour>
  </outline>
</glyph>
<glyph name="question" format="2">
  <advance width="402"/>
  <unicode hex="003F"/>
  <outline>
    <contour>
      <point x="371" y="511" type="curve" smooth="yes"/>
      <point x="371" y="594"/>
      <point x="320" y="650"/>
      <point x="227" y="650" type="curve" smooth="yes"/>
      <point x="123" y="650"/>
      <point x="30" y="587"/>
      <point x="30" y="504" type="curve" smooth="yes"/>
      <point x="30" y="500"/>
      <point x="30" y="489"/>
      <point x="31" y="485" type="curve"/>
      <point x="45" y="470" type="line"/>
      <point x="71" y="472"/>
      <point x="117" y="483"/>
      <point x="136" y="493" type="curve"/>
      <point x="134" y="501"/>
      <point x="131" y="512"/>
      <point x="131" y="521" type="curve" smooth="yes"/>
      <point x="131" y="566"/>
      <point x="161" y="601"/>
      <point x="195" y="601" type="curve" smooth="yes"/>
      <point x="242" y="601"/>
      <point x="271" y="564"/>
      <point x="271" y="492" type="curve" smooth="yes"/>
      <point x="271" y="410"/>
      <point x="157" y="324"/>
      <point x="157" y="226" type="curve" smooth="yes"/>
      <point x="157" y="224"/>
      <point x="157" y="222"/>
      <point x="157" y="219" type="curve"/>
      <point x="161" y="170" type="line"/>
      <point x="174" y="159" type="line"/>
      <point x="190" y="163"/>
      <point x="203" y="169"/>
      <point x="214" y="177" type="curve"/>
      <point x="217" y="219" type="line" smooth="yes"/>
      <point x="224" y="330"/>
      <point x="371" y="379"/>
    </contour>
    <contour>
      <point x="257" y="56" type="curve" smooth="yes"/>
      <point x="257" y="94"/>
      <point x="231" y="112"/>
      <point x="200" y="112" type="curve" smooth="yes"/>
      <point x="160" y="112"/>
      <point x="126" y="82"/>
      <point x="126" y="38" type="curve" smooth="yes"/>
      <point x="126" y="0"/>
      <point x="149" y="-17"/>
      <point x="183" y="-17" type="curve" smooth="yes"/>
      <point x="224" y="-17"/>
      <point x="257" y="11"/>
    </contour>
  </outline>
</glyph>
<glyph name="at" format="2">
  <advance width="809"/>
  <unicode hex="0040"/>
  <outline>
    <contour>
      <point x="770" y="254" type="curve" smooth="yes"/>
      <point x="770" y="492"/>
      <point x="633" y="603"/>
      <point x="436" y="603" type="curve" smooth="yes"/>
      <point x="213" y="603"/>
      <point x="39" y="420"/>
      <point x="39" y="204" type="curve" smooth="yes"/>
      <point x="39" y="-42"/>
      <point x="195" y="-186"/>
      <point x="419" y="-186" type="curve" smooth="yes"/>
      <point x="567" y="-186"/>
      <point x="659" y="-118"/>
      <point x="701" y="-69" type="curve"/>
      <point x="678" y="-27" type="line"/>
      <point x="642" y="-57"/>
      <point x="557" y="-103"/>
      <point x="440" y="-103" type="curve" smooth="yes"/>
      <point x="277" y="-103"/>
      <point x="149" y="4"/>
      <point x="149" y="230" type="curve" smooth="yes"/>
      <point x="149" y="388"/>
      <point x="240" y="519"/>
      <point x="419" y="519" type="curve" smooth="yes"/>
      <point x="572" y="519"/>
      <point x="673" y="426"/>
      <point x="673" y="225" type="curve" smooth="yes"/>
      <point x="673" y="126"/>
      <point x="636" y="78"/>
      <point x="607" y="78" type="curve" smooth="yes"/>
      <point x="583" y="78"/>
      <point x="581" y="94"/>
      <point x="581" y="125" type="curve" smooth="yes"/>
      <point x="581" y="304" type="line" smooth="yes"/>
      <point x="581" y="353"/>
      <point x="595" y="408"/>
      <point x="595" y="408" type="curve"/>
      <point x="581" y="421" type="line"/>
      <point x="551" y="403"/>
      <point x="529" y="394"/>
      <point x="491" y="381" type="curve"/>
      <point x="464" y="416"/>
      <point x="443" y="421"/>
      <point x="417" y="421" type="curve" smooth="yes"/>
      <point x="293" y="421"/>
      <point x="224" y="304"/>
      <point x="224" y="190" type="curve" smooth="yes"/>
      <point x="224" y="47"/>
      <point x="293" y="-13"/>
      <point x="353" y="-13" type="curve" smooth="yes"/>
      <point x="399" y="-13"/>
      <point x="417" y="0"/>
      <point x="465" y="53" type="curve"/>
      <point x="478" y="1"/>
      <point x="506" y="-13"/>
      <point x="543" y="-13" type="curve" smooth="yes"/>
      <point x="657" y="-13"/>
      <point x="770" y="106"/>
    </contour>
    <contour>
      <point x="463" y="321" type="curve"/>
      <point x="463" y="127" type="line"/>
      <point x="436" y="88"/>
      <point x="424" y="79"/>
      <point x="402" y="79" type="curve" smooth="yes"/>
      <point x="373" y="79"/>
      <point x="342" y="104"/>
      <point x="342" y="204" type="curve" smooth="yes"/>
      <point x="342" y="314"/>
      <point x="365" y="360"/>
      <point x="412" y="360" type="curve" smooth="yes"/>
      <point x="438" y="360"/>
      <point x="451" y="344"/>
    </contour>
  </outline>
</glyph>
<glyph name="A" format="2">
  <advance width="548"/>
  <unicode hex="0041"/>
  <anchor x="271" y="0" name="H"/>
  <anchor x="271" y="585" name="U"/>
  <outline>
    <contour>
      <point x="544" y="0" type="line"/>
      <point x="544" y="40" type="line"/>
      <point x="514" y="46" type="line" smooth="yes"/>
      <point x="503" y="48"/>
      <point x="500" y="51"/>
      <point x="496" y="61" type="curve" smooth="yes"/>
      <point x="319" y="549" type="line"/>
      <point x="228" y="549" type="line"/>
      <point x="48" y="47" type="line"/>
      <point x="3" y="40" type="line"/>
      <point x="3" y="0" type="line"/>
      <point x="176" y="0" type="line"/>
      <point x="176" y="40" type="line"/>
      <point x="131" y="46" type="line" smooth="yes"/>
      <point x="125" y="47"/>
      <point x="116" y="55"/>
      <point x="119" y="63" type="curve" smooth="yes"/>
      <point x="164" y="187" type="line"/>
      <point x="335" y="187" type="line"/>
      <point x="378" y="60" type="line" smooth="yes"/>
      <point x="380" y="54"/>
      <point x="376" y="47"/>
      <point x="371" y="46" type="curve" smooth="yes"/>
      <point x="323" y="40" type="line"/>
      <point x="323" y="0" type="line"/>
    </contour>
    <contour>
      <point x="315" y="234" type="line"/>
      <point x="179" y="234" type="line"/>
      <point x="246" y="426" type="line"/>
    </contour>
  </outline>
</glyph>
<glyph name="B" format="2">
  <advance width="511"/>
  <unicode hex="0042"/>
  <anchor x="251" y="585" name="U"/>
  <outline>
    <contour>
      <point x="481" y="155" type="curve" smooth="yes"/>
      <point x="481" y="261"/>
      <point x="396" y="283"/>
      <point x="336" y="285" type="curve"/>
      <point x="362" y="291"/>
      <point x="450" y="316"/>
      <point x="450" y="412" type="curve" smooth="yes"/>
      <point x="450" y="524"/>
      <point x="337" y="536"/>
      <point x="280" y="536" type="curve" smooth="yes"/>
      <point x="22" y="536" type="line"/>
      <point x="22" y="496" type="line"/>
      <point x="65" y="492" type="line" smooth="yes"/>
      <point x="75" y="491"/>
      <point x="83" y="484"/>
      <point x="83" y="474" type="curve" smooth="yes"/>
      <point x="83" y="62" type="line" smooth="yes"/>
      <point x="83" y="51"/>
      <point x="75" y="45"/>
      <point x="65" y="44" type="curve" smooth="yes"/>
      <point x="22" y="40" type="line"/>
      <point x="22" y="0" type="line"/>
      <point x="296" y="0" type="line" smooth="yes"/>
      <point x="376" y="0"/>
      <point x="481" y="6"/>
    </contour>
    <contour>
      <point x="332" y="400" type="curve" smooth="yes"/>
      <point x="332" y="343"/>
      <point x="308" y="299"/>
      <point x="217" y="299" type="curve" smooth="yes"/>
      <point x="214" y="299"/>
      <point x="197" y="300"/>
      <point x="197" y="300" type="curve"/>
      <point x="197" y="490" type="line"/>
      <point x="225" y="492"/>
      <point x="224" y="492"/>
      <point x="230" y="492" type="curve" smooth="yes"/>
      <point x="316" y="492"/>
      <point x="332" y="447"/>
    </contour>
    <contour>
      <point x="361" y="150" type="curve" smooth="yes"/>
      <point x="361" y="73"/>
      <point x="316" y="45"/>
      <point x="235" y="45" type="curve" smooth="yes"/>
      <point x="230" y="45"/>
      <point x="197" y="47"/>
      <point x="197" y="47" type="curve"/>
      <point x="197" y="251" type="line"/>
      <point x="219" y="251"/>
      <point x="229" y="251"/>
      <point x="237" y="251" type="curve" smooth="yes"/>
      <point x="323" y="251"/>
      <point x="361" y="219"/>
    </contour>
  </outline>
</glyph>
<glyph name="C" format="2">
  <advance width="495"/>
  <unicode hex="0043"/>
  <anchor x="262" y="0" name="H"/>
  <anchor x="276" y="602" name="U"/>
  <outline>
    <contour>
      <point x="462" y="92" type="curve"/>
      <point x="460" y="97"/>
      <point x="448" y="115"/>
      <point x="442" y="119" type="curve"/>
      <point x="379" y="67"/>
      <point x="325" y="52"/>
      <point x="293" y="52" type="curve" smooth="yes"/>
      <point x="214" y="52"/>
      <point x="123" y="122"/>
      <point x="123" y="273" type="curve" smooth="yes"/>
      <point x="123" y="456"/>
      <point x="208" y="511"/>
      <point x="268" y="511" type="curve" smooth="yes"/>
      <point x="316" y="511"/>
      <point x="357" y="490"/>
      <point x="386" y="447" type="curve"/>
      <point x="410" y="442" type="line"/>
      <point x="424" y="456"/>
      <point x="460" y="517"/>
      <point x="454" y="522" type="curve" smooth="yes"/>
      <point x="424" y="547"/>
      <point x="364" y="566"/>
      <point x="301" y="566" type="curve" smooth="yes"/>
      <point x="148" y="566"/>
      <point x="26" y="444"/>
      <point x="26" y="257" type="curve" smooth="yes"/>
      <point x="26" y="87"/>
      <point x="140" y="-13"/>
      <point x="255" y="-13" type="curve" smooth="yes"/>
      <point x="320" y="-13"/>
      <point x="388" y="14"/>
    </contour>
  </outline>
</glyph>
<glyph name="D" format="2">
  <advance width="586"/>
  <unicode hex="0044"/>
  <outline>
    <contour>
      <point x="550" y="297" type="curve" smooth="yes"/>
      <point x="550" y="467"/>
      <point x="447" y="566"/>
      <point x="262" y="566" type="curve" smooth="yes"/>
      <point x="184" y="566"/>
      <point x="71" y="555"/>
      <point x="11" y="540" type="curve"/>
      <point x="17" y="495" type="line"/>
      <point x="66" y="503"/>
      <point x="163" y="516"/>
      <point x="229" y="516" type="curve" smooth="yes"/>
      <point x="353" y="516"/>
      <point x="418" y="435"/>
      <point x="418" y="279" type="curve" smooth="yes"/>
      <point x="418" y="115"/>
      <point x="325" y="50"/>
      <point x="262" y="50" type="curve" smooth="yes"/>
      <point x="199" y="50"/>
      <point x="199" y="63"/>
      <point x="199" y="83" type="curve"/>
      <point x="36" y="0" type="line"/>
      <point x="130" y="0"/>
      <point x="193" y="0"/>
      <point x="280" y="0" type="curve" smooth="yes"/>
      <point x="406" y="0"/>
      <point x="550" y="77"/>
    </contour>
    <contour>
      <point x="17" y="0" type="line"/>
      <point x="241" y="0" type="line"/>
      <point x="241" y="44" type="line"/>
      <point x="199" y="52"/>
      <point x="199" y="62"/>
      <point x="199" y="85" type="curve" smooth="yes"/>
      <point x="199" y="544" type="line"/>
      <point x="76" y="544" type="line"/>
      <point x="76" y="63" type="line" smooth="yes"/>
      <point x="76" y="55"/>
      <point x="57" y="44"/>
      <point x="17" y="36" type="curve"/>
    </contour>
  </outline>
</glyph>
<glyph name="E" format="2">
  <advance width="478"/>
  <unicode hex="0045"/>
  <anchor x="237" y="0" name="H"/>
  <anchor x="237" y="585" name="U"/>
  <outline>
    <contour>
      <point x="454" y="0" type="line"/>
      <point x="454" y="146" type="line"/>
      <point x="396" y="146" type="line"/>
      <point x="383" y="63" type="line" smooth="yes"/>
      <point x="383" y="57"/>
      <point x="376" y="48"/>
      <point x="369" y="48" type="curve" smooth="yes"/>
      <point x="195" y="48" type="line"/>
      <point x="195" y="251" type="line"/>
      <point x="290" y="251" type="line" smooth="yes"/>
      <point x="297" y="251"/>
      <point x="303" y="243"/>
      <point x="303" y="237" type="curve" smooth="yes"/>
      <point x="311" y="183" type="line"/>
      <point x="360" y="183" type="line"/>
      <point x="360" y="371" type="line"/>
      <point x="311" y="371" type="line"/>
      <point x="303" y="316" type="line" smooth="yes"/>
      <point x="303" y="311"/>
      <point x="297" y="302"/>
      <point x="290" y="302" type="curve" smooth="yes"/>
      <point x="195" y="302" type="line"/>
      <point x="195" y="490" type="line"/>
      <point x="344" y="490" type="line" smooth="yes"/>
      <point x="351" y="490"/>
      <point x="356" y="483"/>
      <point x="358" y="475" type="curve" smooth="yes"/>
      <point x="371" y="408" type="line"/>
      <point x="428" y="408" type="line"/>
      <point x="428" y="536" type="line"/>
      <point x="20" y="536" type="line"/>
      <point x="20" y="496" type="line"/>
      <point x="64" y="492" type="line" smooth="yes"/>
      <point x="74" y="491"/>
      <point x="83" y="484"/>
      <point x="83" y="474" type="curve" smooth="yes"/>
      <point x="83" y="62" type="line" smooth="yes"/>
      <point x="83" y="51"/>
      <point x="74" y="45"/>
      <point x="64" y="44" type="curve" smooth="yes"/>
      <point x="20" y="40" type="line"/>
      <point x="20" y="0" type="line"/>
    </contour>
  </outline>
</glyph>
<glyph name="F" format="2">
  <advance width="447"/>
  <unicode hex="0046"/>
  <anchor x="222" y="585" name="U"/>
  <outline>
    <contour>
      <point x="425" y="400" type="line"/>
      <point x="425" y="536" type="line"/>
      <point x="19" y="536" type="line"/>
      <point x="19" y="496" type="line"/>
      <point x="64" y="492" type="line" smooth="yes"/>
      <point x="74" y="491"/>
      <point x="83" y="484"/>
      <point x="83" y="474" type="curve" smooth="yes"/>
      <point x="83" y="62" type="line" smooth="yes"/>
      <point x="83" y="51"/>
      <point x="74" y="45"/>
      <point x="64" y="44" type="curve" smooth="yes"/>
      <point x="21" y="40" type="line"/>
      <point x="21" y="0" type="line"/>
      <point x="267" y="0" type="line"/>
      <point x="267" y="40" type="line"/>
      <point x="215" y="44" type="line" smooth="yes"/>
      <point x="205" y="45"/>
      <point x="197" y="51"/>
      <point x="197" y="62" type="curve" smooth="yes"/>
      <point x="197" y="239" type="line"/>
      <point x="296" y="239" type="line" smooth="yes"/>
      <point x="303" y="239"/>
      <point x="309" y="231"/>
      <point x="310" y="225" type="curve" smooth="yes"/>
      <point x="318" y="171" type="line"/>
      <point x="367" y="171" type="line"/>
      <point x="367" y="360" type="line"/>
      <point x="318" y="360" type="line"/>
      <point x="310" y="305" type="line" smooth="yes"/>
      <point x="309" y="300"/>
      <point x="303" y="291"/>
      <point x="296" y="291" type="curve" smooth="yes"/>
      <point x="197" y="291" type="line"/>
      <point x="197" y="487" type="line"/>
      <point x="342" y="487" type="line" smooth="yes"/>
      <point x="349" y="487"/>
      <point x="355" y="480"/>
      <point x="356" y="472" type="curve" smooth="yes"/>
      <point x="367" y="400" type="line"/>
    </contour>
  </outline>
</glyph>
<glyph name="G" format="2">
  <advance width="572"/>
  <unicode hex="0047"/>
  <anchor x="308" y="0" name="H"/>
  <anchor x="308" y="585" name="U"/>
  <outline>
    <contour>
      <point x="554" y="224" type="line"/>
      <point x="554" y="265" type="line"/>
      <point x="312" y="265" type="line"/>
      <point x="312" y="224" type="line"/>
      <point x="366" y="220" type="line"/>
      <point x="376" y="220"/>
      <point x="384" y="213"/>
      <point x="384" y="203" type="curve" smooth="yes"/>
      <point x="384" y="47" type="line"/>
      <point x="365" y="45"/>
      <point x="355" y="47"/>
      <point x="348" y="47" type="curve" smooth="yes"/>
      <point x="223" y="47"/>
      <point x="153" y="135"/>
      <point x="153" y="272" type="curve" smooth="yes"/>
      <point x="153" y="386"/>
      <point x="206" y="496"/>
      <point x="345" y="496" type="curve" smooth="yes"/>
      <point x="354" y="496"/>
      <point x="378" y="492"/>
      <point x="403" y="483" type="curve" smooth="yes"/>
      <point x="409" y="480"/>
      <point x="416" y="471"/>
      <point x="417" y="466" type="curve"/>
      <point x="433" y="380" type="line"/>
      <point x="496" y="380" type="line"/>
      <point x="496" y="518" type="line"/>
      <point x="496" y="518"/>
      <point x="420" y="549"/>
      <point x="316" y="549" type="curve" smooth="yes"/>
      <point x="150" y="549"/>
      <point x="29" y="442"/>
      <point x="29" y="269" type="curve" smooth="yes"/>
      <point x="29" y="99"/>
      <point x="149" y="-12"/>
      <point x="309" y="-12" type="curve" smooth="yes"/>
      <point x="416" y="-12"/>
      <point x="495" y="24"/>
      <point x="495" y="24" type="curve"/>
      <point x="495" y="203" type="line" smooth="yes"/>
      <point x="495" y="213"/>
      <point x="503" y="219"/>
      <point x="513" y="220" type="curve" smooth="yes"/>
    </contour>
  </outline>
</glyph>
<glyph name="H" format="2">
  <advance width="615"/>
  <unicode hex="0048"/>
  <anchor x="140" y="0" name="H"/>
  <anchor x="307" y="585" name="U"/>
  <outline>
    <contour>
      <point x="591" y="0" type="line"/>
      <point x="591" y="40" type="line"/>
      <point x="549" y="44" type="line" smooth="yes"/>
      <point x="539" y="46"/>
      <point x="532" y="51"/>
      <point x="532" y="62" type="curve" smooth="yes"/>
      <point x="532" y="474" type="line" smooth="yes"/>
      <point x="532" y="484"/>
      <point x="540" y="491"/>
      <point x="549" y="492" type="curve" smooth="yes"/>
      <point x="591" y="496" type="line"/>
      <point x="591" y="536" type="line"/>
      <point x="358" y="536" type="line"/>
      <point x="358" y="496" type="line"/>
      <point x="400" y="492" type="line" smooth="yes"/>
      <point x="409" y="491"/>
      <point x="417" y="484"/>
      <point x="417" y="474" type="curve" smooth="yes"/>
      <point x="417" y="307" type="line"/>
      <point x="197" y="307" type="line"/>
      <point x="197" y="474" type="line" smooth="yes"/>
      <point x="197" y="484"/>
      <point x="205" y="491"/>
      <point x="215" y="492" type="curve" smooth="yes"/>
      <point x="257" y="496" type="line"/>
      <point x="257" y="536" type="line"/>
      <point x="23" y="536" type="line"/>
      <point x="23" y="496" type="line"/>
      <point x="65" y="492" type="line" smooth="yes"/>
      <point x="75" y="491"/>
      <point x="83" y="484"/>
      <point x="83" y="474" type="curve" smooth="yes"/>
      <point x="83" y="62" type="line" smooth="yes"/>
      <point x="83" y="51"/>
      <point x="75" y="46"/>
      <point x="65" y="44" type="curve" smooth="yes"/>
      <point x="23" y="40" type="line"/>
      <point x="23" y="0" type="line"/>
      <point x="257" y="0" type="line"/>
      <point x="257" y="40" type="line"/>
      <point x="215" y="44" type="line" smooth="yes"/>
      <point x="205" y="46"/>
      <point x="197" y="51"/>
      <point x="197" y="62" type="curve" smooth="yes"/>
      <point x="197" y="255" type="line"/>
      <point x="417" y="255" type="line"/>
      <point x="417" y="62" type="line" smooth="yes"/>
      <point x="417" y="51"/>
      <point x="409" y="46"/>
      <point x="400" y="44" type="curve" smooth="yes"/>
      <point x="358" y="40" type="line"/>
      <point x="358" y="0" type="line"/>
    </contour>
  </outline>
</glyph>
<glyph name="I" format="2">
  <advance width="285"/>
  <unicode hex="0049"/>
  <anchor x="138" y="0" name="H"/>
  <anchor x="138" y="602" name="U"/>
  <outline>
    <contour>
      <point x="28" y="0" type="line"/>
      <point x="248" y="0" type="line"/>
      <point x="248" y="27" type="line"/>
      <point x="206" y="35"/>
      <point x="186" y="47"/>
      <point x="186" y="54" type="curve" smooth="yes"/>
      <point x="186" y="498" type="line" smooth="yes"/>
      <point x="186" y="507"/>
      <point x="208" y="517"/>
      <point x="248" y="526" type="curve"/>
      <point x="248" y="553" type="line"/>
      <point x="28" y="553" type="line"/>
      <point x="28" y="526" type="line"/>
      <point x="70" y="517"/>
      <point x="90" y="505"/>
      <point x="90" y="498" type="curve" smooth="yes"/>
      <point x="90" y="54" type="line" smooth="yes"/>
      <point x="90" y="46"/>
      <point x="68" y="35"/>
      <point x="28" y="27" type="curve"/>
    </contour>
  </outline>
</glyph>
<glyph name="J" format="2">
  <advance width="292"/>
  <unicode hex="004A"/>
  <anchor x="152" y="602" name="U"/>
  <outline>
    <contour>
      <point x="263" y="526" type="curve"/>
      <point x="263" y="553" type="line"/>
      <point x="21" y="553" type="line"/>
      <point x="21" y="526" type="line"/>
      <point x="92" y="515"/>
      <point x="105" y="505"/>
      <point x="105" y="498" type="curve" smooth="yes"/>
      <point x="105" y="51" type="line" smooth="yes"/>
      <point x="105" y="-85"/>
      <point x="69" y="-110"/>
      <point x="39" y="-110" type="curve" smooth="yes"/>
      <point x="16" y="-110"/>
      <point x="-6" y="-102"/>
      <point x="-39" y="-76" type="curve"/>
      <point x="-55" y="-83"/>
      <point x="-105" y="-126"/>
      <point x="-105" y="-138" type="curve" smooth="yes"/>
      <point x="-105" y="-150"/>
      <point x="-57" y="-177"/>
      <point x="-10" y="-177" type="curve" smooth="yes"/>
      <point x="22" y="-177"/>
      <point x="72" y="-158"/>
      <point x="103" y="-133" type="curve" smooth="yes"/>
      <point x="149" y="-95"/>
      <point x="202" y="-48"/>
      <point x="202" y="83" type="curve" smooth="yes"/>
      <point x="202" y="498" type="line" smooth="yes"/>
      <point x="202" y="507"/>
      <point x="224" y="517"/>
    </contour>
  </outline>
</glyph>
<glyph name="K" format="2">
  <advance width="545"/>
  <unicode hex="004B"/>
  <anchor x="140" y="0" name="H"/>
  <anchor x="284" y="585" name="U"/>
  <outline>
    <contour>
      <point x="545" y="0" type="line"/>
      <point x="545" y="40" type="line"/>
      <point x="488" y="45" type="line"/>
      <point x="320" y="313" type="line"/>
      <point x="469" y="491" type="line"/>
      <point x="495" y="493"/>
      <point x="525" y="496"/>
      <point x="525" y="496" type="curve"/>
      <point x="525" y="536" type="line"/>
      <point x="342" y="536" type="line"/>
      <point x="342" y="496" type="line"/>
      <point x="387" y="492" type="line"/>
      <point x="393" y="492"/>
      <point x="394" y="485"/>
      <point x="392" y="482" type="curve" smooth="yes"/>
      <point x="219" y="272" type="line"/>
      <point x="197" y="272" type="line"/>
      <point x="197" y="474" type="line" smooth="yes"/>
      <point x="197" y="484"/>
      <point x="205" y="491"/>
      <point x="215" y="492" type="curve" smooth="yes"/>
      <point x="257" y="496" type="line"/>
      <point x="257" y="536" type="line"/>
      <point x="23" y="536" type="line"/>
      <point x="23" y="496" type="line"/>
      <point x="65" y="492" type="line" smooth="yes"/>
      <point x="75" y="491"/>
      <point x="83" y="484"/>
      <point x="83" y="474" type="curve" smooth="yes"/>
      <point x="83" y="62" type="line" smooth="yes"/>
      <point x="83" y="51"/>
      <point x="75" y="45"/>
      <point x="65" y="44" type="curve" smooth="yes"/>
      <point x="23" y="40" type="line"/>
      <point x="23" y="0" type="line"/>
      <point x="257" y="0" type="line"/>
      <point x="257" y="40" type="line"/>
      <point x="215" y="44" type="line" smooth="yes"/>
      <point x="205" y="45"/>
      <point x="197" y="51"/>
      <point x="197" y="62" type="curve" smooth="yes"/>
      <point x="197" y="234" type="line"/>
      <point x="241" y="234" type="line"/>
      <point x="371" y="29" type="line"/>
      <point x="371" y="0" type="line"/>
    </contour>
  </outline>
</glyph>
<glyph name="L" format="2">
  <advance width="448"/>
  <unicode hex="004C"/>
  <anchor x="228" y="0" name="H"/>
  <anchor x="214" y="602" name="U"/>
  <outline>
    <contour>
      <point x="436" y="124" type="curve"/>
      <point x="409" y="134" type="line"/>
      <point x="384" y="66"/>
      <point x="367" y="48"/>
      <point x="313" y="48" type="curve" smooth="yes"/>
      <point x="259" y="48" type="line" smooth="yes"/>
      <point x="195" y="48"/>
      <point x="177" y="60"/>
      <point x="177" y="80" type="curve" smooth="yes"/>
      <point x="177" y="498" type="line" smooth="yes"/>
      <point x="177" y="507"/>
      <point x="199" y="517"/>
      <point x="239" y="526" type="curve"/>
      <point x="239" y="553" type="line"/>
      <point x="19" y="553" type="line"/>
      <point x="19" y="526" type="line"/>
      <point x="61" y="517"/>
      <point x="81" y="505"/>
      <point x="81" y="498" type="curve" smooth="yes"/>
      <point x="81" y="54" type="line" smooth="yes"/>
      <point x="81" y="46"/>
      <point x="59" y="35"/>
      <point x="19" y="27" type="curve"/>
      <point x="19" y="0" type="line"/>
      <point x="418" y="0" type="line"/>
      <point x="423" y="17"/>
      <point x="432" y="74"/>
    </contour>
  </outline>
</glyph>
<glyph name="M" format="2">
  <advance width="749"/>
  <unicode hex="004D"/>
  <anchor x="608" y="0" name="H"/>
  <anchor x="370" y="602" name="U"/>
  <outline>
    <contour>
      <point x="496" y="0" type="line"/>
      <point x="716" y="0" type="line"/>
      <point x="716" y="27" type="line"/>
      <point x="674" y="35"/>
      <point x="652" y="47"/>
      <point x="652" y="54" type="curve" smooth="yes"/>
      <point x="648" y="524" type="line"/>
      <point x="558" y="499" type="line"/>
      <point x="562" y="54" type="line" smooth="yes"/>
      <point x="562" y="46"/>
      <point x="536" y="35"/>
      <point x="496" y="27" type="curve"/>
    </contour>
    <contour>
      <point x="705" y="526" type="curve"/>
      <point x="705" y="553" type="line"/>
      <point x="564" y="553" type="line" smooth="yes"/>
      <point x="553" y="553"/>
      <point x="549" y="551"/>
      <point x="533" y="516" type="curve" smooth="yes"/>
      <point x="357" y="115" type="line" smooth="yes"/>
      <point x="349" y="96"/>
      <point x="355" y="73"/>
      <point x="368" y="0" type="curve"/>
      <point x="370" y="0" type="line"/>
      <point x="569" y="454" type="line" smooth="yes"/>
      <point x="586" y="492"/>
      <point x="665" y="526"/>
    </contour>
    <contour>
      <point x="379" y="116" type="curve" smooth="yes"/>
      <point x="202" y="516" type="line" smooth="yes"/>
      <point x="188" y="548"/>
      <point x="183" y="553"/>
      <point x="171" y="553" type="curve" smooth="yes"/>
      <point x="28" y="553" type="line"/>
      <point x="28" y="526" type="line"/>
      <point x="60" y="526"/>
      <point x="111" y="512"/>
      <point x="134" y="459" type="curve" smooth="yes"/>
      <point x="335" y="0" type="line"/>
      <point x="368" y="0" type="line"/>
      <point x="383" y="73"/>
      <point x="387" y="97"/>
    </contour>
    <contour>
      <point x="24" y="0" type="line"/>
      <point x="206" y="0" type="line"/>
      <point x="206" y="27" type="line"/>
      <point x="164" y="35"/>
      <point x="145" y="47"/>
      <point x="145" y="54" type="curve" smooth="yes"/>
      <point x="149" y="527" type="line"/>
      <point x="90" y="516" type="line"/>
      <point x="85" y="54" type="line" smooth="yes"/>
      <point x="85" y="46"/>
      <point x="64" y="35"/>
      <point x="24" y="27" type="curve"/>
    </contour>
  </outline>
</glyph>
<glyph name="N" format="2">
  <advance width="595"/>
  <unicode hex="004E"/>
  <anchor x="459" y="0" name="H"/>
  <anchor x="296" y="585" name="U"/>
  <outline>
    <contour>
      <point x="571" y="496" type="line"/>
      <point x="571" y="536" type="line"/>
      <point x="386" y="536" type="line"/>
      <point x="386" y="496" type="line"/>
      <point x="432" y="492" type="line" smooth="yes"/>
      <point x="441" y="491"/>
      <point x="450" y="484"/>
      <point x="450" y="474" type="curve" smooth="yes"/>
      <point x="450" y="154" type="line"/>
      <point x="219" y="515" type="line"/>
      <point x="219" y="536" type="line"/>
      <point x="22" y="536" type="line"/>
      <point x="22" y="496" type="line"/>
      <point x="65" y="492" type="line" smooth="yes"/>
      <point x="75" y="491"/>
      <point x="83" y="484"/>
      <point x="83" y="474" type="curve" smooth="yes"/>
      <point x="83" y="62" type="line" smooth="yes"/>
      <point x="83" y="51"/>
      <point x="75" y="45"/>
      <point x="65" y="44" type="curve" smooth="yes"/>
      <point x="21" y="40" type="line"/>
      <point x="21" y="0" type="line"/>
      <point x="206" y="0" type="line"/>
      <point x="206" y="40" type="line"/>
      <point x="161" y="44" type="line" smooth="yes"/>
      <point x="152" y="45"/>
      <point x="144" y="51"/>
      <point x="144" y="62" type="curve" smooth="yes"/>
      <point x="144" y="423" type="line"/>
      <point x="413" y="0" type="line"/>
      <point x="511" y="0" type="line"/>
      <point x="511" y="474" type="line" smooth="yes"/>
      <point x="511" y="484"/>
      <point x="519" y="491"/>
      <point x="528" y="492" type="curve" smooth="yes"/>
    </contour>
  </outline>
</glyph>
<glyph name="O" format="2">
  <advance width="604"/>
  <unicode hex="004F"/>
  <anchor x="302" y="0" name="H"/>
  <anchor x="302" y="585" name="U"/>
  <outline>
    <contour>
      <point x="576" y="265" type="curve" smooth="yes"/>
      <point x="576" y="420"/>
      <point x="466" y="549"/>
      <point x="300" y="549" type="curve" smooth="yes"/>
      <point x="129" y="549"/>
      <point x="29" y="429"/>
      <point x="29" y="271" type="curve" smooth="yes"/>
      <point x="29" y="90"/>
      <point x="147" y="-12"/>
      <point x="307" y="-12" type="curve" smooth="yes"/>
      <point x="467" y="-12"/>
      <point x="576" y="112"/>
    </contour>
    <contour>
      <point x="447" y="262" type="curve" smooth="yes"/>
      <point x="447" y="159"/>
      <point x="406" y="37"/>
      <point x="299" y="37" type="curve" smooth="yes"/>
      <point x="200" y="37"/>
      <point x="157" y="155"/>
      <point x="157" y="269" type="curve" smooth="yes"/>
      <point x="157" y="376"/>
      <point x="196" y="496"/>
      <point x="307" y="496" type="curve" smooth="yes"/>
      <point x="400" y="496"/>
      <point x="447" y="387"/>
    </contour>
  </outline>
</glyph>
<glyph name="P" format="2">
  <advance width="497"/>
  <unicode hex="0050"/>
  <outline>
    <contour>
      <point x="462" y="411" type="curve"/>
      <point x="462" y="511"/>
      <point x="374" y="566"/>
      <point x="241" y="566" type="curve" smooth="yes"/>
      <point x="166" y="566"/>
      <point x="75" y="555"/>
      <point x="14" y="540" type="curve"/>
      <point x="19" y="504" type="line"/>
      <point x="76" y="514"/>
      <point x="155" y="523"/>
      <point x="216" y="523" type="curve" smooth="yes"/>
      <point x="302" y="523"/>
      <point x="365" y="480"/>
      <point x="365" y="393" type="curve" smooth="yes"/>
      <point x="365" y="310"/>
      <point x="308" y="272"/>
      <point x="256" y="272" type="curve" smooth="yes"/>
      <point x="235" y="272"/>
      <point x="217" y="274"/>
      <point x="192" y="285" type="curve"/>
      <point x="205" y="243" type="line"/>
      <point x="225" y="235"/>
      <point x="251" y="230"/>
      <point x="278" y="230" type="curve" smooth="yes"/>
      <point x="352" y="230"/>
      <point x="462" y="289"/>
    </contour>
    <contour>
      <point x="19" y="0" type="line"/>
      <point x="252" y="0" type="line"/>
      <point x="252" y="27" type="line"/>
      <point x="191" y="37"/>
      <point x="177" y="47"/>
      <point x="177" y="54" type="curve" smooth="yes"/>
      <point x="177" y="525" type="line"/>
      <point x="81" y="525" type="line"/>
      <point x="81" y="54" type="line" smooth="yes"/>
      <point x="81" y="46"/>
      <point x="59" y="35"/>
      <point x="19" y="27" type="curve"/>
    </contour>
  </outline>
</glyph>
<glyph name="Q" format="2">
  <advance width="604"/>
  <unicode hex="0051"/>
  <anchor x="302" y="585" name="U"/>
  <outline>
    <contour>
      <point x="549" y="-128" type="curve"/>
      <point x="549" y="-86" type="line"/>
      <point x="514" y="-94"/>
      <point x="491" y="-96"/>
      <point x="475" y="-96" type="curve" smooth="yes"/>
      <point x="416" y="-96"/>
      <point x="364" y="-64"/>
      <point x="366" y="-6" type="curve"/>
      <point x="493" y="19"/>
      <point x="576" y="132"/>
      <point x="576" y="265" type="curve" smooth="yes"/>
      <point x="576" y="420"/>
      <point x="466" y="549"/>
      <point x="300" y="549" type="curve" smooth="yes"/>
      <point x="129" y="549"/>
      <point x="29" y="429"/>
      <point x="29" y="271" type="curve" smooth="yes"/>
      <point x="29" y="113"/>
      <point x="118" y="15"/>
      <point x="247" y="-7" type="curve"/>
      <point x="248" y="-92"/>
      <point x="292" y="-147"/>
      <point x="407" y="-147" type="curve" smooth="yes"/>
      <point x="451" y="-147"/>
      <point x="494" y="-141"/>
    </contour>
    <contour>
      <point x="447" y="262" type="curve" smooth="yes"/>
      <point x="447" y="159"/>
      <point x="406" y="37"/>
      <point x="299" y="37" type="curve" smooth="yes"/>
      <point x="200" y="37"/>
      <point x="157" y="155"/>
      <point x="157" y="269" type="curve" smooth="yes"/>
      <point x="157" y="376"/>
      <point x="196" y="496"/>
      <point x="307" y="496" type="curve" smooth="yes"/>
      <point x="400" y="496"/>
      <point x="447" y="387"/>
    </contour>
  </outline>
</glyph>
<glyph name="R" format="2">
  <advance width="563"/>
  <unicode hex="0052"/>
  <anchor x="140" y="0" name="H"/>
  <anchor x="251" y="585" name="U"/>
  <outline>
    <contour>
      <point x="563" y="0" type="curve"/>
      <point x="563" y="40" type="line"/>
      <point x="387" y="19"/>
      <point x="498" y="229"/>
      <point x="323" y="264" type="curve"/>
      <point x="366" y="270"/>
      <point x="462" y="296"/>
      <point x="462" y="403" type="curve" smooth="yes"/>
      <point x="462" y="517"/>
      <point x="347" y="536"/>
      <point x="287" y="536" type="curve" smooth="yes"/>
      <point x="22" y="536" type="line"/>
      <point x="22" y="496" type="line"/>
      <point x="64" y="492" type="line" smooth="yes"/>
      <point x="74" y="491"/>
      <point x="83" y="484"/>
      <point x="83" y="474" type="curve" smooth="yes"/>
      <point x="83" y="62" type="line" smooth="yes"/>
      <point x="83" y="51"/>
      <point x="74" y="45"/>
      <point x="64" y="44" type="curve" smooth="yes"/>
      <point x="22" y="40" type="line"/>
      <point x="22" y="0" type="line"/>
      <point x="259" y="0" type="line"/>
      <point x="259" y="40" type="line"/>
      <point x="215" y="44" type="line" smooth="yes"/>
      <point x="205" y="45"/>
      <point x="197" y="51"/>
      <point x="197" y="62" type="curve" smooth="yes"/>
      <point x="197" y="235" type="line"/>
      <point x="213" y="235" type="line" smooth="yes"/>
      <point x="370" y="235"/>
      <point x="277" y="-12"/>
      <point x="483" y="-12" type="curve" smooth="yes"/>
      <point x="503" y="-12"/>
      <point x="528" y="-3"/>
    </contour>
    <contour>
      <point x="342" y="388" type="curve" smooth="yes"/>
      <point x="342" y="297"/>
      <point x="274" y="282"/>
      <point x="223" y="282" type="curve" smooth="yes"/>
      <point x="219" y="282"/>
      <point x="211" y="283"/>
      <point x="197" y="283" type="curve"/>
      <point x="197" y="488" type="line"/>
      <point x="211" y="489"/>
      <point x="223" y="488"/>
      <point x="223" y="488" type="curve"/>
      <point x="300" y="488"/>
      <point x="342" y="455"/>
    </contour>
  </outline>
</glyph>
<glyph name="S" format="2">
  <advance width="472"/>
  <unicode hex="0053"/>
  <outline>
    <contour>
      <point x="371" y="432" type="line"/>
      <point x="385" y="445"/>
      <point x="418" y="519"/>
      <point x="410" y="526" type="curve"/>
      <point x="388" y="549"/>
      <point x="323" y="566"/>
      <point x="257" y="566" type="curve" smooth="yes"/>
      <point x="111" y="566"/>
      <point x="47" y="475"/>
      <point x="47" y="420" type="curve" smooth="yes"/>
      <point x="47" y="250"/>
      <point x="325" y="276"/>
      <point x="325" y="133" type="curve" smooth="yes"/>
      <point x="325" y="77"/>
      <point x="279" y="52"/>
      <point x="226" y="52" type="curve" smooth="yes"/>
      <point x="166" y="52"/>
      <point x="115" y="106"/>
      <point x="88" y="175" type="curve"/>
      <point x="53" y="177" type="line"/>
      <point x="39" y="128"/>
      <point x="40" y="34"/>
      <point x="48" y="29" type="curve"/>
      <point x="90" y="3"/>
      <point x="167" y="-13"/>
      <point x="210" y="-13" type="curve" smooth="yes"/>
      <point x="365" y="-13"/>
      <point x="437" y="87"/>
      <point x="437" y="165" type="curve" smooth="yes"/>
      <point x="437" y="339"/>
      <point x="156" y="339"/>
      <point x="156" y="450" type="curve" smooth="yes"/>
      <point x="156" y="483"/>
      <point x="179" y="514"/>
      <point x="235" y="514" type="curve" smooth="yes"/>
      <point x="269" y="514"/>
      <point x="314" y="495"/>
      <point x="337" y="435" type="curve"/>
    </contour>
  </outline>
</glyph>
<glyph name="T" format="2">
  <advance width="487"/>
  <unicode hex="0054"/>
  <anchor x="243" y="0" name="H"/>
  <anchor x="243" y="585" name="U"/>
  <outline>
    <contour>
      <point x="474" y="390" type="line"/>
      <point x="474" y="536" type="line"/>
      <point x="12" y="536" type="line"/>
      <point x="12" y="390" type="line"/>
      <point x="70" y="390" type="line"/>
      <point x="84" y="479" type="line" smooth="yes"/>
      <point x="85" y="485"/>
      <point x="90" y="488"/>
      <point x="96" y="488" type="curve" smooth="yes"/>
      <point x="186" y="488" type="line"/>
      <point x="186" y="62" type="line" smooth="yes"/>
      <point x="186" y="51"/>
      <point x="177" y="45"/>
      <point x="167" y="44" type="curve" smooth="yes"/>
      <point x="121" y="40" type="line"/>
      <point x="121" y="0" type="line"/>
      <point x="365" y="0" type="line"/>
      <point x="365" y="40" type="line"/>
      <point x="318" y="44" type="line" smooth="yes"/>
      <point x="308" y="45"/>
      <point x="300" y="51"/>
      <point x="300" y="62" type="curve" smooth="yes"/>
      <point x="300" y="488" type="line"/>
      <point x="390" y="488" type="line" smooth="yes"/>
      <point x="396" y="488"/>
      <point x="400" y="485"/>
      <point x="401" y="479" type="curve" smooth="yes"/>
      <point x="416" y="390" type="line"/>
    </contour>
  </outline>
</glyph>
<glyph name="U" format="2">
  <advance width="583"/>
  <unicode hex="0055"/>
  <anchor x="289" y="0" name="H"/>
  <anchor x="296" y="585" name="U"/>
  <outline>
    <contour>
      <point x="562" y="496" type="line"/>
      <point x="562" y="536" type="line"/>
      <point x="378" y="536" type="line"/>
      <point x="378" y="496" type="line"/>
      <point x="423" y="492" type="line" smooth="yes"/>
      <point x="433" y="491"/>
      <point x="441" y="484"/>
      <point x="441" y="474" type="curve" smooth="yes"/>
      <point x="441" y="196" type="line" smooth="yes"/>
      <point x="441" y="110"/>
      <point x="407" y="53"/>
      <point x="323" y="53" type="curve" smooth="yes"/>
      <point x="235" y="53"/>
      <point x="193" y="96"/>
      <point x="193" y="196" type="curve" smooth="yes"/>
      <point x="193" y="474" type="line" smooth="yes"/>
      <point x="193" y="484"/>
      <point x="202" y="491"/>
      <point x="211" y="492" type="curve" smooth="yes"/>
      <point x="254" y="496" type="line"/>
      <point x="254" y="536" type="line"/>
      <point x="17" y="536" type="line"/>
      <point x="17" y="496" type="line"/>
      <point x="60" y="492" type="line" smooth="yes"/>
      <point x="70" y="491"/>
      <point x="79" y="484"/>
      <point x="79" y="474" type="curve" smooth="yes"/>
      <point x="79" y="203" type="line" smooth="yes"/>
      <point x="79" y="62"/>
      <point x="145" y="-12"/>
      <point x="283" y="-12" type="curve" smooth="yes"/>
      <point x="432" y="-12"/>
      <point x="502" y="45"/>
      <point x="502" y="203" type="curve" smooth="yes"/>
      <point x="502" y="474" type="line" smooth="yes"/>
      <point x="502" y="484"/>
      <point x="511" y="491"/>
      <point x="519" y="492" type="curve" smooth="yes"/>
    </contour>
  </outline>
</glyph>
<glyph name="V" format="2">
  <advance width="564"/>
  <unicode hex="0056"/>
  <anchor x="285" y="0" name="H"/>
  <anchor x="291" y="585" name="U"/>
  <outline>
    <contour>
      <point x="556" y="496" type="line"/>
      <point x="556" y="536" type="line"/>
      <point x="377" y="536" type="line"/>
      <point x="377" y="496" type="line"/>
      <point x="420" y="490" type="line" smooth="yes"/>
      <point x="432" y="488"/>
      <point x="433" y="480"/>
      <point x="432" y="473" type="curve"/>
      <point x="309" y="124" type="line"/>
      <point x="183" y="472" type="line" smooth="yes"/>
      <point x="180" y="479"/>
      <point x="181" y="488"/>
      <point x="191" y="490" type="curve" smooth="yes"/>
      <point x="235" y="496" type="line"/>
      <point x="235" y="536" type="line"/>
      <point x="7" y="536" type="line"/>
      <point x="7" y="496" type="line"/>
      <point x="59" y="488" type="line"/>
      <point x="246" y="-12" type="line"/>
      <point x="322" y="-12" type="line"/>
      <point x="506" y="489" type="line"/>
    </contour>
  </outline>
</glyph>
<glyph name="W" format="2">
  <advance width="765"/>
  <unicode hex="0057"/>
  <outline>
    <contour>
      <point x="756" y="526" type="curve"/>
      <point x="756" y="553" type="line"/>
      <point x="563" y="553" type="line"/>
      <point x="563" y="526" type="line"/>
      <point x="603" y="519"/>
      <point x="634" y="512"/>
      <point x="631" y="498" type="curve"/>
      <point x="557" y="149" type="line"/>
      <point x="406" y="553" type="line"/>
      <point x="369" y="553" type="line"/>
      <point x="236" y="149" type="line"/>
      <point x="157" y="495" type="line" smooth="yes"/>
      <point x="154" y="508"/>
      <point x="157" y="520"/>
      <point x="214" y="526" type="curve"/>
      <point x="214" y="553" type="line"/>
      <point x="8" y="553" type="line"/>
      <point x="8" y="526" type="line"/>
      <point x="50" y="518"/>
      <point x="66" y="509"/>
      <point x="69" y="495" type="curve" smooth="yes"/>
      <point x="183" y="-13" type="line"/>
      <point x="207" y="-7"/>
      <point x="243" y="0"/>
      <point x="252" y="25" type="curve" smooth="yes"/>
      <point x="378" y="395" type="line"/>
      <point x="526" y="-13" type="line"/>
      <point x="544" y="-9"/>
      <point x="584" y="0"/>
      <point x="589" y="25" type="curve" smooth="yes"/>
      <point x="689" y="498" type="line" smooth="yes"/>
      <point x="691" y="508"/>
      <point x="704" y="515"/>
    </contour>
  </outline>
</glyph>
<glyph name="X" format="2">
  <advance width="571"/>
  <unicode hex="0058"/>
  <outline>
    <contour>
      <point x="540" y="517" type="curve"/>
      <point x="540" y="553" type="line"/>
      <point x="341" y="553" type="line"/>
      <point x="341" y="517" type="line"/>
      <point x="393" y="513"/>
      <point x="398" y="507"/>
      <point x="381" y="480" type="curve" smooth="yes"/>
      <point x="255" y="281" type="line"/>
      <point x="289" y="214" type="line"/>
      <point x="460" y="480" type="line" smooth="yes"/>
      <point x="475" y="504"/>
      <point x="497" y="512"/>
    </contour>
    <contour>
      <point x="315" y="0" type="line"/>
      <point x="562" y="0" type="line"/>
      <point x="562" y="36" type="line"/>
      <point x="527" y="40"/>
      <point x="514" y="48"/>
      <point x="497" y="73" type="curve" smooth="yes"/>
      <point x="217" y="480" type="line" smooth="yes"/>
      <point x="199" y="505"/>
      <point x="214" y="512"/>
      <point x="264" y="517" type="curve"/>
      <point x="264" y="553" type="line"/>
      <point x="13" y="553" type="line"/>
      <point x="13" y="517" type="line"/>
      <point x="52" y="511"/>
      <point x="64" y="506"/>
      <point x="82" y="480" type="curve" smooth="yes"/>
      <point x="361" y="73" type="line" smooth="yes"/>
      <point x="377" y="50"/>
      <point x="366" y="41"/>
      <point x="315" y="36" type="curve"/>
    </contour>
    <contour>
      <point x="167" y="73" type="curve" smooth="yes"/>
      <point x="290" y="254" type="line"/>
      <point x="261" y="330" type="line"/>
      <point x="89" y="73" type="line" smooth="yes"/>
      <point x="73" y="50"/>
      <point x="47" y="39"/>
      <point x="9" y="36" type="curve"/>
      <point x="9" y="0" type="line"/>
      <point x="206" y="0" type="line"/>
      <point x="206" y="36" type="line"/>
      <point x="152" y="39"/>
      <point x="150" y="47"/>
    </contour>
  </outline>
</glyph>
<glyph name="Y" format="2">
  <advance width="545"/>
  <unicode hex="0059"/>
  <outline>
    <contour>
      <point x="529" y="526" type="curve"/>
      <point x="529" y="553" type="line"/>
      <point x="349" y="553" type="line"/>
      <point x="349" y="526" type="line"/>
      <point x="394" y="520"/>
      <point x="406" y="512"/>
      <point x="398" y="497" type="curve" smooth="yes"/>
      <point x="290" y="298" type="line"/>
      <point x="249" y="382"/>
      <point x="193" y="481"/>
      <point x="150" y="538" type="curve" smooth="yes"/>
      <point x="140" y="551"/>
      <point x="124" y="558"/>
      <point x="109" y="558" type="curve" smooth="yes"/>
      <point x="85" y="558"/>
      <point x="34" y="551"/>
      <point x="0" y="546" type="curve"/>
      <point x="1" y="518" type="line"/>
      <point x="50" y="518"/>
      <point x="61" y="509"/>
      <point x="71" y="497" type="curve"/>
      <point x="115" y="437"/>
      <point x="191" y="310"/>
      <point x="232" y="212" type="curve"/>
      <point x="309" y="212" type="line"/>
      <point x="463" y="497" type="line" smooth="yes"/>
      <point x="471" y="511"/>
      <point x="489" y="518"/>
    </contour>
    <contour>
      <point x="153" y="0" type="line"/>
      <point x="391" y="0" type="line"/>
      <point x="391" y="27" type="line"/>
      <point x="336" y="38"/>
      <point x="320" y="51"/>
      <point x="320" y="59" type="curve" smooth="yes"/>
      <point x="320" y="279" type="line"/>
      <point x="223" y="279" type="line"/>
      <point x="223" y="59" type="line" smooth="yes"/>
      <point x="223" y="50"/>
      <point x="206" y="38"/>
      <point x="153" y="27" type="curve"/>
    </contour>
  </outline>
</glyph>
<glyph name="Z" format="2">
  <advance width="483"/>
  <unicode hex="005A"/>
  <outline>
    <contour>
      <point x="450" y="146" type="curve"/>
      <point x="417" y="154" type="line"/>
      <point x="395" y="82"/>
      <point x="382" y="52"/>
      <point x="357" y="52" type="curve" smooth="yes"/>
      <point x="147" y="52" type="line"/>
      <point x="446" y="532" type="line"/>
      <point x="433" y="553" type="line"/>
      <point x="147" y="553" type="line" smooth="yes"/>
      <point x="112" y="553"/>
      <point x="95" y="553"/>
      <point x="63" y="560" type="curve"/>
      <point x="48" y="410" type="line"/>
      <point x="82" y="403" type="line"/>
      <point x="95" y="464"/>
      <point x="124" y="500"/>
      <point x="143" y="500" type="curve" smooth="yes"/>
      <point x="325" y="500" type="line"/>
      <point x="23" y="21" type="line"/>
      <point x="38" y="0" type="line"/>
      <point x="445" y="0" type="line"/>
      <point x="446" y="34"/>
      <point x="449" y="108"/>
    </contour>
  </outline>
</glyph>
<glyph name="bracketleft" format="2">
  <advance width="438"/>
  <unicode hex="005B"/>
  <outline>
    <contour>
      <point x="409" y="-105" type="line"/>
      <point x="409" y="-59" type="line"/>
      <point x="286" y="-59" type="line"/>
      <point x="286" y="518" type="line"/>
      <point x="409" y="518" type="line"/>
      <point x="409" y="566" type="line"/>
      <point x="187" y="566" type="line"/>
      <point x="187" y="-105" type="line"/>
    </contour>
  </outline>
</glyph>
<glyph name="backslash" format="2">
  <advance width="422"/>
  <unicode hex="005C"/>
  <outline>
    <contour>
      <point x="386" y="-147" type="curve"/>
      <point x="406" y="-131" type="line"/>
      <point x="107" y="677" type="line"/>
      <point x="91" y="687"/>
      <point x="53" y="698"/>
      <point x="36" y="703" type="curve"/>
      <point x="15" y="689" type="line"/>
      <point x="314" y="-120" type="line"/>
      <point x="325" y="-128"/>
      <point x="372" y="-142"/>
    </contour>
  </outline>
</glyph>
<glyph name="bracketright" format="2">
  <advance width="471"/>
  <unicode hex="005D"/>
  <outline>
    <contour>
      <point x="250" y="-105" type="line"/>
      <point x="250" y="566" type="line"/>
      <point x="28" y="566" type="line"/>
      <point x="28" y="518" type="line"/>
      <point x="151" y="518" type="line"/>
      <point x="151" y="-59" type="line"/>
      <point x="28" y="-59" type="line"/>
      <point x="28" y="-105" type="line"/>
    </contour>
  </outline>
</glyph>
<glyph name="underscore" format="2">
  <advance width="355"/>
  <unicode hex="005F"/>
  <outline>
    <contour>
      <point x="370" y="-70" type="curve"/>
      <point x="358" y="-57" type="line"/>
      <point x="3" y="-57" type="line"/>
      <point x="-2" y="-68"/>
      <point x="-11" y="-91"/>
      <point x="-14" y="-103" type="curve"/>
      <point x="-1" y="-116" type="line"/>
      <point x="353" y="-116" type="line"/>
      <point x="357" y="-106"/>
      <point x="367" y="-82"/>
    </contour>
  </outline>
</glyph>
<glyph name="grave" format="2">
  <advance width="286"/>
  <unicode hex="0060"/>
  <outline>
    <contour>
      <point x="200" y="478" type="curve"/>
      <point x="108" y="667" type="line"/>
      <point x="93" y="666"/>
      <point x="11" y="651"/>
      <point x="0" y="648" type="curve"/>
      <point x="-14" y="621" type="line"/>
      <point x="158" y="455" type="line"/>
      <point x="168" y="458"/>
      <point x="192" y="471"/>
    </contour>
  </outline>
</glyph>
<glyph name="a" format="2">
  <advance width="442"/>
  <unicode hex="0061"/>
  <anchor x="214" y="0" name="H"/>
  <anchor x="214" y="429" name="U"/>
  <outline>
    <contour>
      <point x="428" y="0" type="line"/>
      <point x="428" y="37" type="line"/>
      <point x="393" y="39" type="line" smooth="yes"/>
      <point x="383" y="40"/>
      <point x="376" y="48"/>
      <point x="376" y="58" type="curve" smooth="yes"/>
      <point x="376" y="264" type="line" smooth="yes"/>
      <point x="376" y="379"/>
      <point x="313" y="400"/>
      <point x="221" y="400" type="curve" smooth="yes"/>
      <point x="136" y="400"/>
      <point x="43" y="364"/>
      <point x="43" y="304" type="curve" smooth="yes"/>
      <point x="43" y="271"/>
      <point x="79" y="276"/>
      <point x="79" y="276" type="curve"/>
      <point x="161" y="276" type="line"/>
      <point x="161" y="351" type="line"/>
      <point x="161" y="351"/>
      <point x="174" y="355"/>
      <point x="196" y="355" type="curve" smooth="yes"/>
      <point x="260" y="355"/>
      <point x="271" y="311"/>
      <point x="271" y="280" type="curve"/>
      <point x="271" y="280"/>
      <point x="270" y="261"/>
      <point x="270" y="249" type="curve"/>
      <point x="50" y="200"/>
      <point x="25" y="165"/>
      <point x="25" y="93" type="curve" smooth="yes"/>
      <point x="25" y="30"/>
      <point x="72" y="-9"/>
      <point x="130" y="-9" type="curve" smooth="yes"/>
      <point x="200" y="-9"/>
      <point x="269" y="39"/>
      <point x="269" y="39" type="curve"/>
      <point x="280" y="0" type="line"/>
    </contour>
    <contour>
      <point x="269" y="74" type="line"/>
      <point x="269" y="74"/>
      <point x="230" y="56"/>
      <point x="196" y="56" type="curve" smooth="yes"/>
      <point x="162" y="56"/>
      <point x="139" y="83"/>
      <point x="139" y="116" type="curve" smooth="yes"/>
      <point x="139" y="164"/>
      <point x="166" y="185"/>
      <point x="269" y="206" type="curve"/>
    </contour>
  </outline>
</glyph>
<glyph name="b" format="2">
  <advance width="478"/>
  <unicode hex="0062"/>
  <anchor x="239" y="0" name="H"/>
  <anchor x="256" y="601" name="U"/>
  <outline>
    <contour>
      <point x="452" y="219" type="curve" smooth="yes"/>
      <point x="452" y="333"/>
      <point x="380" y="400"/>
      <point x="295" y="400" type="curve" smooth="yes"/>
      <point x="251" y="400"/>
      <point x="203" y="378"/>
      <point x="179" y="363" type="curve"/>
      <point x="179" y="592" type="line"/>
      <point x="138" y="592" type="line"/>
      <point x="16" y="551" type="line"/>
      <point x="16" y="519" type="line"/>
      <point x="71" y="519" type="line"/>
      <point x="71" y="0" type="line"/>
      <point x="218" y="0" type="line" smooth="yes"/>
      <point x="367" y="0"/>
      <point x="452" y="96"/>
    </contour>
    <contour>
      <point x="336" y="195" type="curve" smooth="yes"/>
      <point x="336" y="81"/>
      <point x="284" y="44"/>
      <point x="196" y="44" type="curve" smooth="yes"/>
      <point x="191" y="44"/>
      <point x="184" y="44"/>
      <point x="179" y="44" type="curve"/>
      <point x="179" y="328" type="line"/>
      <point x="189" y="330"/>
      <point x="207" y="333"/>
      <point x="221" y="333" type="curve" smooth="yes"/>
      <point x="296" y="333"/>
      <point x="336" y="281"/>
    </contour>
  </outline>
</glyph>
<glyph name="c" format="2">
  <advance width="401"/>
  <unicode hex="0063"/>
  <anchor x="221" y="0" name="H"/>
  <anchor x="224" y="429" name="U"/>
  <outline>
    <contour>
      <point x="376" y="35" type="curve"/>
      <point x="376" y="96" type="line"/>
      <point x="366" y="88"/>
      <point x="313" y="57"/>
      <point x="264" y="57" type="curve" smooth="yes"/>
      <point x="189" y="57"/>
      <point x="143" y="116"/>
      <point x="143" y="210" type="curve" smooth="yes"/>
      <point x="143" y="309"/>
      <point x="196" y="359"/>
      <point x="244" y="359" type="curve" smooth="yes"/>
      <point x="250" y="359"/>
      <point x="254" y="359"/>
      <point x="260" y="358" type="curve"/>
      <point x="260" y="268" type="line"/>
      <point x="269" y="260"/>
      <point x="282" y="251"/>
      <point x="305" y="251" type="curve" smooth="yes"/>
      <point x="342" y="251"/>
      <point x="370" y="276"/>
      <point x="370" y="312" type="curve" smooth="yes"/>
      <point x="370" y="363"/>
      <point x="316" y="400"/>
      <point x="232" y="400" type="curve" smooth="yes"/>
      <point x="117" y="400"/>
      <point x="25" y="313"/>
      <point x="25" y="187" type="curve" smooth="yes"/>
      <point x="25" y="82"/>
      <point x="94" y="-9"/>
      <point x="219" y="-9" type="curve" smooth="yes"/>
      <point x="292" y="-9"/>
      <point x="349" y="19"/>
    </contour>
  </outline>
</glyph>
<glyph name="d" format="2">
  <advance width="487"/>
  <unicode hex="0064"/>
  <anchor x="246" y="0" name="H"/>
  <anchor x="246" y="601" name="U"/>
  <outline>
    <contour>
      <point x="466" y="0" type="line"/>
      <point x="466" y="37" type="line"/>
      <point x="432" y="39" type="line" smooth="yes"/>
      <point x="423" y="40"/>
      <point x="415" y="48"/>
      <point x="415" y="58" type="curve" smooth="yes"/>
      <point x="415" y="592" type="line"/>
      <point x="374" y="592" type="line"/>
      <point x="249" y="551" type="line"/>
      <point x="249" y="519" type="line"/>
      <point x="308" y="519" type="line"/>
      <point x="308" y="390" type="line"/>
      <point x="289" y="394"/>
      <point x="256" y="400"/>
      <point x="234" y="400" type="curve" smooth="yes"/>
      <point x="113" y="400"/>
      <point x="25" y="323"/>
      <point x="25" y="186" type="curve" smooth="yes"/>
      <point x="25" y="73"/>
      <point x="84" y="-9"/>
      <point x="182" y="-9" type="curve" smooth="yes"/>
      <point x="240" y="-9"/>
      <point x="296" y="39"/>
      <point x="308" y="46" type="curve"/>
      <point x="308" y="0" type="line"/>
    </contour>
    <contour>
      <point x="308" y="79" type="line"/>
      <point x="294" y="72"/>
      <point x="267" y="64"/>
      <point x="246" y="64" type="curve" smooth="yes"/>
      <point x="176" y="64"/>
      <point x="142" y="120"/>
      <point x="142" y="204" type="curve" smooth="yes"/>
      <point x="142" y="287"/>
      <point x="177" y="351"/>
      <point x="251" y="351" type="curve" smooth="yes"/>
      <point x="269" y="351"/>
      <point x="294" y="343"/>
      <point x="308" y="337" type="curve"/>
    </contour>
  </outline>
</glyph>
<glyph name="e" format="2">
  <advance width="428"/>
  <unicode hex="0065"/>
  <outline>
    <contour>
      <point x="398" y="242" type="curve"/>
      <point x="398" y="330"/>
      <point x="352" y="421"/>
      <point x="236" y="421" type="curve" smooth="yes"/>
      <point x="196" y="421"/>
      <point x="152" y="403"/>
      <point x="123" y="382" type="curve" smooth="yes"/>
      <point x="63" y="339"/>
      <point x="30" y="272"/>
      <point x="30" y="192" type="curve" smooth="yes"/>
      <point x="30" y="68"/>
      <point x="112" y="-13"/>
      <point x="208" y="-13" type="curve" smooth="yes"/>
      <point x="275" y="-13"/>
      <point x="315" y="2"/>
      <point x="395" y="85" type="curve"/>
      <point x="392" y="90"/>
      <point x="382" y="106"/>
      <point x="374" y="110" type="curve"/>
      <point x="307" y="60"/>
      <point x="279" y="54"/>
      <point x="242" y="54" type="curve" smooth="yes"/>
      <point x="167" y="54"/>
      <point x="125" y="126"/>
      <point x="125" y="216" type="curve" smooth="yes"/>
      <point x="125" y="308"/>
      <point x="156" y="371"/>
      <point x="222" y="371" type="curve" smooth="yes"/>
      <point x="287" y="371"/>
      <point x="304" y="304"/>
      <point x="304" y="270" type="curve" smooth="yes"/>
      <point x="304" y="258"/>
      <point x="300" y="254"/>
      <point x="287" y="254" type="curve" smooth="yes"/>
      <point x="80" y="254" type="line"/>
      <point x="79" y="208" type="line"/>
      <point x="341" y="208" type="line"/>
      <point x="359" y="216"/>
      <point x="387" y="230"/>
    </contour>
  </outline>
</glyph>
<glyph name="f" format="2">
  <advance width="277"/>
  <unicode hex="0066"/>
  <anchor x="128" y="0" name="H"/>
  <anchor x="209" y="578" name="U"/>
  <outline>
    <contour>
      <point x="335" y="528" type="curve" smooth="yes"/>
      <point x="335" y="573"/>
      <point x="291" y="592"/>
      <point x="259" y="592" type="curve" smooth="yes"/>
      <point x="193" y="592"/>
      <point x="141" y="554"/>
      <point x="108" y="502" type="curve" smooth="yes"/>
      <point x="87" y="466"/>
      <point x="74" y="429"/>
      <point x="74" y="387" type="curve"/>
      <point x="23" y="361" type="line"/>
      <point x="23" y="329" type="line"/>
      <point x="75" y="329" type="line"/>
      <point x="75" y="58" type="line" smooth="yes"/>
      <point x="75" y="48"/>
      <point x="67" y="40"/>
      <point x="57" y="39" type="curve" smooth="yes"/>
      <point x="16" y="37" type="line"/>
      <point x="16" y="0" type="line"/>
      <point x="248" y="0" type="line"/>
      <point x="248" y="37" type="line"/>
      <point x="200" y="39" type="line"/>
      <point x="189" y="40"/>
      <point x="182" y="48"/>
      <point x="182" y="58" type="curve" smooth="yes"/>
      <point x="182" y="329" type="line"/>
      <point x="268" y="329" type="line"/>
      <point x="268" y="380" type="line"/>
      <point x="181" y="380" type="line"/>
      <point x="181" y="427" type="line" smooth="yes"/>
      <point x="181" y="500"/>
      <point x="191" y="525"/>
      <point x="207" y="549" type="curve"/>
      <point x="286" y="475" type="line"/>
      <point x="312" y="483"/>
      <point x="335" y="503"/>
    </contour>
  </outline>
</glyph>
<glyph name="g" format="2">
  <advance width="474"/>
  <unicode hex="0067"/>
  <outline>
    <contour>
      <point x="465" y="-43" type="curve" smooth="yes"/>
      <point x="465" y="19"/>
      <point x="427" y="47"/>
      <point x="286" y="65" type="curve" smooth="yes"/>
      <point x="195" y="77"/>
      <point x="191" y="85"/>
      <point x="191" y="94" type="curve" smooth="yes"/>
      <point x="191" y="99"/>
      <point x="195" y="118"/>
      <point x="243" y="153" type="curve"/>
      <point x="159" y="146" type="line"/>
      <point x="90" y="102"/>
      <point x="62" y="64"/>
      <point x="62" y="49" type="curve" smooth="yes"/>
      <point x="62" y="21"/>
      <point x="134" y="-8"/>
      <point x="249" y="-23" type="curve" smooth="yes"/>
      <point x="338" y="-35"/>
      <point x="351" y="-58"/>
      <point x="351" y="-77" type="curve" smooth="yes"/>
      <point x="351" y="-112"/>
      <point x="326" y="-147"/>
      <point x="260" y="-147" type="curve" smooth="yes"/>
      <point x="180" y="-147"/>
      <point x="123" y="-115"/>
      <point x="123" y="-79" type="curve" smooth="yes"/>
      <point x="123" y="-59"/>
      <point x="127" y="-36"/>
      <point x="203" y="13" type="curve"/>
      <point x="201" y="25"/>
      <point x="146" y="26"/>
      <point x="146" y="26" type="curve"/>
      <point x="32" y="-32"/>
      <point x="4" y="-64"/>
      <point x="4" y="-96" type="curve" smooth="yes"/>
      <point x="4" y="-181"/>
      <point x="132" y="-215"/>
      <point x="227" y="-215" type="curve" smooth="yes"/>
      <point x="343" y="-215"/>
      <point x="465" y="-122"/>
    </contour>
    <contour>
      <point x="474" y="404" type="curve"/>
      <point x="460" y="421" type="line"/>
      <point x="433" y="411"/>
      <point x="373" y="391"/>
      <point x="318" y="387" type="curve"/>
      <point x="334" y="344" type="line"/>
      <point x="384" y="342"/>
      <point x="417" y="346"/>
      <point x="449" y="351" type="curve"/>
      <point x="458" y="366"/>
      <point x="471" y="392"/>
    </contour>
    <contour>
      <point x="404" y="281" type="curve" smooth="yes"/>
      <point x="404" y="357"/>
      <point x="333" y="421"/>
      <point x="235" y="421" type="curve" smooth="yes"/>
      <point x="127" y="421"/>
      <point x="35" y="350"/>
      <point x="35" y="264" type="curve" smooth="yes"/>
      <point x="35" y="182"/>
      <point x="115" y="129"/>
      <point x="219" y="129" type="curve" smooth="yes"/>
      <point x="320" y="129"/>
      <point x="404" y="192"/>
    </contour>
    <contour>
      <point x="290" y="263" type="curve" smooth="yes"/>
      <point x="290" y="209"/>
      <point x="264" y="184"/>
      <point x="230" y="184" type="curve" smooth="yes"/>
      <point x="174" y="184"/>
      <point x="149" y="231"/>
      <point x="149" y="289" type="curve" smooth="yes"/>
      <point x="149" y="343"/>
      <point x="180" y="369"/>
      <point x="209" y="369" type="curve" smooth="yes"/>
      <point x="261" y="369"/>
      <point x="290" y="321"/>
    </contour>
  </outline>
</glyph>
<glyph name="h" format="2">
  <advance width="514"/>
  <unicode hex="0068"/>
  <outline>
    <contour>
      <point x="292" y="0" type="line"/>
      <point x="503" y="0" type="line"/>
      <point x="503" y="27" type="line"/>
      <point x="457" y="39"/>
      <point x="443" y="46"/>
      <point x="443" y="54" type="curve" smooth="yes"/>
      <point x="443" y="314" type="line" smooth="yes"/>
      <point x="443" y="391"/>
      <point x="397" y="421"/>
      <point x="346" y="421" type="curve" smooth="yes"/>
      <point x="301" y="421"/>
      <point x="235" y="390"/>
      <point x="173" y="329" type="curve"/>
      <point x="173" y="664" type="line"/>
      <point x="155" y="681" type="line"/>
      <point x="115" y="664"/>
      <point x="82" y="655"/>
      <point x="21" y="645" type="curve"/>
      <point x="21" y="619" type="line"/>
      <point x="78" y="613"/>
      <point x="81" y="610"/>
      <point x="81" y="561" type="curve" smooth="yes"/>
      <point x="81" y="54" type="line" smooth="yes"/>
      <point x="81" y="44"/>
      <point x="60" y="37"/>
      <point x="21" y="27" type="curve"/>
      <point x="21" y="0" type="line"/>
      <point x="232" y="0" type="line"/>
      <point x="232" y="27" type="line"/>
      <point x="195" y="35"/>
      <point x="173" y="45"/>
      <point x="173" y="54" type="curve" smooth="yes"/>
      <point x="173" y="267" type="line"/>
      <point x="221" y="320"/>
      <point x="263" y="349"/>
      <point x="299" y="349" type="curve" smooth="yes"/>
      <point x="336" y="349"/>
      <point x="351" y="331"/>
      <point x="351" y="260" type="curve" smooth="yes"/>
      <point x="351" y="54" type="line" smooth="yes"/>
      <point x="351" y="46"/>
      <point x="334" y="38"/>
      <point x="292" y="27" type="curve"/>
    </contour>
  </outline>
</glyph>
<glyph name="i" format="2">
  <advance width="261"/>
  <unicode hex="0069"/>
  <outline>
    <contour>
      <point x="195" y="554" type="curve" smooth="yes"/>
      <point x="195" y="585"/>
      <point x="172" y="600"/>
      <point x="142" y="600" type="curve" smooth="yes"/>
      <point x="106" y="600"/>
      <point x="76" y="573"/>
      <point x="76" y="536" type="curve" smooth="yes"/>
      <point x="76" y="504"/>
      <point x="99" y="489"/>
      <point x="129" y="489" type="curve" smooth="yes"/>
      <point x="167" y="489"/>
      <point x="195" y="516"/>
    </contour>
    <contour>
      <point x="28" y="0" type="line"/>
      <point x="239" y="0" type="line"/>
      <point x="239" y="27" type="line"/>
      <point x="196" y="35"/>
      <point x="180" y="47"/>
      <point x="180" y="54" type="curve" smooth="yes"/>
      <point x="180" y="421" type="line"/>
      <point x="156" y="421" type="line"/>
      <point x="119" y="407"/>
      <point x="74" y="395"/>
      <point x="28" y="388" type="curve"/>
      <point x="28" y="362" type="line"/>
      <point x="87" y="357"/>
      <point x="87" y="348"/>
      <point x="87" y="287" type="curve" smooth="yes"/>
      <point x="87" y="54" type="line" smooth="yes"/>
      <point x="87" y="46"/>
      <point x="68" y="35"/>
      <point x="28" y="27" type="curve"/>
    </contour>
  </outline>
</glyph>
<glyph name="j" format="2">
  <advance width="268"/>
  <unicode hex="006A"/>
  <outline>
    <contour>
      <point x="219" y="554" type="curve" smooth="yes"/>
      <point x="219" y="590"/>
      <point x="185" y="604"/>
      <point x="151" y="604" type="curve" smooth="yes"/>
      <point x="106" y="604"/>
      <point x="70" y="578"/>
      <point x="70" y="536" type="curve" smooth="yes"/>
      <point x="70" y="500"/>
      <point x="103" y="485"/>
      <point x="138" y="485" type="curve" smooth="yes"/>
      <point x="185" y="485"/>
      <point x="219" y="512"/>
    </contour>
    <contour>
      <point x="199" y="47" type="curve"/>
      <point x="199" y="421" type="line"/>
      <point x="166" y="421" type="line"/>
      <point x="116" y="406"/>
      <point x="90" y="399"/>
      <point x="24" y="391" type="curve"/>
      <point x="24" y="355" type="line"/>
      <point x="80" y="349"/>
      <point x="81" y="341"/>
      <point x="81" y="281" type="curve" smooth="yes"/>
      <point x="81" y="18" type="line" smooth="yes"/>
      <point x="81" y="-109"/>
      <point x="58" y="-134"/>
      <point x="28" y="-134" type="curve" smooth="yes"/>
      <point x="6" y="-134"/>
      <point x="-34" y="-117"/>
      <point x="-54" y="-92" type="curve"/>
      <point x="-71" y="-100"/>
      <point x="-136" y="-152"/>
      <point x="-136" y="-171" type="curve" smooth="yes"/>
      <point x="-136" y="-185"/>
      <point x="-72" y="-215"/>
      <point x="-23" y="-215" type="curve" smooth="yes"/>
      <point x="11" y="-215"/>
      <point x="62" y="-191"/>
      <point x="94" y="-166" type="curve" smooth="yes"/>
      <point x="141" y="-131"/>
      <point x="199" y="-87"/>
    </contour>
  </outline>
</glyph>
<glyph name="k" format="2">
  <advance width="475"/>
  <unicode hex="006B"/>
  <anchor x="121" y="0" name="H"/>
  <anchor x="246" y="711" name="U"/>
  <outline>
    <contour>
      <point x="462" y="381" type="curve"/>
      <point x="462" y="408" type="line"/>
      <point x="275" y="408" type="line"/>
      <point x="275" y="381" type="line"/>
      <point x="306" y="381"/>
      <point x="328" y="376"/>
      <point x="290" y="342" type="curve" smooth="yes"/>
      <point x="164" y="231" type="line"/>
      <point x="214" y="217" type="line"/>
      <point x="387" y="351" type="line" smooth="yes"/>
      <point x="412" y="370"/>
      <point x="436" y="378"/>
    </contour>
    <contour>
      <point x="16" y="0" type="line"/>
      <point x="216" y="0" type="line"/>
      <point x="216" y="27" type="line"/>
      <point x="172" y="41"/>
      <point x="168" y="45"/>
      <point x="168" y="54" type="curve" smooth="yes"/>
      <point x="168" y="664" type="line"/>
      <point x="149" y="681" type="line"/>
      <point x="113" y="663"/>
      <point x="67" y="654"/>
      <point x="16" y="645" type="curve"/>
      <point x="16" y="619" type="line"/>
      <point x="67" y="613"/>
      <point x="75" y="612"/>
      <point x="75" y="560" type="curve" smooth="yes"/>
      <point x="75" y="54" type="line" smooth="yes"/>
      <point x="75" y="43"/>
      <point x="55" y="37"/>
      <point x="16" y="27" type="curve"/>
    </contour>
    <contour>
      <point x="477" y="12" type="curve"/>
      <point x="474" y="39" type="line"/>
      <point x="440" y="37"/>
      <point x="425" y="40"/>
      <point x="409" y="59" type="curve" smooth="yes"/>
      <point x="231" y="264" type="line"/>
      <point x="165" y="231" type="line"/>
      <point x="328" y="18" type="line" smooth="yes"/>
      <point x="341" y="1"/>
      <point x="356" y="-4"/>
      <point x="381" y="-4" type="curve" smooth="yes"/>
      <point x="393" y="-4"/>
      <point x="443" y="4"/>
    </contour>
  </outline>
</glyph>
<glyph name="l" format="2">
  <advance width="266"/>
  <unicode hex="006C"/>
  <anchor x="133" y="0" name="H"/>
  <anchor x="133" y="617" name="U"/>
  <outline>
    <contour>
      <point x="244" y="0" type="line"/>
      <point x="244" y="37" type="line"/>
      <point x="203" y="39" type="line" smooth="yes"/>
      <point x="193" y="40"/>
      <point x="186" y="48"/>
      <point x="186" y="58" type="curve" smooth="yes"/>
      <point x="186" y="592" type="line"/>
      <point x="145" y="592" type="line"/>
      <point x="23" y="551" type="line"/>
      <point x="23" y="519" type="line"/>
      <point x="80" y="519" type="line"/>
      <point x="80" y="58" type="line" smooth="yes"/>
      <point x="80" y="48"/>
      <point x="72" y="40"/>
      <point x="62" y="39" type="curve" smooth="yes"/>
      <point x="23" y="37" type="line"/>
      <point x="23" y="0" type="line"/>
    </contour>
  </outline>
</glyph>
<glyph name="m" format="2">
  <advance width="747"/>
  <unicode hex="006D"/>
  <outline>
    <contour>
      <point x="527" y="0" type="line"/>
      <point x="736" y="0" type="line"/>
      <point x="736" y="27" type="line"/>
      <point x="690" y="39"/>
      <point x="674" y="46"/>
      <point x="674" y="54" type="curve" smooth="yes"/>
      <point x="674" y="314" type="line" smooth="yes"/>
      <point x="674" y="391"/>
      <point x="628" y="421"/>
      <point x="572" y="421" type="curve" smooth="yes"/>
      <point x="529" y="421"/>
      <point x="479" y="398"/>
      <point x="419" y="335" type="curve"/>
      <point x="418" y="342" type="line" smooth="yes"/>
      <point x="414" y="393"/>
      <point x="380" y="421"/>
      <point x="324" y="421" type="curve" smooth="yes"/>
      <point x="282" y="421"/>
      <point x="232" y="399"/>
      <point x="171" y="334" type="curve"/>
      <point x="166" y="404" type="line"/>
      <point x="149" y="421" type="line"/>
      <point x="111" y="406"/>
      <point x="77" y="395"/>
      <point x="21" y="388" type="curve"/>
      <point x="21" y="362" type="line"/>
      <point x="78" y="355"/>
      <point x="81" y="352"/>
      <point x="81" y="305" type="curve" smooth="yes"/>
      <point x="81" y="54" type="line" smooth="yes"/>
      <point x="81" y="44"/>
      <point x="60" y="37"/>
      <point x="21" y="27" type="curve"/>
      <point x="21" y="0" type="line"/>
      <point x="230" y="0" type="line"/>
      <point x="230" y="27" type="line"/>
      <point x="192" y="35"/>
      <point x="173" y="45"/>
      <point x="173" y="54" type="curve" smooth="yes"/>
      <point x="173" y="278" type="line"/>
      <point x="218" y="327"/>
      <point x="255" y="353"/>
      <point x="286" y="353" type="curve" smooth="yes"/>
      <point x="320" y="353"/>
      <point x="331" y="341"/>
      <point x="331" y="269" type="curve" smooth="yes"/>
      <point x="331" y="54" type="line" smooth="yes"/>
      <point x="331" y="46"/>
      <point x="319" y="38"/>
      <point x="277" y="27" type="curve"/>
      <point x="277" y="0" type="line"/>
      <point x="481" y="0" type="line"/>
      <point x="481" y="27" type="line"/>
      <point x="435" y="39"/>
      <point x="424" y="46"/>
      <point x="424" y="54" type="curve" smooth="yes"/>
      <point x="424" y="278" type="line"/>
      <point x="464" y="326"/>
      <point x="504" y="353"/>
      <point x="534" y="353" type="curve" smooth="yes"/>
      <point x="567" y="353"/>
      <point x="582" y="341"/>
      <point x="582" y="269" type="curve" smooth="yes"/>
      <point x="582" y="54" type="line" smooth="yes"/>
      <point x="582" y="46"/>
      <point x="569" y="38"/>
      <point x="527" y="27" type="curve"/>
    </contour>
  </outline>
</glyph>
<glyph name="n" format="2">
  <advance width="500"/>
  <unicode hex="006E"/>
  <anchor x="375" y="0" name="H"/>
  <anchor x="243" y="429" name="U"/>
  <outline>
    <contour>
      <point x="471" y="0" type="line"/>
      <point x="471" y="37" type="line"/>
      <point x="446" y="39" type="line" smooth="yes"/>
      <point x="436" y="40"/>
      <point x="428" y="48"/>
      <point x="428" y="58" type="curve" smooth="yes"/>
      <point x="428" y="260" type="line" smooth="yes"/>
      <point x="428" y="330"/>
      <point x="411" y="400"/>
      <point x="319" y="400" type="curve" smooth="yes"/>
      <point x="269" y="400"/>
      <point x="209" y="372"/>
      <point x="179" y="351" type="curve"/>
      <point x="179" y="400" type="line"/>
      <point x="137" y="400" type="line"/>
      <point x="16" y="359" type="line"/>
      <point x="16" y="326" type="line"/>
      <point x="71" y="326" type="line"/>
      <point x="71" y="58" type="line" smooth="yes"/>
      <point x="71" y="48"/>
      <point x="64" y="40"/>
      <point x="54" y="39" type="curve" smooth="yes"/>
      <point x="25" y="37" type="line"/>
      <point x="25" y="0" type="line"/>
      <point x="221" y="0" type="line"/>
      <point x="221" y="37" type="line"/>
      <point x="197" y="39" type="line" smooth="yes"/>
      <point x="187" y="40"/>
      <point x="179" y="48"/>
      <point x="179" y="58" type="curve" smooth="yes"/>
      <point x="179" y="316" type="line"/>
      <point x="193" y="320"/>
      <point x="223" y="326"/>
      <point x="255" y="326" type="curve" smooth="yes"/>
      <point x="303" y="326"/>
      <point x="321" y="287"/>
      <point x="321" y="246" type="curve" smooth="yes"/>
      <point x="321" y="58" type="line" smooth="yes"/>
      <point x="321" y="48"/>
      <point x="313" y="40"/>
      <point x="303" y="39" type="curve" smooth="yes"/>
      <point x="274" y="37" type="line"/>
      <point x="274" y="0" type="line"/>
    </contour>
  </outline>
</glyph>
<glyph name="o" format="2">
  <advance width="467"/>
  <unicode hex="006F"/>
  <anchor x="233" y="0" name="H"/>
  <anchor x="233" y="429" name="U"/>
  <outline>
    <contour>
      <point x="442" y="192" type="curve" smooth="yes"/>
      <point x="442" y="314"/>
      <point x="368" y="400"/>
      <point x="236" y="400" type="curve" smooth="yes"/>
      <point x="112" y="400"/>
      <point x="25" y="324"/>
      <point x="25" y="193" type="curve" smooth="yes"/>
      <point x="25" y="67"/>
      <point x="109" y="-9"/>
      <point x="231" y="-9" type="curve" smooth="yes"/>
      <point x="364" y="-9"/>
      <point x="442" y="73"/>
    </contour>
    <contour>
      <point x="323" y="193" type="curve" smooth="yes"/>
      <point x="323" y="122"/>
      <point x="307" y="35"/>
      <point x="234" y="35" type="curve" smooth="yes"/>
      <point x="160" y="35"/>
      <point x="145" y="128"/>
      <point x="145" y="196" type="curve" smooth="yes"/>
      <point x="145" y="265"/>
      <point x="161" y="354"/>
      <point x="233" y="354" type="curve" smooth="yes"/>
      <point x="307" y="354"/>
      <point x="323" y="261"/>
    </contour>
  </outline>
</glyph>
<glyph name="p" format="2">
  <advance width="483"/>
  <unicode hex="0070"/>
  <anchor x="128" y="-169" name="H"/>
  <anchor x="238" y="429" name="U"/>
  <outline>
    <contour>
      <point x="457" y="206" type="curve" smooth="yes"/>
      <point x="457" y="301"/>
      <point x="405" y="400"/>
      <point x="307" y="400" type="curve" smooth="yes"/>
      <point x="264" y="400"/>
      <point x="218" y="378"/>
      <point x="179" y="349" type="curve"/>
      <point x="179" y="400" type="line"/>
      <point x="137" y="400" type="line"/>
      <point x="19" y="359" type="line"/>
      <point x="19" y="326" type="line"/>
      <point x="71" y="326" type="line"/>
      <point x="71" y="-116" type="line" smooth="yes"/>
      <point x="71" y="-127"/>
      <point x="64" y="-134"/>
      <point x="54" y="-135" type="curve"/>
      <point x="19" y="-137" type="line"/>
      <point x="19" y="-175" type="line"/>
      <point x="239" y="-175" type="line"/>
      <point x="239" y="-137" type="line"/>
      <point x="196" y="-135" type="line"/>
      <point x="186" y="-134"/>
      <point x="179" y="-127"/>
      <point x="179" y="-116" type="curve" smooth="yes"/>
      <point x="179" y="-1" type="line"/>
      <point x="199" y="-5"/>
      <point x="220" y="-9"/>
      <point x="241" y="-9" type="curve" smooth="yes"/>
      <point x="373" y="-9"/>
      <point x="457" y="76"/>
    </contour>
    <contour>
      <point x="339" y="194" type="curve" smooth="yes"/>
      <point x="339" y="104"/>
      <point x="300" y="33"/>
      <point x="223" y="33" type="curve" smooth="yes"/>
      <point x="208" y="33"/>
      <point x="193" y="38"/>
      <point x="179" y="43" type="curve"/>
      <point x="179" y="315" type="line"/>
      <point x="198" y="321"/>
      <point x="218" y="327"/>
      <point x="238" y="327" type="curve"/>
      <point x="307" y="327"/>
      <point x="339" y="264"/>
    </contour>
  </outline>
</glyph>
<glyph name="q" format="2">
  <advance width="482"/>
  <unicode hex="0071"/>
  <anchor x="243" y="429" name="U"/>
  <outline>
    <contour>
      <point x="460" y="-175" type="line"/>
      <point x="460" y="-137" type="line"/>
      <point x="428" y="-135" type="line"/>
      <point x="418" y="-135"/>
      <point x="410" y="-127"/>
      <point x="410" y="-116" type="curve" smooth="yes"/>
      <point x="410" y="390" type="line"/>
      <point x="410" y="390"/>
      <point x="338" y="400"/>
      <point x="283" y="400" type="curve" smooth="yes"/>
      <point x="132" y="400"/>
      <point x="25" y="334"/>
      <point x="25" y="183" type="curve" smooth="yes"/>
      <point x="25" y="80"/>
      <point x="86" y="-9"/>
      <point x="182" y="-9" type="curve" smooth="yes"/>
      <point x="247" y="-9"/>
      <point x="303" y="31"/>
      <point x="303" y="31" type="curve"/>
      <point x="303" y="-116" type="line" smooth="yes"/>
      <point x="303" y="-127"/>
      <point x="296" y="-135"/>
      <point x="285" y="-135" type="curve"/>
      <point x="241" y="-137" type="line"/>
      <point x="241" y="-175" type="line"/>
    </contour>
    <contour>
      <point x="303" y="63" type="line"/>
      <point x="303" y="63"/>
      <point x="275" y="60"/>
      <point x="251" y="60" type="curve" smooth="yes"/>
      <point x="183" y="60"/>
      <point x="142" y="114"/>
      <point x="142" y="201" type="curve" smooth="yes"/>
      <point x="142" y="287"/>
      <point x="176" y="352"/>
      <point x="271" y="352" type="curve" smooth="yes"/>
      <point x="289" y="352"/>
      <point x="303" y="349"/>
      <point x="303" y="349" type="curve"/>
    </contour>
  </outline>
</glyph>
<glyph name="r" format="2">
  <advance width="345"/>
  <unicode hex="0072"/>
  <anchor x="120" y="0" name="H"/>
  <anchor x="187" y="429" name="U"/>
  <outline>
    <contour>
      <point x="337" y="264" type="line"/>
      <point x="337" y="385" type="line"/>
      <point x="328" y="392"/>
      <point x="305" y="400"/>
      <point x="287" y="400" type="curve" smooth="yes"/>
      <point x="250" y="400"/>
      <point x="199" y="340"/>
      <point x="179" y="315" type="curve"/>
      <point x="179" y="400" type="line"/>
      <point x="137" y="400" type="line"/>
      <point x="13" y="359" type="line"/>
      <point x="13" y="326" type="line"/>
      <point x="71" y="326" type="line"/>
      <point x="71" y="57" type="line" smooth="yes"/>
      <point x="71" y="48"/>
      <point x="64" y="39"/>
      <point x="54" y="39" type="curve" smooth="yes"/>
      <point x="19" y="36" type="line"/>
      <point x="19" y="0" type="line"/>
      <point x="248" y="0" type="line"/>
      <point x="248" y="36" type="line"/>
      <point x="196" y="39" type="line" smooth="yes"/>
      <point x="186" y="39"/>
      <point x="179" y="48"/>
      <point x="179" y="57" type="curve" smooth="yes"/>
      <point x="179" y="281" type="line"/>
      <point x="179" y="281"/>
      <point x="200" y="296"/>
      <point x="231" y="296" type="curve" smooth="yes"/>
      <point x="262" y="296"/>
      <point x="276" y="274"/>
      <point x="283" y="264" type="curve"/>
    </contour>
  </outline>
</glyph>
<glyph name="s" format="2">
  <advance width="355"/>
  <unicode hex="0073"/>
  <anchor x="179" y="0" name="H"/>
  <anchor x="187" y="429" name="U"/>
  <outline>
    <contour>
      <point x="318" y="267" type="line"/>
      <point x="318" y="378" type="line"/>
      <point x="297" y="387"/>
      <point x="248" y="400"/>
      <point x="191" y="400" type="curve" smooth="yes"/>
      <point x="97" y="400"/>
      <point x="30" y="352"/>
      <point x="30" y="278" type="curve" smooth="yes"/>
      <point x="30" y="226"/>
      <point x="66" y="197"/>
      <point x="146" y="159" type="curve" smooth="yes"/>
      <point x="194" y="137"/>
      <point x="228" y="120"/>
      <point x="228" y="88" type="curve" smooth="yes"/>
      <point x="228" y="70"/>
      <point x="214" y="37"/>
      <point x="160" y="37" type="curve" smooth="yes"/>
      <point x="134" y="37"/>
      <point x="87" y="55"/>
      <point x="85" y="60" type="curve"/>
      <point x="76" y="133" type="line"/>
      <point x="25" y="133" type="line"/>
      <point x="25" y="12" type="line"/>
      <point x="53" y="2"/>
      <point x="110" y="-9"/>
      <point x="167" y="-9" type="curve" smooth="yes"/>
      <point x="247" y="-9"/>
      <point x="331" y="23"/>
      <point x="331" y="116" type="curve" smooth="yes"/>
      <point x="331" y="176"/>
      <point x="271" y="206"/>
      <point x="218" y="233" type="curve" smooth="yes"/>
      <point x="176" y="254"/>
      <point x="137" y="276"/>
      <point x="137" y="307" type="curve" smooth="yes"/>
      <point x="137" y="335"/>
      <point x="160" y="351"/>
      <point x="197" y="351" type="curve" smooth="yes"/>
      <point x="226" y="351"/>
      <point x="249" y="344"/>
      <point x="260" y="332" type="curve"/>
      <point x="268" y="267" type="line"/>
    </contour>
  </outline>
</glyph>
<glyph name="t" format="2">
  <advance width="300"/>
  <unicode hex="0074"/>
  <anchor x="157" y="0" name="H"/>
  <anchor x="153" y="532" name="U"/>
  <outline>
    <contour>
      <point x="296" y="17" type="curve"/>
      <point x="296" y="57" type="line"/>
      <point x="285" y="55"/>
      <point x="263" y="51"/>
      <point x="244" y="51" type="curve" smooth="yes"/>
      <point x="202" y="51"/>
      <point x="179" y="70"/>
      <point x="179" y="121" type="curve" smooth="yes"/>
      <point x="179" y="339" type="line"/>
      <point x="290" y="339" type="line"/>
      <point x="290" y="390" type="line"/>
      <point x="179" y="390" type="line"/>
      <point x="179" y="492" type="line"/>
      <point x="123" y="492" type="line"/>
      <point x="80" y="407" type="line"/>
      <point x="19" y="371" type="line"/>
      <point x="19" y="339" type="line"/>
      <point x="71" y="339" type="line"/>
      <point x="71" y="88" type="line" smooth="yes"/>
      <point x="71" y="21"/>
      <point x="97" y="-9"/>
      <point x="168" y="-9" type="curve" smooth="yes"/>
      <point x="216" y="-9"/>
      <point x="269" y="5"/>
    </contour>
  </outline>
</glyph>
<glyph name="u" format="2">
  <advance width="496"/>
  <unicode hex="0075"/>
  <outline>
    <contour>
      <point x="491" y="44" type="curve"/>
      <point x="482" y="73" type="line"/>
      <point x="453" y="60"/>
      <point x="440" y="58"/>
      <point x="434" y="63" type="curve" smooth="yes"/>
      <point x="426" y="69"/>
      <point x="424" y="84"/>
      <point x="424" y="120" type="curve" smooth="yes"/>
      <point x="424" y="402" type="line"/>
      <point x="408" y="421" type="line"/>
      <point x="369" y="411"/>
      <point x="325" y="400"/>
      <point x="272" y="395" type="curve"/>
      <point x="272" y="368" type="line"/>
      <point x="326" y="366"/>
      <point x="331" y="358"/>
      <point x="331" y="305" type="curve" smooth="yes"/>
      <point x="331" y="115" type="line"/>
      <point x="282" y="68"/>
      <point x="247" y="54"/>
      <point x="218" y="54" type="curve" smooth="yes"/>
      <point x="183" y="54"/>
      <point x="162" y="73"/>
      <point x="162" y="148" type="curve" smooth="yes"/>
      <point x="162" y="402" type="line"/>
      <point x="148" y="421" type="line"/>
      <point x="102" y="406"/>
      <point x="68" y="400"/>
      <point x="15" y="395" type="curve"/>
      <point x="15" y="368" type="line"/>
      <point x="68" y="363"/>
      <point x="70" y="361"/>
      <point x="70" y="305" type="curve" smooth="yes"/>
      <point x="70" y="122" type="line" smooth="yes"/>
      <point x="70" y="12"/>
      <point x="124" y="-13"/>
      <point x="179" y="-13" type="curve" smooth="yes"/>
      <point x="216" y="-13"/>
      <point x="258" y="-2"/>
      <point x="331" y="64" type="curve"/>
      <point x="337" y="3"/>
      <point x="355" y="-13"/>
      <point x="375" y="-13" type="curve" smooth="yes"/>
      <point x="390" y="-13"/>
      <point x="448" y="16"/>
    </contour>
  </outline>
</glyph>
<glyph name="v" format="2">
  <advance width="461"/>
  <unicode hex="0076"/>
  <outline>
    <contour>
      <point x="456" y="372" type="curve"/>
      <point x="456" y="408" type="line"/>
      <point x="314" y="408" type="line"/>
      <point x="314" y="372" type="line"/>
      <point x="353" y="365"/>
      <point x="354" y="359"/>
      <point x="347" y="342" type="curve" smooth="yes"/>
      <point x="262" y="141" type="line"/>
      <point x="172" y="342" type="line" smooth="yes"/>
      <point x="164" y="360"/>
      <point x="168" y="366"/>
      <point x="213" y="372" type="curve"/>
      <point x="213" y="408" type="line"/>
      <point x="4" y="408" type="line"/>
      <point x="4" y="372" type="line"/>
      <point x="33" y="365"/>
      <point x="41" y="358"/>
      <point x="48" y="342" type="curve" smooth="yes"/>
      <point x="206" y="-13" type="line"/>
      <point x="239" y="-5"/>
      <point x="277" y="13"/>
      <point x="288" y="39" type="curve" smooth="yes"/>
      <point x="412" y="342" type="line" smooth="yes"/>
      <point x="419" y="359"/>
      <point x="422" y="363"/>
    </contour>
  </outline>
</glyph>
<glyph name="w" format="2">
  <advance width="648"/>
  <unicode hex="0077"/>
  <outline>
    <contour>
      <point x="643" y="372" type="curve"/>
      <point x="643" y="408" type="line"/>
      <point x="500" y="408" type="line"/>
      <point x="500" y="372" type="line"/>
      <point x="541" y="365"/>
      <point x="539" y="358"/>
      <point x="534" y="344" type="curve" smooth="yes"/>
      <point x="475" y="161" type="line"/>
      <point x="366" y="408" type="line"/>
      <point x="359" y="408"/>
      <point x="334" y="408"/>
      <point x="334" y="408" type="curve"/>
      <point x="308" y="261" type="line"/>
      <point x="438" y="-13" type="line"/>
      <point x="453" y="-9"/>
      <point x="495" y="0"/>
      <point x="502" y="25" type="curve"/>
      <point x="599" y="344" type="line" smooth="yes"/>
      <point x="604" y="358"/>
      <point x="612" y="363"/>
    </contour>
    <contour>
      <point x="234" y="25" type="curve"/>
      <point x="365" y="327" type="line"/>
      <point x="364" y="408" type="line"/>
      <point x="364" y="408"/>
      <point x="339" y="408"/>
      <point x="331" y="408" type="curve"/>
      <point x="227" y="161" type="line"/>
      <point x="167" y="344" type="line"/>
      <point x="163" y="355"/>
      <point x="165" y="366"/>
      <point x="213" y="372" type="curve"/>
      <point x="213" y="408" type="line"/>
      <point x="4" y="408" type="line"/>
      <point x="4" y="372" type="line"/>
      <point x="33" y="365"/>
      <point x="48" y="355"/>
      <point x="52" y="344" type="curve" smooth="yes"/>
      <point x="171" y="-13" type="line"/>
      <point x="187" y="-9"/>
      <point x="225" y="0"/>
    </contour>
  </outline>
</glyph>
<glyph name="x" format="2">
  <advance width="474"/>
  <unicode hex="0078"/>
  <outline>
    <contour>
      <point x="454" y="372" type="curve"/>
      <point x="454" y="408" type="line"/>
      <point x="287" y="408" type="line"/>
      <point x="287" y="372" type="line"/>
      <point x="323" y="368"/>
      <point x="328" y="363"/>
      <point x="306" y="335" type="curve" smooth="yes"/>
      <point x="215" y="221" type="line"/>
      <point x="260" y="187" type="line"/>
      <point x="377" y="334" type="line" smooth="yes"/>
      <point x="394" y="355"/>
      <point x="407" y="368"/>
    </contour>
    <contour>
      <point x="239" y="0" type="line"/>
      <point x="468" y="0" type="line"/>
      <point x="468" y="36" type="line"/>
      <point x="429" y="41"/>
      <point x="415" y="58"/>
      <point x="402" y="75" type="curve"/>
      <point x="216" y="335" type="line" smooth="yes"/>
      <point x="196" y="363"/>
      <point x="201" y="368"/>
      <point x="237" y="372" type="curve"/>
      <point x="237" y="408" type="line"/>
      <point x="9" y="408" type="line"/>
      <point x="9" y="372" type="line"/>
      <point x="52" y="368"/>
      <point x="64" y="355"/>
      <point x="79" y="334" type="curve" smooth="yes"/>
      <point x="267" y="72" type="line" smooth="yes"/>
      <point x="290" y="41"/>
      <point x="268" y="39"/>
      <point x="239" y="36" type="curve"/>
    </contour>
    <contour>
      <point x="145" y="72" type="curve" smooth="yes"/>
      <point x="241" y="192" type="line"/>
      <point x="197" y="228" type="line"/>
      <point x="76" y="75" type="line" smooth="yes"/>
      <point x="61" y="58"/>
      <point x="47" y="43"/>
      <point x="4" y="36" type="curve"/>
      <point x="4" y="0" type="line"/>
      <point x="175" y="0" type="line"/>
      <point x="175" y="36" type="line"/>
      <point x="147" y="39"/>
      <point x="121" y="42"/>
    </contour>
  </outline>
</glyph>
<glyph name="y" format="2">
  <advance width="461"/>
  <unicode hex="0079"/>
  <outline>
    <contour>
      <point x="456" y="372" type="curve"/>
      <point x="456" y="408" type="line"/>
      <point x="314" y="408" type="line"/>
      <point x="314" y="372" type="line"/>
      <point x="348" y="366"/>
      <point x="349" y="359"/>
      <point x="342" y="342" type="curve" smooth="yes"/>
      <point x="261" y="141" type="line"/>
      <point x="177" y="342" type="line" smooth="yes"/>
      <point x="169" y="360"/>
      <point x="172" y="366"/>
      <point x="213" y="372" type="curve"/>
      <point x="213" y="408" type="line"/>
      <point x="4" y="408" type="line"/>
      <point x="4" y="372" type="line"/>
      <point x="33" y="365"/>
      <point x="46" y="358"/>
      <point x="53" y="342" type="curve" smooth="yes"/>
      <point x="201" y="-10" type="line"/>
      <point x="188" y="-40" type="line" smooth="yes"/>
      <point x="167" y="-90"/>
      <point x="145" y="-106"/>
      <point x="123" y="-114" type="curve" smooth="yes"/>
      <point x="101" y="-121"/>
      <point x="68" y="-117"/>
      <point x="39" y="-97" type="curve"/>
      <point x="20" y="-108"/>
      <point x="-29" y="-171"/>
      <point x="-29" y="-183" type="curve" smooth="yes"/>
      <point x="-29" y="-194"/>
      <point x="19" y="-215"/>
      <point x="64" y="-215" type="curve" smooth="yes"/>
      <point x="145" y="-215"/>
      <point x="210" y="-160"/>
      <point x="261" y="-31" type="curve" smooth="yes"/>
      <point x="408" y="342" type="line" smooth="yes"/>
      <point x="414" y="359"/>
      <point x="421" y="363"/>
    </contour>
  </outline>
</glyph>
<glyph name="z" format="2">
  <advance width="428"/>
  <unicode hex="007A"/>
  <outline>
    <contour>
      <point x="395" y="157" type="curve"/>
      <point x="361" y="166" type="line"/>
      <point x="343" y="99"/>
      <point x="336" y="57"/>
      <point x="312" y="57" type="curve" smooth="yes"/>
      <point x="173" y="57" type="line"/>
      <point x="402" y="389" type="line"/>
      <point x="393" y="408" type="line"/>
      <point x="137" y="408" type="line" smooth="yes"/>
      <point x="99" y="408"/>
      <point x="85" y="408"/>
      <point x="60" y="415" type="curve"/>
      <point x="47" y="260" type="line"/>
      <point x="82" y="250" type="line"/>
      <point x="98" y="317"/>
      <point x="123" y="351"/>
      <point x="151" y="351" type="curve" smooth="yes"/>
      <point x="253" y="351" type="line"/>
      <point x="24" y="19" type="line"/>
      <point x="36" y="0" type="line"/>
      <point x="389" y="0" type="line"/>
      <point x="393" y="20"/>
      <point x="395" y="120"/>
    </contour>
  </outline>
</glyph>
<glyph name="braceleft" format="2">
  <advance width="396"/>
  <unicode hex="007B"/>
  <outline>
    <contour>
      <point x="337" y="-97" type="curve"/>
      <point x="337" y="-53" type="line"/>
      <point x="337" y="-53"/>
      <point x="286" y="-55"/>
      <point x="261" y="-32" type="curve" smooth="yes"/>
      <point x="213" y="15"/>
      <point x="270" y="135"/>
      <point x="204" y="197" type="curve" smooth="yes"/>
      <point x="167" y="233"/>
      <point x="118" y="233"/>
      <point x="118" y="233" type="curve"/>
      <point x="118" y="233"/>
      <point x="167" y="232"/>
      <point x="204" y="268" type="curve" smooth="yes"/>
      <point x="270" y="330"/>
      <point x="213" y="451"/>
      <point x="261" y="499" type="curve" smooth="yes"/>
      <point x="286" y="523"/>
      <point x="337" y="520"/>
      <point x="337" y="520" type="curve"/>
      <point x="337" y="564" type="line"/>
      <point x="319" y="564"/>
      <point x="219" y="567"/>
      <point x="179" y="532" type="curve" smooth="yes"/>
      <point x="106" y="467"/>
      <point x="167" y="326"/>
      <point x="120" y="279" type="curve" smooth="yes"/>
      <point x="89" y="248"/>
      <point x="32" y="257"/>
      <point x="32" y="257" type="curve"/>
      <point x="32" y="209" type="line"/>
      <point x="32" y="209"/>
      <point x="89" y="218"/>
      <point x="120" y="187" type="curve" smooth="yes"/>
      <point x="167" y="139"/>
      <point x="106" y="0"/>
      <point x="179" y="-64" type="curve" smooth="yes"/>
      <point x="219" y="-100"/>
      <point x="319" y="-97"/>
    </contour>
  </outline>
</glyph>
<glyph name="braceright" format="2">
  <advance width="396"/>
  <unicode hex="007D"/>
  <outline>
    <contour>
      <point x="363" y="209" type="curve"/>
      <point x="363" y="257" type="line"/>
      <point x="363" y="257"/>
      <point x="306" y="248"/>
      <point x="275" y="279" type="curve" smooth="yes"/>
      <point x="228" y="326"/>
      <point x="288" y="467"/>
      <point x="216" y="532" type="curve" smooth="yes"/>
      <point x="176" y="567"/>
      <point x="76" y="564"/>
      <point x="58" y="564" type="curve"/>
      <point x="58" y="520" type="line"/>
      <point x="58" y="520"/>
      <point x="109" y="523"/>
      <point x="134" y="499" type="curve" smooth="yes"/>
      <point x="182" y="452"/>
      <point x="125" y="331"/>
      <point x="191" y="268" type="curve" smooth="yes"/>
      <point x="228" y="232"/>
      <point x="277" y="233"/>
      <point x="277" y="233" type="curve"/>
      <point x="277" y="233"/>
      <point x="228" y="233"/>
      <point x="191" y="197" type="curve" smooth="yes"/>
      <point x="125" y="135"/>
      <point x="182" y="14"/>
      <point x="134" y="-32" type="curve" smooth="yes"/>
      <point x="109" y="-55"/>
      <point x="58" y="-53"/>
      <point x="58" y="-53" type="curve"/>
      <point x="58" y="-97" type="line"/>
      <point x="76" y="-97"/>
      <point x="176" y="-100"/>
      <point x="216" y="-64" type="curve" smooth="yes"/>
      <point x="288" y="0"/>
      <point x="228" y="139"/>
      <point x="275" y="187" type="curve" smooth="yes"/>
      <point x="306" y="218"/>
      <point x="363" y="209"/>
    </contour>
  </outline>
</glyph>
<glyph name="exclamdown" format="2">
  <advance width="271"/>
  <unicode hex="00A1"/>
  <outline>
    <contour>
      <point x="200" y="334" type="curve" smooth="yes"/>
      <point x="200" y="381"/>
      <point x="161" y="400"/>
      <point x="135" y="400" type="curve" smooth="yes"/>
      <point x="100" y="400"/>
      <point x="71" y="371"/>
      <point x="71" y="334" type="curve" smooth="yes"/>
      <point x="71" y="295"/>
      <point x="105" y="271"/>
      <point x="135" y="271" type="curve" smooth="yes"/>
      <point x="165" y="271"/>
      <point x="200" y="292"/>
    </contour>
    <contour>
      <point x="200" y="-94" type="curve"/>
      <point x="156" y="223" type="line"/>
      <point x="113" y="223" type="line"/>
      <point x="70" y="-94" type="line"/>
      <point x="70" y="-139"/>
      <point x="100" y="-159"/>
      <point x="135" y="-159" type="curve" smooth="yes"/>
      <point x="171" y="-159"/>
      <point x="200" y="-138"/>
    </contour>
  </outline>
</glyph>
<glyph name="cent" format="2">
  <advance width="466"/>
  <unicode hex="00A2"/>
  <outline>
    <contour>
      <point x="279" y="5" type="curve"/>
      <point x="279" y="533" type="line"/>
      <point x="263" y="547" type="line"/>
      <point x="245" y="542"/>
      <point x="238" y="534"/>
      <point x="221" y="524" type="curve"/>
      <point x="221" y="-2" type="line"/>
      <point x="237" y="-18" type="line"/>
      <point x="251" y="-13"/>
      <point x="268" y="-3"/>
    </contour>
    <contour>
      <point x="428" y="158" type="curve"/>
      <point x="397" y="193" type="line"/>
      <point x="340" y="136"/>
      <point x="308" y="123"/>
      <point x="268" y="123" type="curve" smooth="yes"/>
      <point x="198" y="123"/>
      <point x="143" y="170"/>
      <point x="143" y="270" type="curve" smooth="yes"/>
      <point x="143" y="379"/>
      <point x="201" y="413"/>
      <point x="252" y="413" type="curve" smooth="yes"/>
      <point x="312" y="413"/>
      <point x="344" y="366"/>
      <point x="355" y="346" type="curve"/>
      <point x="388" y="337" type="line"/>
      <point x="398" y="352"/>
      <point x="428" y="425"/>
      <point x="426" y="439" type="curve"/>
      <point x="406" y="460"/>
      <point x="330" y="474"/>
      <point x="291" y="474" type="curve" smooth="yes"/>
      <point x="138" y="474"/>
      <point x="36" y="382"/>
      <point x="36" y="257" type="curve" smooth="yes"/>
      <point x="36" y="127"/>
      <point x="152" y="56"/>
      <point x="236" y="56" type="curve" smooth="yes"/>
      <point x="302" y="56"/>
      <point x="351" y="73"/>
    </contour>
  </outline>
</glyph>
<glyph name="sterling" format="2">
  <advance width="466"/>
  <unicode hex="00A3"/>
  <outline>
    <contour>
      <point x="431" y="511" type="curve"/>
      <point x="376" y="539"/>
      <point x="322" y="542"/>
      <point x="291" y="542" type="curve" smooth="yes"/>
      <point x="152" y="542"/>
      <point x="64" y="419"/>
      <point x="77" y="254" type="curve" smooth="yes"/>
      <point x="90" y="92"/>
      <point x="75" y="67"/>
      <point x="19" y="21" type="curve"/>
      <point x="38" y="-13" type="line"/>
      <point x="124" y="41"/>
      <point x="346" y="-43"/>
      <point x="424" y="0" type="curve"/>
      <point x="429" y="17"/>
      <point x="442" y="91"/>
      <point x="447" y="142" type="curve"/>
      <point x="410" y="154" type="line"/>
      <point x="385" y="86"/>
      <point x="365" y="67"/>
      <point x="311" y="66" type="curve" smooth="yes"/>
      <point x="246" y="64"/>
      <point x="246" y="72"/>
      <point x="166" y="66" type="curve"/>
      <point x="204" y="120"/>
      <point x="218" y="179"/>
      <point x="210" y="261" type="curve" smooth="yes"/>
      <point x="187" y="475"/>
      <point x="252" y="486"/>
      <point x="285" y="486" type="curve" smooth="yes"/>
      <point x="336" y="486"/>
      <point x="367" y="437"/>
      <point x="375" y="364" type="curve"/>
      <point x="413" y="364" type="line"/>
      <point x="420" y="387"/>
      <point x="430" y="482"/>
    </contour>
    <contour>
      <point x="331" y="226" type="line"/>
      <point x="351" y="269" type="line"/>
      <point x="336" y="284" type="line"/>
      <point x="33" y="284" type="line"/>
      <point x="29" y="275"/>
      <point x="17" y="250"/>
      <point x="14" y="242" type="curve"/>
      <point x="29" y="226" type="line"/>
    </contour>
  </outline>
</glyph>
<glyph name="currency" format="2">
  <advance width="487"/>
  <unicode hex="00A4"/>
  <outline>
    <contour>
      <point x="464" y="156" type="line"/>
      <point x="381" y="239" type="line"/>
      <point x="405" y="267"/>
      <point x="416" y="304"/>
      <point x="416" y="342" type="curve" smooth="yes"/>
      <point x="416" y="380"/>
      <point x="403" y="419"/>
      <point x="380" y="448" type="curve"/>
      <point x="464" y="531" type="line"/>
      <point x="435" y="560" type="line"/>
      <point x="350" y="475" type="line"/>
      <point x="323" y="498"/>
      <point x="286" y="511"/>
      <point x="249" y="511" type="curve" smooth="yes"/>
      <point x="212" y="511"/>
      <point x="173" y="499"/>
      <point x="144" y="476" type="curve"/>
      <point x="60" y="560" type="line"/>
      <point x="32" y="531" type="line"/>
      <point x="116" y="447" type="line"/>
      <point x="90" y="419"/>
      <point x="79" y="378"/>
      <point x="79" y="341" type="curve" smooth="yes"/>
      <point x="79" y="303"/>
      <point x="91" y="267"/>
      <point x="114" y="239" type="curve"/>
      <point x="32" y="156" type="line"/>
      <point x="60" y="128" type="line"/>
      <point x="143" y="210" type="line"/>
      <point x="172" y="184"/>
      <point x="209" y="172"/>
      <point x="249" y="172" type="curve" smooth="yes"/>
      <point x="286" y="172"/>
      <point x="323" y="185"/>
      <point x="352" y="210" type="curve"/>
      <point x="435" y="128" type="line"/>
    </contour>
    <contour>
      <point x="371" y="342" type="curve" smooth="yes"/>
      <point x="371" y="275"/>
      <point x="317" y="218"/>
      <point x="249" y="218" type="curve" smooth="yes"/>
      <point x="180" y="218"/>
      <point x="124" y="272"/>
      <point x="124" y="341" type="curve" smooth="yes"/>
      <point x="124" y="411"/>
      <point x="180" y="465"/>
      <point x="249" y="465" type="curve" smooth="yes"/>
      <point x="316" y="465"/>
      <point x="371" y="408"/>
    </contour>
  </outline>
</glyph>
<glyph name="yen" format="2">
  <advance width="444"/>
  <unicode hex="00A5"/>
  <outline>
    <contour>
      <point x="101" y="0" type="line"/>
      <point x="338" y="0" type="line"/>
      <point x="338" y="27" type="line"/>
      <point x="283" y="38"/>
      <point x="268" y="51"/>
      <point x="268" y="59" type="curve" smooth="yes"/>
      <point x="268" y="177" type="line"/>
      <point x="382" y="177" type="line"/>
      <point x="396" y="215" type="line"/>
      <point x="385" y="226" type="line"/>
      <point x="268" y="226" type="line"/>
      <point x="268" y="238" type="line"/>
      <point x="392" y="472" type="line" smooth="yes"/>
      <point x="400" y="487"/>
      <point x="418" y="493"/>
      <point x="458" y="501" type="curve"/>
      <point x="458" y="529" type="line"/>
      <point x="278" y="529" type="line"/>
      <point x="278" y="501" type="line"/>
      <point x="323" y="495"/>
      <point x="335" y="487"/>
      <point x="326" y="472" type="curve" smooth="yes"/>
      <point x="239" y="309" type="line"/>
      <point x="198" y="393"/>
      <point x="162" y="456"/>
      <point x="118" y="514" type="curve" smooth="yes"/>
      <point x="109" y="526"/>
      <point x="92" y="533"/>
      <point x="78" y="533" type="curve" smooth="yes"/>
      <point x="53" y="533"/>
      <point x="0" y="526"/>
      <point x="-33" y="522" type="curve"/>
      <point x="-31" y="494" type="line"/>
      <point x="16" y="494"/>
      <point x="27" y="485"/>
      <point x="38" y="472" type="curve" smooth="yes"/>
      <point x="78" y="419"/>
      <point x="130" y="328"/>
      <point x="171" y="239" type="curve"/>
      <point x="171" y="226" type="line"/>
      <point x="50" y="226" type="line"/>
      <point x="47" y="216"/>
      <point x="40" y="197"/>
      <point x="37" y="188" type="curve"/>
      <point x="47" y="177" type="line"/>
      <point x="171" y="177" type="line"/>
      <point x="171" y="59" type="line" smooth="yes"/>
      <point x="171" y="50"/>
      <point x="154" y="38"/>
      <point x="101" y="27" type="curve"/>
    </contour>
  </outline>
</glyph>
<glyph name="brokenbar" format="2">
  <advance width="219"/>
  <unicode hex="00A6"/>
  <outline>
    <contour>
      <point x="152" y="341" type="curve"/>
      <point x="152" y="719" type="line"/>
      <point x="131" y="733" type="line"/>
      <point x="113" y="729"/>
      <point x="84" y="717"/>
      <point x="67" y="707" type="curve"/>
      <point x="67" y="328" type="line"/>
      <point x="88" y="314" type="line"/>
      <point x="102" y="319"/>
      <point x="140" y="332"/>
    </contour>
    <contour>
      <point x="152" y="-151" type="curve"/>
      <point x="152" y="222" type="line"/>
      <point x="131" y="237" type="line"/>
      <point x="113" y="232"/>
      <point x="84" y="220"/>
      <point x="67" y="210" type="curve"/>
      <point x="67" y="-163" type="line"/>
      <point x="88" y="-178" type="line"/>
      <point x="102" y="-173"/>
      <point x="140" y="-160"/>
    </contour>
  </outline>
</glyph>
<glyph name="section" format="2">
  <advance width="440"/>
  <unicode hex="00A7"/>
  <outline>
    <contour>
      <point x="200" y="-13" type="curve" smooth="yes"/>
      <point x="245" y="-13"/>
      <point x="366" y="-4"/>
      <point x="366" y="119" type="curve" smooth="yes"/>
      <point x="366" y="185"/>
      <point x="301" y="215"/>
      <point x="250" y="241" type="curve"/>
      <point x="167" y="287"/>
      <point x="129" y="310"/>
      <point x="129" y="362" type="curve" smooth="yes"/>
      <point x="129" y="397"/>
      <point x="159" y="430"/>
      <point x="197" y="434" type="curve"/>
      <point x="165" y="472" type="line"/>
      <point x="103" y="459"/>
      <point x="48" y="399"/>
      <point x="48" y="341" type="curve" smooth="yes"/>
      <point x="48" y="263"/>
      <point x="106" y="220"/>
      <point x="169" y="186" type="curve" smooth="yes"/>
      <point x="223" y="157"/>
      <point x="283" y="135"/>
      <point x="283" y="88" type="curve" smooth="yes"/>
      <point x="283" y="51"/>
      <point x="259" y="36"/>
      <point x="217" y="36" type="curve" smooth="yes"/>
      <point x="163" y="36"/>
      <point x="119" y="79"/>
      <point x="110" y="137" type="curve"/>
      <point x="80" y="141" type="line"/>
      <point x="69" y="104"/>
      <point x="69" y="24"/>
      <point x="77" y="21" type="curve"/>
      <point x="116" y="0"/>
      <point x="165" y="-13"/>
    </contour>
    <contour>
      <point x="295" y="154" type="line"/>
      <point x="337" y="162"/>
      <point x="392" y="213"/>
      <point x="392" y="292" type="curve" smooth="yes"/>
      <point x="392" y="378"/>
      <point x="330" y="414"/>
      <point x="265" y="450" type="curve" smooth="yes"/>
      <point x="200" y="485"/>
      <point x="159" y="505"/>
      <point x="159" y="544" type="curve" smooth="yes"/>
      <point x="159" y="572"/>
      <point x="180" y="588"/>
      <point x="217" y="588" type="curve" smooth="yes"/>
      <point x="252" y="588"/>
      <point x="281" y="562"/>
      <point x="300" y="514" type="curve"/>
      <point x="326" y="511" type="line"/>
      <point x="338" y="526"/>
      <point x="358" y="590"/>
      <point x="350" y="596" type="curve"/>
      <point x="324" y="617"/>
      <point x="270" y="632"/>
      <point x="224" y="632" type="curve" smooth="yes"/>
      <point x="149" y="632"/>
      <point x="76" y="593"/>
      <point x="76" y="520" type="curve" smooth="yes"/>
      <point x="76" y="463"/>
      <point x="132" y="423"/>
      <point x="185" y="395" type="curve" smooth="yes"/>
      <point x="271" y="348"/>
      <point x="311" y="321"/>
      <point x="311" y="263" type="curve" smooth="yes"/>
      <point x="311" y="228"/>
      <point x="281" y="196"/>
      <point x="246" y="195" type="curve"/>
    </contour>
  </outline>
</glyph>
<glyph name="dieresis" format="2">
  <advance width="352"/>
  <unicode hex="00A8"/>
  <outline>
    <contour>
      <point x="139" y="556" type="curve"/>
      <point x="139" y="588"/>
      <point x="122" y="605"/>
      <point x="92" y="605" type="curve" smooth="yes"/>
      <point x="59" y="605"/>
      <point x="30" y="573"/>
      <point x="30" y="533" type="curve" smooth="yes"/>
      <point x="30" y="501"/>
      <point x="45" y="484"/>
      <point x="77" y="484" type="curve" smooth="yes"/>
      <point x="111" y="484"/>
      <point x="139" y="516"/>
    </contour>
    <contour>
      <point x="322" y="556" type="curve"/>
      <point x="322" y="588"/>
      <point x="305" y="605"/>
      <point x="275" y="605" type="curve" smooth="yes"/>
      <point x="241" y="605"/>
      <point x="212" y="573"/>
      <point x="212" y="533" type="curve" smooth="yes"/>
      <point x="212" y="501"/>
      <point x="228" y="484"/>
      <point x="259" y="484" type="curve" smooth="yes"/>
      <point x="294" y="484"/>
      <point x="322" y="516"/>
    </contour>
  </outline>
</glyph>
<glyph name="copyright" format="2">
  <advance width="652"/>
  <unicode hex="00A9"/>
  <outline>
    <contour>
      <point x="325" y="-13" type="curve" smooth="yes"/>
      <point x="491" y="-13"/>
      <point x="612" y="121"/>
      <point x="612" y="287" type="curve" smooth="yes"/>
      <point x="612" y="453"/>
      <point x="491" y="587"/>
      <point x="325" y="587" type="curve" smooth="yes"/>
      <point x="159" y="587"/>
      <point x="39" y="453"/>
      <point x="39" y="287" type="curve" smooth="yes"/>
      <point x="39" y="121"/>
      <point x="159" y="-13"/>
    </contour>
    <contour>
      <point x="315" y="100" type="curve" smooth="yes"/>
      <point x="360" y="100"/>
      <point x="403" y="113"/>
      <point x="461" y="174" type="curve"/>
      <point x="444" y="194" type="line"/>
      <point x="396" y="159"/>
      <point x="375" y="153"/>
      <point x="349" y="153" type="curve" smooth="yes"/>
      <point x="298" y="153"/>
      <point x="235" y="202"/>
      <point x="235" y="288" type="curve" smooth="yes"/>
      <point x="235" y="391"/>
      <point x="286" y="430"/>
      <point x="331" y="430" type="curve" smooth="yes"/>
      <point x="371" y="430"/>
      <point x="391" y="399"/>
      <point x="406" y="368" type="curve"/>
      <point x="426" y="365" type="line"/>
      <point x="435" y="376"/>
      <point x="459" y="433"/>
      <point x="456" y="441" type="curve"/>
      <point x="437" y="458"/>
      <point x="396" y="472"/>
      <point x="355" y="472" type="curve" smooth="yes"/>
      <point x="244" y="472"/>
      <point x="158" y="387"/>
      <point x="158" y="275" type="curve" smooth="yes"/>
      <point x="158" y="166"/>
      <point x="236" y="100"/>
    </contour>
    <contour>
      <point x="325" y="34" type="curve" smooth="yes"/>
      <point x="187" y="34"/>
      <point x="87" y="147"/>
      <point x="87" y="287" type="curve" smooth="yes"/>
      <point x="87" y="425"/>
      <point x="187" y="539"/>
      <point x="325" y="539" type="curve" smooth="yes"/>
      <point x="465" y="539"/>
      <point x="565" y="425"/>
      <point x="565" y="287" type="curve" smooth="yes"/>
      <point x="565" y="147"/>
      <point x="465" y="34"/>
    </contour>
  </outline>
</glyph>
<glyph name="ordfeminine" format="2">
  <advance width="241"/>
  <unicode hex="00AA"/>
  <outline>
    <contour>
      <point x="236" y="346" type="curve"/>
      <point x="232" y="362" type="line"/>
      <point x="215" y="355"/>
      <point x="209" y="355"/>
      <point x="206" y="356" type="curve" smooth="yes"/>
      <point x="202" y="360"/>
      <point x="199" y="366"/>
      <point x="199" y="383" type="curve" smooth="yes"/>
      <point x="199" y="469" type="line" smooth="yes"/>
      <point x="199" y="532"/>
      <point x="180" y="550"/>
      <point x="138" y="550" type="curve" smooth="yes"/>
      <point x="96" y="550"/>
      <point x="36" y="520"/>
      <point x="25" y="481" type="curve"/>
      <point x="29" y="471" type="line"/>
      <point x="37" y="469"/>
      <point x="87" y="481"/>
      <point x="86" y="487" type="curve" smooth="yes"/>
      <point x="79" y="509"/>
      <point x="98" y="521"/>
      <point x="115" y="521" type="curve" smooth="yes"/>
      <point x="145" y="521"/>
      <point x="148" y="502"/>
      <point x="148" y="466" type="curve" smooth="yes"/>
      <point x="148" y="384" type="line" smooth="yes"/>
      <point x="148" y="332"/>
      <point x="159" y="316"/>
      <point x="169" y="316" type="curve" smooth="yes"/>
      <point x="185" y="316"/>
      <point x="209" y="328"/>
    </contour>
    <contour>
      <point x="127" y="433" type="curve"/>
      <point x="178" y="446" type="line"/>
      <point x="177" y="467" type="line"/>
      <point x="104" y="450" type="line" smooth="yes"/>
      <point x="44" y="436"/>
      <point x="19" y="402"/>
      <point x="19" y="366" type="curve" smooth="yes"/>
      <point x="19" y="330"/>
      <point x="48" y="316"/>
      <point x="72" y="316" type="curve" smooth="yes"/>
      <point x="93" y="316"/>
      <point x="124" y="326"/>
      <point x="154" y="358" type="curve"/>
      <point x="152" y="382" type="line"/>
      <point x="128" y="360"/>
      <point x="110" y="353"/>
      <point x="95" y="353" type="curve" smooth="yes"/>
      <point x="87" y="353"/>
      <point x="74" y="359"/>
      <point x="74" y="381" type="curve" smooth="yes"/>
      <point x="74" y="406"/>
      <point x="90" y="424"/>
    </contour>
    <contour>
      <point x="20" y="257" type="line"/>
      <point x="224" y="257" type="line"/>
      <point x="224" y="293" type="line"/>
      <point x="20" y="293" type="line"/>
    </contour>
  </outline>
</glyph>
<glyph name="guillemetleft" format="2">
  <advance width="359"/>
  <unicode hex="00AB"/>
  <outline>
    <contour>
      <point x="148" y="0" type="line"/>
      <point x="207" y="0" type="line"/>
      <point x="107" y="192" type="line"/>
      <point x="207" y="385" type="line"/>
      <point x="148" y="385" type="line"/>
      <point x="19" y="212" type="line"/>
      <point x="19" y="172" type="line"/>
    </contour>
    <contour>
      <point x="296" y="0" type="line"/>
      <point x="355" y="0" type="line"/>
      <point x="255" y="192" type="line"/>
      <point x="355" y="385" type="line"/>
      <point x="296" y="385" type="line"/>
      <point x="167" y="212" type="line"/>
      <point x="167" y="172" type="line"/>
    </contour>
  </outline>
</glyph>
<glyph name="guillemotleft" format="2">
  <advance width="471"/>
  <unicode hex="00AB"/>
  <outline>
    <contour>
      <point x="210" y="188" type="curve"/>
      <point x="391" y="-1" type="line"/>
      <point x="419" y="20" type="line"/>
      <point x="335" y="205" type="line"/>
      <point x="333" y="204"/>
      <point x="419" y="388"/>
      <point x="418" y="388" type="curve"/>
      <point x="391" y="410" type="line"/>
      <point x="211" y="221" type="line" smooth="yes"/>
      <point x="210" y="219"/>
      <point x="210" y="188"/>
    </contour>
    <contour>
      <point x="26" y="188" type="curve"/>
      <point x="206" y="-1" type="line"/>
      <point x="234" y="20" type="line"/>
      <point x="150" y="205" type="line"/>
      <point x="149" y="204"/>
      <point x="234" y="388"/>
      <point x="234" y="388" type="curve"/>
      <point x="206" y="410" type="line"/>
      <point x="27" y="221" type="line" smooth="yes"/>
      <point x="26" y="219"/>
      <point x="26" y="188"/>
    </contour>
  </outline>
</glyph>
<glyph name="logicalnot" format="2">
  <advance width="444"/>
  <unicode hex="00AC"/>
  <outline>
    <contour>
      <point x="409" y="102" type="curve"/>
      <point x="409" y="264" type="line"/>
      <point x="394" y="275" type="line"/>
      <point x="394" y="275"/>
      <point x="394" y="275"/>
      <point x="48" y="275" type="curve"/>
      <point x="43" y="264"/>
      <point x="34" y="242"/>
      <point x="30" y="230" type="curve"/>
      <point x="44" y="217" type="line"/>
      <point x="349" y="217" type="line"/>
      <point x="349" y="88" type="line"/>
      <point x="362" y="75" type="line"/>
      <point x="377" y="80"/>
      <point x="397" y="93"/>
    </contour>
  </outline>
</glyph>
<glyph name="registered" format="2">
  <advance width="320"/>
  <unicode hex="00AE"/>
  <outline>
    <contour>
      <point x="314" y="476" type="curve" smooth="yes"/>
      <point x="314" y="564"/>
      <point x="248" y="637"/>
      <point x="159" y="637" type="curve" smooth="yes"/>
      <point x="71" y="637"/>
      <point x="6" y="564"/>
      <point x="6" y="476" type="curve" smooth="yes"/>
      <point x="6" y="388"/>
      <point x="71" y="315"/>
      <point x="159" y="315" type="curve" smooth="yes"/>
      <point x="248" y="315"/>
      <point x="314" y="388"/>
    </contour>
    <contour>
      <point x="279" y="476" type="curve" smooth="yes"/>
      <point x="279" y="406"/>
      <point x="229" y="350"/>
      <point x="159" y="350" type="curve" smooth="yes"/>
      <point x="90" y="350"/>
      <point x="40" y="406"/>
      <point x="40" y="476" type="curve" smooth="yes"/>
      <point x="40" y="545"/>
      <point x="90" y="602"/>
      <point x="159" y="602" type="curve" smooth="yes"/>
      <point x="229" y="602"/>
      <point x="279" y="545"/>
    </contour>
    <contour>
      <point x="228" y="525" type="curve" smooth="yes"/>
      <point x="228" y="549"/>
      <point x="207" y="568"/>
      <point x="155" y="568" type="curve" smooth="yes"/>
      <point x="130" y="568"/>
      <point x="106" y="566"/>
      <point x="89" y="562" type="curve"/>
      <point x="90" y="546" type="line"/>
      <point x="109" y="549"/>
      <point x="134" y="551"/>
      <point x="150" y="551" type="curve" smooth="yes"/>
      <point x="174" y="551"/>
      <point x="188" y="538"/>
      <point x="188" y="521" type="curve" smooth="yes"/>
      <point x="188" y="499"/>
      <point x="178" y="487"/>
      <point x="149" y="487" type="curve" smooth="yes"/>
      <point x="144" y="487"/>
      <point x="140" y="487"/>
      <point x="134" y="489" type="curve"/>
      <point x="134" y="470" type="line"/>
      <point x="140" y="469"/>
      <point x="146" y="468"/>
      <point x="151" y="468" type="curve" smooth="yes"/>
      <point x="203" y="468"/>
      <point x="228" y="490"/>
    </contour>
    <contour>
      <point x="246" y="395" type="curve"/>
      <point x="245" y="406" type="line"/>
      <point x="232" y="405"/>
      <point x="228" y="406"/>
      <point x="225" y="413" type="curve" smooth="yes"/>
      <point x="178" y="482" type="line"/>
      <point x="151" y="475" type="line"/>
      <point x="192" y="392" type="line" smooth="yes"/>
      <point x="194" y="388"/>
      <point x="199" y="386"/>
      <point x="204" y="386" type="curve" smooth="yes"/>
      <point x="210" y="386"/>
      <point x="234" y="391"/>
    </contour>
    <contour>
      <point x="90" y="388" type="line"/>
      <point x="156" y="388" type="line"/>
      <point x="156" y="399" type="line"/>
      <point x="143" y="401"/>
      <point x="141" y="404"/>
      <point x="141" y="406" type="curve" smooth="yes"/>
      <point x="141" y="560" type="line"/>
      <point x="106" y="560" type="line"/>
      <point x="106" y="406" type="line" smooth="yes"/>
      <point x="106" y="403"/>
      <point x="102" y="401"/>
      <point x="90" y="399" type="curve"/>
    </contour>
  </outline>
</glyph>
<glyph name="macron" format="2">
  <advance width="443"/>
  <unicode hex="00AF"/>
  <outline>
    <contour>
      <point x="396" y="570" type="curve"/>
      <point x="383" y="583" type="line"/>
      <point x="70" y="583" type="line"/>
      <point x="64" y="571"/>
      <point x="50" y="542"/>
      <point x="47" y="529" type="curve"/>
      <point x="60" y="516" type="line"/>
      <point x="374" y="516" type="line"/>
      <point x="378" y="526"/>
      <point x="393" y="557"/>
    </contour>
  </outline>
</glyph>
<glyph name="degree" format="2">
  <advance width="322"/>
  <unicode hex="00B0"/>
  <outline>
    <contour>
      <point x="275" y="462" type="curve" smooth="yes"/>
      <point x="275" y="513"/>
      <point x="232" y="558"/>
      <point x="180" y="558" type="curve" smooth="yes"/>
      <point x="116" y="558"/>
      <point x="46" y="497"/>
      <point x="46" y="413" type="curve" smooth="yes"/>
      <point x="46" y="361"/>
      <point x="86" y="317"/>
      <point x="141" y="317" type="curve" smooth="yes"/>
      <point x="204" y="317"/>
      <point x="275" y="379"/>
    </contour>
    <contour>
      <point x="202" y="437" type="curve" smooth="yes"/>
      <point x="202" y="405"/>
      <point x="179" y="386"/>
      <point x="156" y="386" type="curve" smooth="yes"/>
      <point x="134" y="386"/>
      <point x="119" y="412"/>
      <point x="119" y="438" type="curve" smooth="yes"/>
      <point x="119" y="469"/>
      <point x="141" y="489"/>
      <point x="165" y="489" type="curve" smooth="yes"/>
      <point x="188" y="489"/>
      <point x="202" y="464"/>
    </contour>
  </outline>
</glyph>
<glyph name="twosuperior" format="2">
  <advance width="317"/>
  <unicode hex="00B2"/>
  <outline>
    <contour>
      <point x="289" y="272" type="line"/>
      <point x="293" y="376" type="line"/>
      <point x="266" y="381" type="line"/>
      <point x="266" y="381"/>
      <point x="262" y="327"/>
      <point x="235" y="327" type="curve" smooth="yes"/>
      <point x="127" y="327" type="line"/>
      <point x="260" y="451"/>
      <point x="289" y="486"/>
      <point x="289" y="533" type="curve" smooth="yes"/>
      <point x="289" y="575"/>
      <point x="247" y="598"/>
      <point x="179" y="598" type="curve" smooth="yes"/>
      <point x="98" y="598"/>
      <point x="32" y="552"/>
      <point x="32" y="516" type="curve"/>
      <point x="43" y="495" type="line"/>
      <point x="62" y="497"/>
      <point x="115" y="506"/>
      <point x="129" y="513" type="curve"/>
      <point x="122" y="540"/>
      <point x="130" y="561"/>
      <point x="159" y="561" type="curve" smooth="yes"/>
      <point x="184" y="561"/>
      <point x="193" y="544"/>
      <point x="193" y="515" type="curve" smooth="yes"/>
      <point x="193" y="479"/>
      <point x="167" y="436"/>
      <point x="24" y="291" type="curve"/>
      <point x="32" y="272" type="line"/>
    </contour>
  </outline>
</glyph>
<glyph name="threesuperior" format="2">
  <advance width="317"/>
  <unicode hex="00B3"/>
  <outline>
    <contour>
      <point x="290" y="373" type="curve" smooth="yes"/>
      <point x="290" y="415"/>
      <point x="263" y="452"/>
      <point x="211" y="456" type="curve"/>
      <point x="250" y="466"/>
      <point x="272" y="498"/>
      <point x="272" y="525" type="curve" smooth="yes"/>
      <point x="272" y="560"/>
      <point x="243" y="598"/>
      <point x="163" y="598" type="curve" smooth="yes"/>
      <point x="84" y="598"/>
      <point x="32" y="546"/>
      <point x="32" y="517" type="curve"/>
      <point x="43" y="498" type="line"/>
      <point x="68" y="500"/>
      <point x="101" y="510"/>
      <point x="119" y="519" type="curve"/>
      <point x="111" y="543"/>
      <point x="128" y="561"/>
      <point x="146" y="561" type="curve" smooth="yes"/>
      <point x="167" y="561"/>
      <point x="175" y="544"/>
      <point x="175" y="520" type="curve" smooth="yes"/>
      <point x="175" y="498"/>
      <point x="174" y="468"/>
      <point x="105" y="453" type="curve"/>
      <point x="111" y="422" type="line"/>
      <point x="123" y="424"/>
      <point x="127" y="424"/>
      <point x="138" y="424" type="curve" smooth="yes"/>
      <point x="162" y="424"/>
      <point x="192" y="414"/>
      <point x="192" y="368" type="curve" smooth="yes"/>
      <point x="192" y="332"/>
      <point x="169" y="310"/>
      <point x="136" y="310" type="curve" smooth="yes"/>
      <point x="105" y="310"/>
      <point x="74" y="322"/>
      <point x="37" y="346" type="curve"/>
      <point x="24" y="308" type="line"/>
      <point x="61" y="278"/>
      <point x="114" y="264"/>
      <point x="146" y="264" type="curve" smooth="yes"/>
      <point x="230" y="264"/>
      <point x="290" y="313"/>
    </contour>
  </outline>
</glyph>
<glyph name="mu" format="2">
  <advance width="503"/>
  <unicode hex="00B5"/>
  <outline>
    <contour>
      <point x="498" y="40" type="curve"/>
      <point x="489" y="68" type="line"/>
      <point x="470" y="60"/>
      <point x="458" y="56"/>
      <point x="445" y="56" type="curve" smooth="yes"/>
      <point x="433" y="56"/>
      <point x="428" y="72"/>
      <point x="428" y="126" type="curve" smooth="yes"/>
      <point x="428" y="144"/>
      <point x="428" y="323"/>
      <point x="428" y="333" type="curve"/>
      <point x="429" y="370"/>
      <point x="433" y="387"/>
      <point x="435" y="402" type="curve"/>
      <point x="420" y="421" type="line"/>
      <point x="391" y="411"/>
      <point x="349" y="401"/>
      <point x="319" y="395" type="curve"/>
      <point x="327" y="384"/>
      <point x="336" y="347"/>
      <point x="336" y="328" type="curve" smooth="yes"/>
      <point x="336" y="314"/>
      <point x="336" y="107"/>
      <point x="336" y="94" type="curve" smooth="yes"/>
      <point x="336" y="38"/>
      <point x="350" y="-13"/>
      <point x="383" y="-13" type="curve" smooth="yes"/>
      <point x="410" y="-13"/>
      <point x="464" y="16"/>
    </contour>
    <contour>
      <point x="362" y="109" type="curve"/>
      <point x="356" y="159" type="line"/>
      <point x="301" y="79"/>
      <point x="269" y="68"/>
      <point x="240" y="68" type="curve" smooth="yes"/>
      <point x="206" y="68"/>
      <point x="169" y="117"/>
      <point x="169" y="165" type="curve" smooth="yes"/>
      <point x="169" y="171"/>
      <point x="169" y="397"/>
      <point x="169" y="400" type="curve"/>
      <point x="164" y="406"/>
      <point x="150" y="421"/>
      <point x="150" y="421" type="curve"/>
      <point x="110" y="406"/>
      <point x="72" y="398"/>
      <point x="22" y="392" type="curve"/>
      <point x="22" y="366" type="line"/>
      <point x="77" y="360"/>
      <point x="76" y="355"/>
      <point x="76" y="310" type="curve" smooth="yes"/>
      <point x="76" y="304"/>
      <point x="76" y="207"/>
      <point x="76" y="198" type="curve" smooth="yes"/>
      <point x="76" y="82"/>
      <point x="161" y="-13"/>
      <point x="217" y="-13" type="curve" smooth="yes"/>
      <point x="260" y="-13"/>
      <point x="305" y="24"/>
    </contour>
    <contour>
      <point x="125" y="201" type="curve"/>
      <point x="122" y="225"/>
      <point x="76" y="270"/>
      <point x="76" y="270" type="curve"/>
      <point x="76" y="239"/>
      <point x="76" y="-192"/>
      <point x="76" y="-204" type="curve"/>
      <point x="96" y="-219" type="line"/>
      <point x="110" y="-212"/>
      <point x="178" y="-185"/>
      <point x="195" y="-179" type="curve"/>
      <point x="162" y="-142"/>
      <point x="126" y="-72"/>
      <point x="126" y="42" type="curve"/>
      <point x="127" y="110"/>
      <point x="121" y="148"/>
    </contour>
  </outline>
</glyph>
<glyph name="paragraph" format="2">
  <advance width="416"/>
  <unicode hex="00B6"/>
  <outline>
    <contour>
      <point x="344" y="483" type="line"/>
      <point x="394" y="491" type="line"/>
      <point x="394" y="536" type="line"/>
      <point x="218" y="536" type="line" smooth="yes"/>
      <point x="96" y="536"/>
      <point x="21" y="496"/>
      <point x="21" y="375" type="curve" smooth="yes"/>
      <point x="21" y="247"/>
      <point x="110" y="215"/>
      <point x="236" y="215" type="curve"/>
      <point x="236" y="486" type="line"/>
      <point x="286" y="486" type="line"/>
      <point x="286" y="-63" type="line"/>
      <point x="344" y="-63" type="line"/>
    </contour>
  </outline>
</glyph>
<glyph name="periodcentered" format="2">
  <advance width="166"/>
  <unicode hex="00B7"/>
  <outline>
    <contour>
      <point x="144" y="312" type="curve"/>
      <point x="144" y="348"/>
      <point x="120" y="365"/>
      <point x="91" y="365" type="curve" smooth="yes"/>
      <point x="54" y="365"/>
      <point x="22" y="337"/>
      <point x="22" y="297" type="curve" smooth="yes"/>
      <point x="22" y="261"/>
      <point x="45" y="244"/>
      <point x="75" y="244" type="curve" smooth="yes"/>
      <point x="114" y="244"/>
      <point x="144" y="271"/>
    </contour>
  </outline>
</glyph>
<glyph name="cedilla" format="2">
  <advance width="206"/>
  <unicode hex="00B8"/>
  <outline>
    <contour>
      <point x="206" y="-100" type="curve" smooth="yes"/>
      <point x="206" y="-67"/>
      <point x="181" y="-45"/>
      <point x="131" y="-36" type="curve"/>
      <point x="154" y="21" type="line"/>
      <point x="93" y="22" type="line"/>
      <point x="62" y="-75"/>
      <point x="51" y="-87"/>
      <point x="51" y="-87" type="curve"/>
      <point x="73" y="-89"/>
      <point x="88" y="-97"/>
      <point x="88" y="-116" type="curve" smooth="yes"/>
      <point x="88" y="-135"/>
      <point x="68" y="-153"/>
      <point x="21" y="-160" type="curve"/>
      <point x="39" y="-195" type="line"/>
      <point x="130" y="-186"/>
      <point x="206" y="-144"/>
    </contour>
  </outline>
</glyph>
<glyph name="onesuperior" format="2">
  <advance width="304"/>
  <unicode hex="00B9"/>
  <anchor x="139" y="644" name="U"/>
  <outline>
    <contour>
      <point x="241" y="306" type="line"/>
      <point x="241" y="331" type="line"/>
      <point x="200" y="332" type="line" smooth="yes"/>
      <point x="194" y="332"/>
      <point x="188" y="337"/>
      <point x="188" y="343" type="curve" smooth="yes"/>
      <point x="188" y="635" type="line"/>
      <point x="150" y="635" type="line"/>
      <point x="38" y="598" type="line"/>
      <point x="38" y="572" type="line"/>
      <point x="116" y="583" type="line"/>
      <point x="116" y="343" type="line" smooth="yes"/>
      <point x="116" y="337"/>
      <point x="111" y="332"/>
      <point x="104" y="332" type="curve" smooth="yes"/>
      <point x="60" y="331" type="line"/>
      <point x="60" y="306" type="line"/>
    </contour>
  </outline>
</glyph>
<glyph name="ordmasculine" format="2">
  <advance width="253"/>
  <unicode hex="00BA"/>
  <outline>
    <contour>
      <point x="235" y="437" type="curve"/>
      <point x="235" y="501"/>
      <point x="193" y="550"/>
      <point x="132" y="550" type="curve" smooth="yes"/>
      <point x="65" y="550"/>
      <point x="17" y="489"/>
      <point x="17" y="428" type="curve" smooth="yes"/>
      <point x="17" y="364"/>
      <point x="57" y="316"/>
      <point x="120" y="316" type="curve" smooth="yes"/>
      <point x="179" y="316"/>
      <point x="235" y="377"/>
    </contour>
    <contour>
      <point x="21" y="257" type="line"/>
      <point x="230" y="257" type="line"/>
      <point x="230" y="293" type="line"/>
      <point x="21" y="293" type="line"/>
    </contour>
    <contour>
      <point x="181" y="428" type="curve"/>
      <point x="181" y="378"/>
      <point x="165" y="344"/>
      <point x="131" y="344" type="curve" smooth="yes"/>
      <point x="99" y="344"/>
      <point x="70" y="387"/>
      <point x="70" y="437" type="curve" smooth="yes"/>
      <point x="70" y="487"/>
      <point x="87" y="522"/>
      <point x="121" y="522" type="curve" smooth="yes"/>
      <point x="158" y="522"/>
      <point x="181" y="477"/>
    </contour>
  </outline>
</glyph>
<glyph name="guillemetright" format="2">
  <advance width="359"/>
  <unicode hex="00BB"/>
  <outline>
    <contour>
      <point x="210" y="385" type="line"/>
      <point x="152" y="385" type="line"/>
      <point x="251" y="192" type="line"/>
      <point x="152" y="0" type="line"/>
      <point x="210" y="0" type="line"/>
      <point x="339" y="173" type="line"/>
      <point x="339" y="213" type="line"/>
    </contour>
    <contour>
      <point x="62" y="385" type="line"/>
      <point x="3" y="385" type="line"/>
      <point x="103" y="192" type="line"/>
      <point x="3" y="0" type="line"/>
      <point x="62" y="0" type="line"/>
      <point x="191" y="173" type="line"/>
      <point x="191" y="213" type="line"/>
    </contour>
  </outline>
</glyph>
<glyph name="guillemotright" format="2">
  <advance width="454"/>
  <unicode hex="00BB"/>
  <outline>
    <contour>
      <point x="249" y="188" type="line"/>
      <point x="249" y="220" type="line"/>
      <point x="80" y="405" type="line"/>
      <point x="57" y="388" type="line"/>
      <point x="149" y="204" type="line"/>
      <point x="57" y="20" type="line"/>
      <point x="80" y="3" type="line"/>
    </contour>
    <contour>
      <point x="423" y="188" type="line"/>
      <point x="423" y="220" type="line"/>
      <point x="254" y="405" type="line"/>
      <point x="230" y="388" type="line"/>
      <point x="323" y="204" type="line"/>
      <point x="230" y="20" type="line"/>
      <point x="254" y="3" type="line"/>
    </contour>
  </outline>
</glyph>
<glyph name="onequarter" format="2">
  <advance width="571"/>
  <unicode hex="00BC"/>
  <outline>
    <contour>
      <point x="134" y="1" type="curve"/>
      <point x="542" y="530" type="line"/>
      <point x="531" y="542" type="line"/>
      <point x="518" y="540"/>
      <point x="481" y="533"/>
      <point x="470" y="528" type="curve"/>
      <point x="60" y="0" type="line"/>
      <point x="71" y="-13" type="line"/>
      <point x="87" y="-9"/>
      <point x="120" y="-5"/>
    </contour>
    <contour>
      <point x="549" y="94" type="curve"/>
      <point x="543" y="101" type="line"/>
      <point x="509" y="101" type="line"/>
      <point x="509" y="253" type="line"/>
      <point x="497" y="262" type="line"/>
      <point x="482" y="257"/>
      <point x="452" y="250"/>
      <point x="436" y="245" type="curve"/>
      <point x="316" y="78" type="line"/>
      <point x="327" y="69" type="line"/>
      <point x="445" y="69" type="line"/>
      <point x="445" y="32" type="line" smooth="yes"/>
      <point x="445" y="27"/>
      <point x="435" y="23"/>
      <point x="391" y="17" type="curve"/>
      <point x="391" y="0" type="line"/>
      <point x="544" y="0" type="line"/>
      <point x="544" y="17" type="line"/>
      <point x="517" y="22"/>
      <point x="509" y="26"/>
      <point x="509" y="30" type="curve" smooth="yes"/>
      <point x="509" y="69" type="line"/>
      <point x="522" y="69" type="line"/>
      <point x="529" y="74"/>
      <point x="542" y="85"/>
    </contour>
    <contour>
      <point x="445" y="202" type="line"/>
      <point x="445" y="101" type="line"/>
      <point x="369" y="101" type="line"/>
    </contour>
    <contour>
      <point x="37" y="279" type="line"/>
      <point x="235" y="279" type="line"/>
      <point x="235" y="299" type="line"/>
      <point x="185" y="304"/>
      <point x="172" y="312"/>
      <point x="172" y="318" type="curve" smooth="yes"/>
      <point x="172" y="533" type="line"/>
      <point x="161" y="542" type="line"/>
      <point x="136" y="533"/>
      <point x="58" y="511"/>
      <point x="29" y="506" type="curve"/>
      <point x="37" y="487" type="line"/>
      <point x="81" y="495"/>
      <point x="96" y="493"/>
      <point x="100" y="490" type="curve" smooth="yes"/>
      <point x="104" y="486"/>
      <point x="105" y="480"/>
      <point x="105" y="469" type="curve" smooth="yes"/>
      <point x="105" y="318" type="line" smooth="yes"/>
      <point x="105" y="312"/>
      <point x="90" y="304"/>
      <point x="37" y="299" type="curve"/>
    </contour>
  </outline>
</glyph>
<glyph name="onehalf" format="2">
  <advance width="725"/>
  <unicode hex="00BD"/>
  <outline>
    <contour>
      <point x="689" y="0" type="line"/>
      <point x="689" y="94" type="line"/>
      <point x="655" y="94" type="line"/>
      <point x="646" y="51" type="line"/>
      <point x="503" y="51" type="line"/>
      <point x="606" y="113"/>
      <point x="679" y="166"/>
      <point x="679" y="235" type="curve" smooth="yes"/>
      <point x="679" y="292"/>
      <point x="628" y="328"/>
      <point x="563" y="328" type="curve" smooth="yes"/>
      <point x="517" y="328"/>
      <point x="438" y="313"/>
      <point x="438" y="252" type="curve" smooth="yes"/>
      <point x="438" y="232"/>
      <point x="451" y="217"/>
      <point x="477" y="217" type="curve" smooth="yes"/>
      <point x="494" y="217"/>
      <point x="512" y="226"/>
      <point x="512" y="226" type="curve"/>
      <point x="512" y="291" type="line"/>
      <point x="524" y="294"/>
      <point x="525" y="296"/>
      <point x="539" y="296" type="curve" smooth="yes"/>
      <point x="579" y="296"/>
      <point x="601" y="267"/>
      <point x="601" y="230" type="curve" smooth="yes"/>
      <point x="601" y="145"/>
      <point x="476" y="71"/>
      <point x="435" y="39" type="curve"/>
      <point x="435" y="0" type="line"/>
    </contour>
    <contour>
      <point x="557" y="555" type="line"/>
      <point x="499" y="555" type="line"/>
      <point x="145" y="0" type="line"/>
      <point x="203" y="0" type="line"/>
    </contour>
    <contour>
      <point x="239" y="235" type="line"/>
      <point x="239" y="260" type="line"/>
      <point x="199" y="262" type="line" smooth="yes"/>
      <point x="192" y="262"/>
      <point x="187" y="266"/>
      <point x="187" y="272" type="curve" smooth="yes"/>
      <point x="187" y="562" type="line"/>
      <point x="149" y="562" type="line"/>
      <point x="36" y="526" type="line"/>
      <point x="36" y="501" type="line"/>
      <point x="114" y="511" type="line"/>
      <point x="114" y="272" type="line" smooth="yes"/>
      <point x="114" y="266"/>
      <point x="109" y="262"/>
      <point x="103" y="262" type="curve" smooth="yes"/>
      <point x="58" y="260" type="line"/>
      <point x="58" y="235" type="line"/>
    </contour>
  </outline>
</glyph>
<glyph name="threequarters" format="2">
  <advance width="725"/>
  <unicode hex="00BE"/>
  <outline>
    <contour>
      <point x="697" y="85" type="line"/>
      <point x="697" y="124" type="line"/>
      <point x="639" y="124" type="line"/>
      <point x="639" y="324" type="line"/>
      <point x="583" y="324" type="line"/>
      <point x="412" y="126" type="line"/>
      <point x="412" y="85" type="line"/>
      <point x="572" y="85" type="line"/>
      <point x="572" y="-14" type="line"/>
      <point x="639" y="-14" type="line"/>
      <point x="639" y="85" type="line"/>
    </contour>
    <contour>
      <point x="581" y="555" type="line"/>
      <point x="523" y="555" type="line"/>
      <point x="169" y="0" type="line"/>
      <point x="228" y="0" type="line"/>
    </contour>
    <contour>
      <point x="282" y="328" type="curve" smooth="yes"/>
      <point x="282" y="400"/>
      <point x="194" y="406"/>
      <point x="180" y="405" type="curve" smooth="yes"/>
      <point x="195" y="407"/>
      <point x="269" y="421"/>
      <point x="269" y="482" type="curve" smooth="yes"/>
      <point x="269" y="539"/>
      <point x="210" y="564"/>
      <point x="153" y="564" type="curve" smooth="yes"/>
      <point x="87" y="564"/>
      <point x="36" y="536"/>
      <point x="36" y="496" type="curve" smooth="yes"/>
      <point x="36" y="473"/>
      <point x="55" y="462"/>
      <point x="77" y="462" type="curve" smooth="yes"/>
      <point x="86" y="462"/>
      <point x="96" y="463"/>
      <point x="105" y="468" type="curve"/>
      <point x="105" y="528" type="line"/>
      <point x="105" y="528"/>
      <point x="119" y="532"/>
      <point x="129" y="532" type="curve" smooth="yes"/>
      <point x="167" y="532"/>
      <point x="193" y="507"/>
      <point x="193" y="476" type="curve" smooth="yes"/>
      <point x="193" y="431"/>
      <point x="155" y="417"/>
      <point x="116" y="417" type="curve" smooth="yes"/>
      <point x="112" y="417"/>
      <point x="107" y="416"/>
      <point x="102" y="417" type="curve"/>
      <point x="102" y="381" type="line"/>
      <point x="102" y="381"/>
      <point x="119" y="383"/>
      <point x="135" y="383" type="curve" smooth="yes"/>
      <point x="183" y="383"/>
      <point x="206" y="355"/>
      <point x="206" y="325" type="curve" smooth="yes"/>
      <point x="206" y="287"/>
      <point x="176" y="260"/>
      <point x="140" y="260" type="curve" smooth="yes"/>
      <point x="126" y="260"/>
      <point x="116" y="264"/>
      <point x="105" y="267" type="curve"/>
      <point x="88" y="321" type="line"/>
      <point x="83" y="323"/>
      <point x="76" y="326"/>
      <point x="66" y="326" type="curve" smooth="yes"/>
      <point x="50" y="326"/>
      <point x="28" y="319"/>
      <point x="28" y="292" type="curve" smooth="yes"/>
      <point x="28" y="261"/>
      <point x="67" y="231"/>
      <point x="135" y="231" type="curve" smooth="yes"/>
      <point x="212" y="231"/>
      <point x="282" y="266"/>
    </contour>
    <contour>
      <point x="572" y="124" type="line"/>
      <point x="462" y="124" type="line"/>
      <point x="572" y="255" type="line"/>
    </contour>
  </outline>
</glyph>
<glyph name="questiondown" format="2">
  <advance width="417"/>
  <unicode hex="00BF"/>
  <outline>
    <contour>
      <point x="312" y="335" type="curve" smooth="yes"/>
      <point x="312" y="369"/>
      <point x="286" y="400"/>
      <point x="251" y="400" type="curve" smooth="yes"/>
      <point x="216" y="400"/>
      <point x="186" y="373"/>
      <point x="186" y="338" type="curve" smooth="yes"/>
      <point x="186" y="302"/>
      <point x="212" y="271"/>
      <point x="251" y="271" type="curve" smooth="yes"/>
      <point x="285" y="271"/>
      <point x="312" y="300"/>
    </contour>
    <contour>
      <point x="382" y="-64" type="curve" smooth="yes"/>
      <point x="382" y="-14"/>
      <point x="334" y="-12"/>
      <point x="313" y="-12" type="curve" smooth="yes"/>
      <point x="305" y="-12"/>
      <point x="303" y="-14"/>
      <point x="303" y="-14" type="curve"/>
      <point x="267" y="-110" type="line"/>
      <point x="197" y="-110"/>
      <point x="163" y="-67"/>
      <point x="163" y="-8" type="curve" smooth="yes"/>
      <point x="163" y="100"/>
      <point x="279" y="125"/>
      <point x="279" y="125" type="curve"/>
      <point x="279" y="232" type="line"/>
      <point x="224" y="232" type="line"/>
      <point x="224" y="164" type="line"/>
      <point x="224" y="164"/>
      <point x="51" y="128"/>
      <point x="51" y="-7" type="curve" smooth="yes"/>
      <point x="51" y="-100"/>
      <point x="129" y="-159"/>
      <point x="232" y="-159" type="curve" smooth="yes"/>
      <point x="297" y="-159"/>
      <point x="382" y="-133"/>
    </contour>
  </outline>
</glyph>
<glyph name="AE" format="2">
  <advance width="775"/>
  <unicode hex="00C6"/>
  <anchor x="447" y="585" name="U"/>
  <outline>
    <contour>
      <point x="751" y="0" type="line"/>
      <point x="751" y="146" type="line"/>
      <point x="692" y="146" type="line"/>
      <point x="680" y="63" type="line" smooth="yes"/>
      <point x="679" y="57"/>
      <point x="672" y="48"/>
      <point x="666" y="48" type="curve" smooth="yes"/>
      <point x="497" y="48" type="line"/>
      <point x="497" y="251" type="line"/>
      <point x="586" y="251" type="line" smooth="yes"/>
      <point x="592" y="251"/>
      <point x="600" y="244"/>
      <point x="600" y="238" type="curve" smooth="yes"/>
      <point x="607" y="183" type="line"/>
      <point x="657" y="183" type="line"/>
      <point x="657" y="371" type="line"/>
      <point x="607" y="371" type="line"/>
      <point x="600" y="316" type="line" smooth="yes"/>
      <point x="600" y="311"/>
      <point x="593" y="302"/>
      <point x="586" y="302" type="curve" smooth="yes"/>
      <point x="497" y="302" type="line"/>
      <point x="497" y="490" type="line"/>
      <point x="643" y="490" type="line" smooth="yes"/>
      <point x="651" y="490"/>
      <point x="655" y="483"/>
      <point x="656" y="475" type="curve" smooth="yes"/>
      <point x="667" y="408" type="line"/>
      <point x="725" y="408" type="line"/>
      <point x="725" y="536" type="line"/>
      <point x="256" y="536" type="line"/>
      <point x="256" y="496" type="line"/>
      <point x="296" y="492" type="line" smooth="yes"/>
      <point x="303" y="491"/>
      <point x="312" y="483"/>
      <point x="307" y="475" type="curve" smooth="yes"/>
      <point x="52" y="46" type="line"/>
      <point x="3" y="40" type="line"/>
      <point x="3" y="0" type="line"/>
      <point x="178" y="0" type="line"/>
      <point x="178" y="40" type="line"/>
      <point x="132" y="44" type="line" smooth="yes"/>
      <point x="125" y="45"/>
      <point x="122" y="52"/>
      <point x="127" y="61" type="curve" smooth="yes"/>
      <point x="206" y="195" type="line"/>
      <point x="383" y="195" type="line"/>
      <point x="383" y="61" type="line" smooth="yes"/>
      <point x="383" y="54"/>
      <point x="373" y="44"/>
      <point x="362" y="44" type="curve" smooth="yes"/>
      <point x="320" y="40" type="line"/>
      <point x="320" y="0" type="line"/>
    </contour>
    <contour>
      <point x="383" y="244" type="line"/>
      <point x="235" y="244" type="line"/>
      <point x="383" y="491" type="line"/>
    </contour>
  </outline>
</glyph>
<glyph name="Eth" format="2">
  <advance width="579"/>
  <unicode hex="00D0"/>
  <anchor x="280" y="585" name="U"/>
  <outline>
    <component base="D"/>
    <contour>
      <point x="11" y="255" type="line"/>
      <point x="317" y="255" type="line"/>
      <point x="317" y="307" type="line"/>
      <point x="11" y="307" type="line"/>
    </contour>
  </outline>
</glyph>
<glyph name="multiply" format="2">
  <advance width="369"/>
  <unicode hex="00D7"/>
  <outline>
    <contour>
      <point x="333" y="127" type="curve"/>
      <point x="333" y="145" type="line"/>
      <point x="94" y="383" type="line"/>
      <point x="82" y="380"/>
      <point x="46" y="373"/>
      <point x="34" y="368" type="curve"/>
      <point x="35" y="346" type="line"/>
      <point x="273" y="108" type="line"/>
      <point x="285" y="111"/>
      <point x="321" y="122"/>
    </contour>
    <contour>
      <point x="36" y="146" type="line"/>
      <point x="36" y="127" type="line"/>
      <point x="52" y="117"/>
      <point x="83" y="111"/>
      <point x="94" y="108" type="curve"/>
      <point x="331" y="345" type="line"/>
      <point x="331" y="364" type="line"/>
      <point x="320" y="372"/>
      <point x="286" y="380"/>
      <point x="273" y="383" type="curve"/>
    </contour>
  </outline>
</glyph>
<glyph name="Oslash" format="2">
  <advance width="604"/>
  <unicode hex="00D8"/>
  <anchor x="302" y="585" name="U"/>
  <outline>
    <contour>
      <point x="187" y="116" type="line"/>
      <point x="167" y="160"/>
      <point x="157" y="215"/>
      <point x="157" y="269" type="curve" smooth="yes"/>
      <point x="157" y="376"/>
      <point x="196" y="496"/>
      <point x="307" y="496" type="curve" smooth="yes"/>
      <point x="338" y="496"/>
      <point x="364" y="483"/>
      <point x="385" y="462" type="curve"/>
    </contour>
    <contour>
      <point x="415" y="419" type="line"/>
      <point x="435" y="377"/>
      <point x="447" y="321"/>
      <point x="447" y="262" type="curve" smooth="yes"/>
      <point x="447" y="159"/>
      <point x="406" y="37"/>
      <point x="299" y="37" type="curve" smooth="yes"/>
      <point x="265" y="37"/>
      <point x="238" y="51"/>
      <point x="217" y="73" type="curve"/>
    </contour>
    <contour>
      <point x="504" y="575" type="line"/>
      <point x="463" y="598" type="line"/>
      <point x="420" y="523" type="line"/>
      <point x="385" y="539"/>
      <point x="344" y="549"/>
      <point x="300" y="549" type="curve" smooth="yes"/>
      <point x="129" y="549"/>
      <point x="29" y="429"/>
      <point x="29" y="271" type="curve" smooth="yes"/>
      <point x="29" y="162"/>
      <point x="71" y="81"/>
      <point x="140" y="34" type="curve"/>
      <point x="95" y="-45" type="line"/>
      <point x="135" y="-69" type="line"/>
      <point x="182" y="11" type="line"/>
      <point x="219" y="-4"/>
      <point x="261" y="-12"/>
      <point x="307" y="-12" type="curve" smooth="yes"/>
      <point x="467" y="-12"/>
      <point x="576" y="112"/>
      <point x="576" y="265" type="curve" smooth="yes"/>
      <point x="576" y="362"/>
      <point x="533" y="448"/>
      <point x="461" y="500" type="curve"/>
    </contour>
  </outline>
</glyph>
<glyph name="Thorn" format="2">
  <advance width="497"/>
  <unicode hex="00DE"/>
  <outline>
    <contour>
      <point x="462" y="294" type="curve"/>
      <point x="462" y="395"/>
      <point x="374" y="450"/>
      <point x="242" y="450" type="curve" smooth="yes"/>
      <point x="190" y="450"/>
      <point x="147" y="446"/>
      <point x="107" y="440" type="curve"/>
      <point x="112" y="400" type="line"/>
      <point x="148" y="404"/>
      <point x="185" y="406"/>
      <point x="217" y="406" type="curve" smooth="yes"/>
      <point x="303" y="406"/>
      <point x="366" y="364"/>
      <point x="366" y="276" type="curve" smooth="yes"/>
      <point x="366" y="194"/>
      <point x="308" y="156"/>
      <point x="256" y="156" type="curve" smooth="yes"/>
      <point x="235" y="156"/>
      <point x="217" y="157"/>
      <point x="193" y="168" type="curve"/>
      <point x="205" y="128" type="line"/>
      <point x="225" y="118"/>
      <point x="251" y="114"/>
      <point x="278" y="114" type="curve" smooth="yes"/>
      <point x="353" y="114"/>
      <point x="462" y="173"/>
    </contour>
    <contour>
      <point x="19" y="0" type="line"/>
      <point x="253" y="0" type="line"/>
      <point x="253" y="27" type="line"/>
      <point x="192" y="37"/>
      <point x="178" y="47"/>
      <point x="178" y="54" type="curve" smooth="yes"/>
      <point x="178" y="498" type="line" smooth="yes"/>
      <point x="178" y="507"/>
      <point x="192" y="515"/>
      <point x="253" y="526" type="curve"/>
      <point x="253" y="553" type="line"/>
      <point x="19" y="553" type="line"/>
      <point x="19" y="526" type="line"/>
      <point x="61" y="517"/>
      <point x="81" y="505"/>
      <point x="81" y="498" type="curve" smooth="yes"/>
      <point x="81" y="54" type="line" smooth="yes"/>
      <point x="81" y="46"/>
      <point x="59" y="35"/>
      <point x="19" y="27" type="curve"/>
    </contour>
  </outline>
</glyph>
<glyph name="germandbls" format="2">
  <advance width="541"/>
  <unicode hex="00DF"/>
  <anchor x="269" y="601" name="U"/>
  <outline>
    <contour>
      <point x="21" y="0" type="line"/>
      <point x="229" y="0" type="line"/>
      <point x="229" y="37" type="line"/>
      <point x="197" y="39" type="line" smooth="yes"/>
      <point x="187" y="40"/>
      <point x="179" y="46"/>
      <point x="179" y="57" type="curve" smooth="yes"/>
      <point x="179" y="395" type="line" smooth="yes"/>
      <point x="179" y="414"/>
      <point x="176" y="548"/>
      <point x="277" y="548" type="curve" smooth="yes"/>
      <point x="328" y="548"/>
      <point x="349" y="495"/>
      <point x="349" y="455" type="curve" smooth="yes"/>
      <point x="349" y="438"/>
      <point x="342" y="394"/>
      <point x="342" y="394" type="curve"/>
      <point x="291" y="381"/>
      <point x="251" y="347"/>
      <point x="251" y="287" type="curve" smooth="yes"/>
      <point x="251" y="176"/>
      <point x="416" y="185"/>
      <point x="416" y="96" type="curve" smooth="yes"/>
      <point x="416" y="67"/>
      <point x="393" y="35"/>
      <point x="355" y="35" type="curve" smooth="yes"/>
      <point x="325" y="35"/>
      <point x="313" y="47"/>
      <point x="313" y="47" type="curve"/>
      <point x="307" y="122" type="line"/>
      <point x="254" y="122" type="line"/>
      <point x="254" y="6" type="line"/>
      <point x="254" y="6"/>
      <point x="302" y="-9"/>
      <point x="359" y="-9" type="curve" smooth="yes"/>
      <point x="442" y="-9"/>
      <point x="516" y="42"/>
      <point x="516" y="125" type="curve" smooth="yes"/>
      <point x="516" y="237"/>
      <point x="355" y="253"/>
      <point x="355" y="322" type="curve" smooth="yes"/>
      <point x="355" y="362"/>
      <point x="392" y="378"/>
      <point x="428" y="379" type="curve" smooth="yes"/>
      <point x="433" y="379"/>
      <point x="442" y="380"/>
      <point x="451" y="378" type="curve"/>
      <point x="457" y="398"/>
      <point x="460" y="422"/>
      <point x="460" y="448" type="curve" smooth="yes"/>
      <point x="460" y="549"/>
      <point x="378" y="597"/>
      <point x="297" y="597" type="curve" smooth="yes"/>
      <point x="104" y="597"/>
      <point x="71" y="430"/>
      <point x="71" y="354" type="curve" smooth="yes"/>
      <point x="71" y="57" type="line" smooth="yes"/>
      <point x="71" y="46"/>
      <point x="63" y="40"/>
      <point x="53" y="39" type="curve" smooth="yes"/>
      <point x="21" y="37" type="line"/>
    </contour>
  </outline>
</glyph>
<glyph name="ae" format="2">
  <advance width="647"/>
  <unicode hex="00E6"/>
  <outline>
    <contour>
      <point x="128" y="-13" type="curve" smooth="yes"/>
      <point x="177" y="-13"/>
      <point x="243" y="15"/>
      <point x="295" y="79" type="curve"/>
      <point x="325" y="20"/>
      <point x="382" y="-13"/>
      <point x="432" y="-13" type="curve" smooth="yes"/>
      <point x="498" y="-13"/>
      <point x="542" y="6"/>
      <point x="613" y="85" type="curve"/>
      <point x="610" y="90"/>
      <point x="599" y="106"/>
      <point x="592" y="110" type="curve"/>
      <point x="534" y="65"/>
      <point x="504" y="55"/>
      <point x="467" y="55" type="curve" smooth="yes"/>
      <point x="400" y="55"/>
      <point x="364" y="131"/>
      <point x="364" y="190" type="curve" smooth="yes"/>
      <point x="364" y="196"/>
      <point x="364" y="202"/>
      <point x="364" y="208" type="curve"/>
      <point x="560" y="208" type="line"/>
      <point x="579" y="215"/>
      <point x="605" y="230"/>
      <point x="616" y="242" type="curve"/>
      <point x="616" y="330"/>
      <point x="571" y="421"/>
      <point x="466" y="421" type="curve" smooth="yes"/>
      <point x="431" y="421"/>
      <point x="384" y="408"/>
      <point x="346" y="370" type="curve"/>
      <point x="328" y="406"/>
      <point x="296" y="421"/>
      <point x="250" y="421" type="curve" smooth="yes"/>
      <point x="189" y="421"/>
      <point x="67" y="375"/>
      <point x="40" y="290" type="curve"/>
      <point x="49" y="270" type="line"/>
      <point x="63" y="266"/>
      <point x="152" y="290"/>
      <point x="148" y="301" type="curve"/>
      <point x="136" y="341"/>
      <point x="183" y="369"/>
      <point x="216" y="369" type="curve" smooth="yes"/>
      <point x="260" y="369"/>
      <point x="276" y="338"/>
      <point x="276" y="288" type="curve" smooth="yes"/>
      <point x="276" y="253" type="line"/>
      <point x="247" y="251"/>
      <point x="218" y="248"/>
      <point x="201" y="244" type="curve" smooth="yes"/>
      <point x="82" y="214"/>
      <point x="30" y="155"/>
      <point x="30" y="86" type="curve" smooth="yes"/>
      <point x="30" y="13"/>
      <point x="86" y="-13"/>
    </contour>
    <contour>
      <point x="172" y="57" type="curve" smooth="yes"/>
      <point x="154" y="57"/>
      <point x="127" y="69"/>
      <point x="127" y="109" type="curve" smooth="yes"/>
      <point x="127" y="152"/>
      <point x="160" y="187"/>
      <point x="227" y="201" type="curve" smooth="yes"/>
      <point x="237" y="204"/>
      <point x="257" y="205"/>
      <point x="276" y="206" type="curve"/>
      <point x="276" y="165" type="line" smooth="yes"/>
      <point x="276" y="143"/>
      <point x="278" y="129"/>
      <point x="282" y="113" type="curve"/>
      <point x="242" y="72"/>
      <point x="201" y="57"/>
    </contour>
    <contour>
      <point x="368" y="254" type="line"/>
      <point x="381" y="357"/>
      <point x="426" y="373"/>
      <point x="453" y="373" type="curve" smooth="yes"/>
      <point x="499" y="373"/>
      <point x="526" y="330"/>
      <point x="526" y="270" type="curve" smooth="yes"/>
      <point x="526" y="258"/>
      <point x="521" y="254"/>
      <point x="509" y="254" type="curve" smooth="yes"/>
    </contour>
  </outline>
</glyph>
<glyph name="eth" format="2">
  <advance width="462"/>
  <unicode hex="00F0"/>
  <anchor x="231" y="601" name="U"/>
  <outline>
    <contour>
      <point x="436" y="209" type="curve" smooth="yes"/>
      <point x="436" y="371"/>
      <point x="307" y="507"/>
      <point x="307" y="507" type="curve"/>
      <point x="393" y="553" type="line"/>
      <point x="373" y="590" type="line"/>
      <point x="282" y="541" type="line"/>
      <point x="220" y="601" type="line"/>
      <point x="95" y="560" type="line"/>
      <point x="95" y="524" type="line"/>
      <point x="166" y="522" type="line"/>
      <point x="192" y="494" type="line"/>
      <point x="106" y="448" type="line"/>
      <point x="125" y="412" type="line"/>
      <point x="221" y="463" type="line"/>
      <point x="235" y="449"/>
      <point x="271" y="395"/>
      <point x="275" y="390" type="curve"/>
      <point x="270" y="390"/>
      <point x="239" y="400"/>
      <point x="216" y="400" type="curve" smooth="yes"/>
      <point x="95" y="400"/>
      <point x="25" y="298"/>
      <point x="25" y="191" type="curve" smooth="yes"/>
      <point x="25" y="80"/>
      <point x="94" y="-9"/>
      <point x="239" y="-9" type="curve" smooth="yes"/>
      <point x="352" y="-9"/>
      <point x="436" y="67"/>
    </contour>
    <contour>
      <point x="323" y="204" type="curve" smooth="yes"/>
      <point x="323" y="116"/>
      <point x="302" y="35"/>
      <point x="233" y="35" type="curve" smooth="yes"/>
      <point x="162" y="35"/>
      <point x="143" y="112"/>
      <point x="143" y="190" type="curve" smooth="yes"/>
      <point x="143" y="276"/>
      <point x="171" y="358"/>
      <point x="249" y="358" type="curve" smooth="yes"/>
      <point x="272" y="358"/>
      <point x="296" y="343"/>
      <point x="296" y="343" type="curve"/>
      <point x="302" y="330"/>
      <point x="323" y="286"/>
    </contour>
  </outline>
</glyph>
<glyph name="divide" format="2">
  <advance width="382"/>
  <unicode hex="00F7"/>
  <outline>
    <contour>
      <point x="360" y="266" type="curve"/>
      <point x="344" y="281" type="line"/>
      <point x="44" y="281" type="line"/>
      <point x="39" y="269"/>
      <point x="25" y="240"/>
      <point x="21" y="228" type="curve"/>
      <point x="37" y="213" type="line"/>
      <point x="337" y="213" type="line"/>
      <point x="342" y="222"/>
      <point x="356" y="253"/>
    </contour>
    <contour>
      <point x="242" y="374" type="curve" smooth="yes"/>
      <point x="242" y="405"/>
      <point x="228" y="421"/>
      <point x="200" y="421" type="curve" smooth="yes"/>
      <point x="169" y="421"/>
      <point x="144" y="391"/>
      <point x="144" y="355" type="curve" smooth="yes"/>
      <point x="144" y="324"/>
      <point x="156" y="307"/>
      <point x="185" y="307" type="curve" smooth="yes"/>
      <point x="217" y="307"/>
      <point x="242" y="338"/>
    </contour>
    <contour>
      <point x="242" y="140" type="curve" smooth="yes"/>
      <point x="242" y="170"/>
      <point x="228" y="186"/>
      <point x="200" y="186" type="curve" smooth="yes"/>
      <point x="169" y="186"/>
      <point x="144" y="157"/>
      <point x="144" y="120" type="curve" smooth="yes"/>
      <point x="144" y="90"/>
      <point x="156" y="72"/>
      <point x="185" y="72" type="curve" smooth="yes"/>
      <point x="217" y="72"/>
      <point x="242" y="103"/>
    </contour>
  </outline>
</glyph>
<glyph name="oslash" format="2">
  <advance width="467"/>
  <unicode hex="00F8"/>
  <anchor x="233" y="0" name="H"/>
  <anchor x="233" y="429" name="U"/>
  <outline>
    <contour>
      <point x="442" y="192" type="curve" smooth="yes"/>
      <point x="442" y="272"/>
      <point x="410" y="336"/>
      <point x="351" y="371" type="curve"/>
      <point x="388" y="439" type="line"/>
      <point x="353" y="459" type="line"/>
      <point x="313" y="387" type="line"/>
      <point x="291" y="396"/>
      <point x="265" y="400"/>
      <point x="236" y="400" type="curve" smooth="yes"/>
      <point x="112" y="400"/>
      <point x="25" y="324"/>
      <point x="25" y="193" type="curve" smooth="yes"/>
      <point x="25" y="116"/>
      <point x="56" y="57"/>
      <point x="109" y="23" type="curve"/>
      <point x="71" y="-44" type="line"/>
      <point x="107" y="-66" type="line"/>
      <point x="146" y="4" type="line"/>
      <point x="171" y="-4"/>
      <point x="200" y="-9"/>
      <point x="231" y="-9" type="curve" smooth="yes"/>
      <point x="364" y="-9"/>
      <point x="442" y="73"/>
    </contour>
    <contour>
      <point x="283" y="334" type="curve"/>
      <point x="155" y="107" type="line"/>
      <point x="148" y="135"/>
      <point x="145" y="167"/>
      <point x="145" y="196" type="curve" smooth="yes"/>
      <point x="145" y="265"/>
      <point x="161" y="354"/>
      <point x="233" y="354" type="curve" smooth="yes"/>
      <point x="255" y="354"/>
      <point x="271" y="347"/>
    </contour>
    <contour>
      <point x="323" y="193" type="curve" smooth="yes"/>
      <point x="323" y="122"/>
      <point x="307" y="35"/>
      <point x="234" y="35" type="curve" smooth="yes"/>
      <point x="209" y="35"/>
      <point x="192" y="45"/>
      <point x="178" y="61" type="curve"/>
      <point x="307" y="294" type="line"/>
      <point x="319" y="263"/>
      <point x="323" y="225"/>
    </contour>
  </outline>
</glyph>
